{"glyphs":{"0":{"ha":464,"x_min":247,"x_max":656,"o":"m 474 608 q 442 613 447 613 q 418 607 426 613 q 340 483 374 571 q 300 301 306 396 q 325 131 294 199 q 425 51 357 64 q 553 113 504 36 q 603 308 601 186 q 561 519 606 432 q 474 608 526 589 m 497 653 q 606 543 564 625 q 653 308 656 443 q 596 85 651 172 q 417 1 529 -19 q 332 41 367 11 q 279 114 297 71 q 254 204 261 157 q 250 304 247 251 q 294 504 257 407 q 388 646 332 601 q 428 663 404 660 q 442 665 435 665 q 486 657 465 664 l 488 657 q 497 653 493 656 z "},"1":{"ha":197,"x_min":244,"x_max":386,"o":"m 250 533 q 256 543 250 535 q 272 567 263 551 l 290 594 l 317 635 l 326 649 q 331 653 329 651 q 333 657 332 656 q 338 660 335 658 q 351 664 343 664 q 381 640 372 664 q 385 618 383 632 q 383 561 386 597 q 379 505 382 539 q 376 464 376 471 q 385 25 367 169 q 380 7 386 15 q 363 -3 374 -1 q 344 2 353 -4 q 335 19 336 8 q 326 467 317 168 q 330 508 326 472 q 333 564 333 543 q 335 571 335 567 l 332 567 l 313 539 q 297 514 303 524 l 292 506 q 276 495 286 497 q 257 499 265 493 q 247 515 249 504 q 250 533 244 525 z "},"2":{"ha":518,"x_min":258,"x_max":707,"o":"m 260 436 q 304 541 267 489 q 390 626 342 593 q 485 660 443 663 q 551 590 540 656 q 490 331 565 497 q 422 194 467 279 q 372 99 378 108 l 356 64 l 385 82 q 674 215 542 179 q 692 213 683 218 q 704 199 701 208 q 702 180 707 189 q 688 168 697 171 q 410 40 561 133 q 357 7 364 11 q 333 -6 342 -1 q 319 -8 325 -8 q 294 0 304 -11 q 286 24 286 10 q 289 38 288 29 l 300 67 l 310 85 l 319 106 q 328 121 325 117 q 377 215 332 131 q 444 351 422 300 q 501 582 514 504 q 481 610 497 608 q 418 585 457 611 q 347 513 378 557 q 310 431 315 469 q 300 413 308 419 q 281 408 292 407 q 265 418 271 410 q 260 436 258 426 z "},"3":{"ha":429,"x_min":197,"x_max":621,"o":"m 283 529 q 328 582 297 554 q 392 626 358 610 q 468 643 433 647 q 539 596 514 638 q 519 468 569 543 q 490 429 508 449 q 553 411 521 428 q 615 299 621 372 q 471 82 606 169 q 224 0 354 6 q 205 7 213 0 q 197 24 197 14 q 204 42 197 35 q 221 50 211 50 q 443 124 339 54 q 565 301 557 199 q 528 367 568 344 q 451 368 489 389 q 435 357 444 364 l 418 346 q 376 329 394 329 q 368 331 372 329 q 351 344 356 333 q 351 368 344 356 q 357 375 353 372 q 372 388 361 379 q 408 415 399 404 q 478 494 460 468 q 494 571 511 544 q 464 593 483 592 q 414 581 443 596 q 362 545 386 568 q 328 504 338 522 q 313 493 322 496 q 294 495 303 490 q 282 510 285 500 q 283 529 279 519 z "},"4":{"ha":539,"x_min":200,"x_max":725,"o":"m 490 307 l 490 331 q 489 560 493 476 l 421 468 q 313 328 324 344 l 274 274 l 307 281 q 329 286 326 285 q 490 307 403 300 m 532 639 q 540 329 544 528 l 540 310 q 700 314 610 314 q 717 306 710 314 q 725 289 725 299 q 717 272 725 279 q 700 264 710 264 q 539 260 610 264 q 543 25 536 114 q 538 8 544 15 q 520 -1 531 0 q 502 4 510 -3 q 493 22 494 11 q 489 257 486 111 q 338 236 408 250 q 317 232 336 236 l 283 225 l 249 218 q 233 217 239 218 q 215 221 222 217 q 200 239 203 226 l 200 249 q 203 255 201 251 q 207 263 204 258 l 219 283 l 271 358 l 381 499 q 482 640 447 585 q 483 643 482 642 q 504 661 488 660 q 522 656 514 663 q 532 639 531 649 z "},"5":{"ha":450,"x_min":278,"x_max":643,"o":"m 578 604 q 529 605 574 604 q 453 606 485 606 q 383 604 408 606 q 361 601 369 603 l 360 601 q 351 549 351 586 l 351 524 q 481 561 404 569 q 596 497 557 553 q 640 326 643 422 q 593 142 638 229 q 468 3 547 49 q 294 -4 389 -42 q 281 10 285 0 q 281 29 278 19 q 294 42 285 39 q 314 43 304 46 q 447 49 385 14 q 549 164 508 83 q 590 327 588 242 q 554 469 592 413 q 464 513 525 511 q 372 472 403 514 q 365 453 371 469 q 342 417 358 426 q 317 414 329 408 q 299 435 301 418 q 300 453 299 442 q 302 463 301 458 q 303 469 303 467 q 304 472 304 471 q 303 504 304 476 q 301 549 301 532 q 325 638 301 611 q 351 650 332 647 q 379 654 363 653 q 453 656 407 656 q 529 655 485 656 q 578 654 574 654 q 595 647 588 654 q 603 629 603 639 q 595 612 603 619 q 578 604 588 604 z "},"6":{"ha":438,"x_min":231,"x_max":636,"o":"m 301 75 q 340 38 315 53 q 457 28 401 6 q 549 111 513 51 q 574 215 583 169 q 506 268 563 261 q 357 178 438 276 q 301 75 325 139 m 529 628 q 351 433 417 550 q 282 182 285 315 l 282 153 q 318 208 300 186 q 511 318 417 331 q 622 226 604 306 q 592 86 636 161 q 522 8 564 40 q 425 -33 481 -24 q 313 -4 369 -42 q 247 73 264 26 q 232 182 231 119 q 307 457 235 329 q 501 669 378 585 q 520 673 510 675 q 536 663 531 671 q 540 644 542 654 q 529 628 538 633 z "},"7":{"ha":443,"x_min":233,"x_max":633,"o":"m 267 635 q 388 615 321 618 q 511 625 456 613 q 574 651 539 631 q 586 658 582 656 q 604 663 596 663 q 629 646 622 663 q 633 626 633 638 q 632 618 633 622 q 631 614 632 617 q 628 606 629 611 l 617 579 l 583 501 q 528 374 532 385 q 429 0 460 189 q 419 -16 428 -10 q 400 -21 410 -22 q 384 -10 390 -19 q 379 8 378 -1 q 481 390 413 203 q 538 522 485 403 l 567 590 q 522 575 544 581 q 387 565 461 563 q 253 588 313 568 q 238 599 242 590 q 236 619 233 608 q 248 633 239 629 q 267 635 257 638 z "},"8":{"ha":464,"x_min":276,"x_max":667,"o":"m 453 606 q 435 586 443 600 q 404 518 414 560 q 397 446 393 476 q 408 418 400 421 q 453 433 426 410 q 499 504 482 460 q 504 578 515 549 q 457 606 496 604 l 453 606 m 385 374 q 347 439 353 390 q 356 531 342 481 q 393 615 368 581 q 467 663 426 660 q 489 651 481 664 q 551 594 536 638 q 546 488 568 549 q 519 436 536 460 q 624 381 588 425 q 656 244 667 328 q 595 103 644 171 q 478 8 546 36 q 322 19 376 -31 q 283 153 276 63 q 315 271 289 210 q 385 374 342 332 m 468 371 q 377 283 415 349 q 333 149 339 217 q 357 56 329 83 q 458 56 388 28 q 556 133 514 76 q 606 251 597 190 q 585 349 614 313 q 483 390 554 388 q 468 371 481 376 z "},"9":{"ha":379,"x_min":207,"x_max":583,"o":"m 507 610 q 415 564 463 600 q 331 474 369 526 q 272 353 283 407 q 286 288 263 303 q 336 299 306 275 q 408 392 369 326 q 504 593 450 463 q 506 594 506 593 q 507 606 506 597 l 507 610 m 518 496 q 451 365 483 421 q 368 261 407 293 q 258 246 310 213 q 224 363 207 281 q 289 503 236 429 q 417 625 343 578 q 561 661 490 672 q 577 651 571 660 q 582 632 583 642 q 565 613 579 618 l 565 608 q 568 589 567 601 l 568 535 q 567 475 568 511 l 567 440 q 568 22 564 114 q 561 4 568 13 q 544 -4 554 -4 q 526 3 535 -4 q 518 19 518 10 q 517 440 517 50 q 517 464 517 444 q 518 496 518 483 z "}," ":{"ha":315,"x_min":0,"x_max":0,"o":""},"!":{"ha":243,"x_min":353,"x_max":433,"o":"m 422 707 q 426 621 422 699 q 431 515 429 543 q 433 416 432 486 q 431 305 433 346 q 421 212 428 264 q 403 121 414 160 q 391 106 400 111 q 372 104 382 101 q 358 116 363 107 q 356 135 353 125 q 372 221 365 171 q 381 308 378 271 q 383 416 383 346 q 381 512 382 486 q 376 617 379 538 q 372 704 372 697 q 379 723 372 715 q 397 731 386 731 q 415 724 407 731 q 422 707 422 717 m 399 45 q 403 41 399 45 q 407 28 407 38 q 399 10 407 18 q 382 3 392 3 q 365 10 372 3 q 357 28 357 18 q 365 45 357 38 q 382 53 372 53 q 399 45 392 53 z "},"\"":{"ha":294,"x_min":315,"x_max":481,"o":"m 365 657 q 369 514 369 551 q 362 497 369 504 q 344 489 354 489 q 327 497 335 489 q 319 514 319 504 q 315 654 319 551 q 322 673 315 665 q 340 681 329 681 q 358 674 350 681 q 365 657 365 667 m 476 657 q 478 578 476 631 q 481 499 481 525 q 473 481 481 489 q 456 474 465 474 q 438 481 446 474 q 431 499 431 489 q 428 578 431 525 q 426 657 426 631 q 434 674 426 667 q 451 682 442 682 q 469 674 461 682 q 476 657 476 667 z "},"#":{"ha":596,"x_min":253,"x_max":785,"o":"m 597 440 q 590 568 594 518 q 596 587 589 579 q 613 596 603 594 q 631 590 624 597 q 640 574 639 583 q 647 447 644 522 l 732 461 q 751 456 743 463 q 761 440 760 450 q 756 421 763 429 q 740 411 750 413 l 649 397 q 651 344 650 363 q 654 275 653 306 q 761 269 710 275 q 778 260 771 268 q 783 242 785 253 q 774 225 782 232 q 756 219 767 218 q 658 225 708 225 q 672 121 664 168 q 668 103 674 111 q 652 92 663 94 q 633 96 642 90 q 622 113 625 101 q 608 225 614 164 q 428 207 519 222 q 413 107 422 156 q 401 92 410 97 q 383 88 393 86 q 367 99 372 90 q 363 118 361 107 q 376 199 371 157 q 286 178 331 189 q 266 180 275 175 q 255 195 257 185 q 258 215 253 206 q 272 225 263 224 q 383 250 328 240 q 392 378 389 308 q 289 388 339 379 q 273 399 279 390 q 269 417 267 407 q 279 433 271 426 q 297 438 288 439 q 393 428 343 429 q 394 572 394 479 q 402 590 394 582 q 419 597 410 597 q 437 590 429 597 q 444 572 444 582 q 443 428 444 479 q 597 440 508 429 m 600 390 q 442 378 510 378 q 433 258 439 314 q 604 275 521 272 q 601 342 603 304 q 600 390 600 360 z "},"$":{"ha":518,"x_min":311,"x_max":711,"o":"m 494 314 q 479 410 490 344 q 464 510 468 476 q 411 479 428 501 q 397 408 390 454 q 435 354 401 382 q 494 314 456 336 m 556 221 l 565 125 q 610 126 590 125 l 629 126 l 644 126 l 653 126 l 650 133 q 556 221 631 175 m 508 565 q 656 532 590 567 q 668 517 665 526 q 666 498 671 507 q 651 486 661 489 q 633 488 642 483 q 514 515 581 515 q 531 414 517 486 q 547 297 543 342 l 549 283 q 641 222 604 251 q 694 153 678 192 q 704 131 701 138 q 690 89 711 103 q 646 76 674 78 l 628 76 l 613 76 q 569 75 594 75 q 582 -86 578 -14 q 575 -104 582 -96 q 558 -112 568 -112 q 540 -106 549 -112 q 532 -89 532 -99 q 519 76 528 -14 l 486 76 q 338 71 436 76 q 319 78 328 71 q 311 94 311 85 q 318 113 311 104 q 335 121 325 121 q 486 126 435 126 l 515 126 l 501 253 l 497 254 q 403 315 431 292 q 347 400 354 356 q 372 511 338 468 q 458 560 401 547 q 456 621 456 593 q 463 638 456 631 q 481 646 471 646 q 498 638 490 646 q 506 621 506 631 q 508 565 506 594 z "},"%":{"ha":494,"x_min":346,"x_max":685,"o":"m 679 604 q 396 8 515 378 q 384 -7 393 -3 q 365 -8 375 -11 q 350 3 354 -6 q 349 22 346 13 q 638 635 469 401 q 655 644 644 643 q 674 640 665 646 q 683 623 682 633 q 679 604 685 613 m 427 569 q 431 565 427 569 q 435 551 435 561 q 427 534 435 542 q 410 526 419 526 q 392 534 400 526 q 385 551 385 542 q 392 569 385 561 q 410 576 400 576 q 427 569 419 576 m 619 88 q 623 84 619 88 q 626 71 626 81 q 619 53 626 61 q 601 46 611 46 q 584 53 592 46 q 576 71 576 61 q 584 88 576 81 q 601 96 592 96 q 619 88 611 96 z "},"&":{"ha":533,"x_min":317,"x_max":740,"o":"m 529 264 q 704 294 614 256 q 724 294 714 297 q 737 281 733 290 q 737 261 740 271 q 724 247 733 251 q 674 229 699 238 q 672 219 674 225 q 514 -14 603 43 q 433 -34 472 -40 q 371 8 393 -28 q 349 88 350 42 q 369 194 347 135 q 436 310 392 253 q 353 332 383 299 q 336 425 317 369 q 392 513 349 465 q 465 581 424 549 q 532 628 506 614 q 551 629 542 632 q 566 617 561 626 q 568 599 571 608 q 557 583 565 589 q 496 541 533 571 q 428 479 458 511 q 383 410 393 440 q 389 365 374 382 q 436 361 403 350 q 500 394 458 369 l 543 421 l 558 429 l 564 432 q 569 435 565 433 l 575 435 q 593 426 586 435 q 599 401 604 415 q 594 394 597 397 l 590 390 q 476 280 521 338 q 415 176 431 222 q 400 93 400 129 q 413 36 400 57 q 440 15 424 18 q 488 29 461 13 q 617 217 557 72 q 524 214 569 210 q 507 223 514 215 q 501 241 500 231 q 510 258 503 251 q 529 264 518 265 z "},"'":{"ha":186,"x_min":317,"x_max":374,"o":"m 374 661 q 368 504 374 558 q 359 488 367 494 q 341 482 351 481 q 324 491 331 483 q 318 510 317 499 q 324 661 324 561 q 331 678 324 671 q 349 686 339 686 q 366 678 358 686 q 374 661 374 671 z "},"(":{"ha":301,"x_min":313,"x_max":489,"o":"m 481 706 q 363 331 363 544 q 482 -40 363 117 q 488 -59 489 -49 q 478 -76 486 -69 q 459 -81 469 -82 q 443 -71 449 -79 q 313 331 313 100 q 439 736 313 561 q 456 746 446 744 q 475 741 467 747 q 485 724 483 735 q 481 706 486 714 z "},")":{"ha":244,"x_min":247,"x_max":440,"o":"m 253 -31 q 381 342 374 135 q 274 715 389 550 q 269 735 268 725 q 280 751 271 744 q 299 756 289 757 q 315 746 308 754 q 432 340 440 564 q 294 -61 424 117 q 277 -71 288 -69 q 258 -66 267 -72 q 249 -49 250 -60 q 253 -31 247 -39 z "},"*":{"ha":478,"x_min":311,"x_max":665,"o":"m 479 610 l 490 647 q 501 662 492 657 q 520 665 510 667 q 535 653 531 663 q 538 633 540 644 q 496 508 519 565 q 633 532 564 517 q 653 528 644 533 q 663 512 661 522 q 660 493 665 501 q 644 482 654 485 q 508 458 575 468 q 550 403 526 432 q 556 385 557 394 q 546 368 554 375 q 528 363 538 361 q 511 372 518 364 l 494 393 l 496 385 q 490 366 497 374 q 473 357 483 358 q 455 363 463 356 q 446 379 447 369 l 443 410 q 388 347 417 372 q 369 342 379 340 q 351 351 358 343 q 346 369 344 358 q 354 386 347 379 q 408 447 382 408 q 338 443 372 444 q 319 450 326 443 q 311 467 311 457 q 318 485 311 478 q 335 493 325 493 q 422 500 379 496 q 372 606 392 551 q 374 624 369 615 q 388 637 378 633 q 406 636 397 640 q 419 622 415 632 q 429 597 424 610 q 432 671 429 636 q 441 688 433 681 q 459 693 449 694 q 476 684 469 692 q 482 665 483 676 q 479 610 479 639 z "},"+":{"ha":392,"x_min":317,"x_max":579,"o":"m 432 201 q 342 200 386 200 q 324 208 332 200 q 317 225 317 215 q 324 242 317 235 q 342 250 332 250 q 435 251 389 250 q 436 292 435 257 q 439 344 438 326 q 447 361 439 354 q 465 368 454 368 q 482 360 475 368 q 489 342 489 353 q 485 254 489 338 l 550 260 q 569 254 561 261 q 578 237 576 247 q 572 219 579 226 q 556 210 565 211 l 482 204 q 481 119 481 157 q 473 102 481 110 q 456 94 465 94 q 438 102 446 94 q 431 119 431 110 q 432 201 431 156 z "},",":{"ha":192,"x_min":267,"x_max":385,"o":"m 372 75 q 372 -31 385 10 q 308 -115 358 -71 q 290 -120 300 -121 q 273 -112 279 -119 q 267 -94 267 -104 q 275 -76 268 -83 q 325 -14 315 -42 q 322 64 333 13 q 326 83 321 75 q 342 94 332 92 q 361 90 353 96 q 372 75 369 85 z "},"-":{"ha":408,"x_min":335,"x_max":596,"o":"m 360 210 q 567 215 522 210 q 585 210 576 217 q 594 194 593 204 q 590 175 596 183 q 572 165 583 167 q 360 160 525 160 q 342 167 350 160 q 335 185 335 175 q 342 202 335 194 q 360 210 350 210 z "},".":{"ha":175,"x_min":311,"x_max":361,"o":"m 353 45 q 357 41 353 45 q 361 28 361 38 q 353 10 361 18 q 336 3 346 3 q 319 10 326 3 q 311 28 311 18 q 319 45 311 38 q 336 53 326 53 q 353 45 346 53 z "},"/":{"ha":411,"x_min":275,"x_max":601,"o":"m 279 -1 l 408 310 q 553 646 499 529 q 567 659 557 656 q 585 658 576 663 q 598 644 594 654 q 597 626 601 635 q 454 289 544 508 q 324 -21 364 69 q 310 -34 319 -31 q 292 -33 301 -37 q 278 -20 282 -29 q 279 -1 275 -11 z "},":":{"ha":203,"x_min":335,"x_max":389,"o":"m 381 303 q 385 300 381 303 q 389 286 389 296 q 381 269 389 276 q 364 261 374 261 q 347 269 354 261 q 339 286 339 276 q 347 303 339 296 q 364 311 354 311 q 381 303 374 311 m 377 117 q 381 114 377 117 q 385 100 385 110 q 377 83 385 90 q 360 75 369 75 q 342 83 350 75 q 335 100 335 90 q 342 117 335 110 q 360 125 350 125 q 377 117 369 125 z "},";":{"ha":201,"x_min":258,"x_max":401,"o":"m 367 82 q 386 -54 401 7 q 296 -161 369 -122 q 278 -162 288 -165 q 263 -151 268 -160 q 261 -132 258 -142 q 274 -117 264 -122 q 338 -43 326 -89 q 322 60 349 1 q 322 79 318 69 q 334 93 325 89 q 353 94 343 97 q 367 82 363 90 m 377 315 q 381 311 377 315 q 385 297 385 307 q 377 280 385 288 q 360 272 369 272 q 342 280 350 272 q 335 297 335 288 q 342 315 335 307 q 360 322 350 322 q 377 315 369 322 z "},"<":{"ha":496,"x_min":242,"x_max":694,"o":"m 667 308 l 625 294 l 546 264 l 461 232 l 340 186 l 329 182 q 438 149 361 171 q 572 106 514 126 q 679 61 631 86 q 692 47 689 57 q 690 28 694 38 q 676 15 686 18 q 657 17 667 13 q 554 60 610 40 q 424 101 499 79 q 311 135 349 122 q 299 139 310 135 q 279 144 286 142 q 258 157 265 149 q 253 196 242 175 q 263 206 257 201 q 268 208 264 207 q 282 215 272 211 q 322 233 296 222 l 443 279 l 528 311 l 608 340 q 648 355 639 351 q 667 355 657 358 q 680 342 676 351 q 680 322 683 332 q 667 308 676 313 z "},"=":{"ha":446,"x_min":313,"x_max":632,"o":"m 343 257 q 474 257 393 253 q 607 261 582 261 q 624 253 617 261 q 632 236 632 246 q 624 219 632 226 q 607 211 617 211 q 475 207 582 211 q 340 207 393 203 q 322 216 329 208 q 317 234 315 224 q 326 251 318 244 q 343 257 333 258 m 338 157 q 468 163 381 157 q 603 169 558 169 q 620 162 613 169 q 628 144 628 154 q 620 127 628 135 q 603 119 613 119 q 472 114 560 119 q 338 107 383 107 q 320 115 328 107 q 313 132 313 122 q 320 149 313 142 q 338 157 328 157 z "},">":{"ha":496,"x_min":242,"x_max":693,"o":"m 264 69 l 306 83 l 385 111 l 471 140 q 592 183 549 167 l 606 188 q 496 224 568 201 q 364 269 424 247 q 256 317 304 292 q 244 332 247 322 q 247 351 242 342 q 261 363 251 360 q 281 361 271 365 q 383 315 326 336 q 510 272 439 294 q 622 235 582 250 q 636 231 625 233 q 654 225 649 226 q 676 211 669 219 q 679 171 693 193 q 671 163 676 167 q 665 158 668 161 q 651 153 660 156 q 610 136 638 146 q 488 93 561 118 l 401 64 l 322 36 q 281 23 290 26 q 262 24 271 19 q 249 38 253 28 q 250 56 246 47 q 264 69 254 65 z "},"?":{"ha":428,"x_min":282,"x_max":628,"o":"m 289 576 q 385 636 326 615 q 499 651 444 657 q 592 610 561 646 q 607 500 628 568 q 581 446 599 472 q 550 406 564 419 l 510 369 q 476 339 485 347 q 422 260 439 304 q 417 140 406 215 q 412 121 418 129 q 395 111 406 113 q 376 116 385 110 q 367 132 368 122 q 375 276 354 221 q 442 375 396 332 q 478 408 454 388 q 513 441 501 429 q 539 472 525 453 q 560 514 553 492 q 553 578 572 556 q 494 601 536 599 q 402 589 450 606 q 325 543 354 572 q 308 535 318 535 q 290 542 297 535 q 282 559 282 549 q 289 576 282 569 m 423 44 q 427 40 423 44 q 431 26 431 36 q 423 9 431 17 q 406 1 415 1 q 388 9 396 1 q 381 26 381 17 q 388 44 381 36 q 406 51 396 51 q 423 44 415 51 z "},"@":{"ha":697,"x_min":144,"x_max":892,"o":"m 546 425 q 535 446 543 440 q 517 447 529 449 q 439 393 482 439 q 375 290 394 346 q 378 196 356 233 q 399 182 385 182 q 438 196 414 182 q 480 232 460 210 q 506 269 500 254 q 532 354 514 289 l 532 357 l 532 363 l 532 371 q 536 389 533 382 q 557 404 543 403 q 581 396 571 406 q 589 356 594 381 q 585 346 586 350 l 585 343 q 584 308 585 322 q 587 279 583 293 q 597 250 590 265 q 653 215 610 224 q 726 219 697 206 q 774 269 753 233 q 800 340 794 304 q 758 511 817 436 q 600 614 700 586 q 399 604 497 642 q 247 460 301 567 q 202 272 196 358 q 251 124 208 186 q 367 24 294 61 q 522 -17 439 -14 q 693 19 606 -21 q 846 140 781 58 q 863 150 853 149 q 881 144 872 151 q 890 128 889 138 q 885 110 892 118 q 713 -26 811 18 q 521 -67 615 -71 q 344 -21 426 -64 q 209 96 260 22 q 151 269 158 169 q 203 482 144 367 q 285 589 236 546 q 387 652 333 633 q 500 675 440 671 q 613 661 560 679 q 799 540 728 629 q 850 332 869 450 q 815 240 842 286 q 749 175 789 194 q 643 165 704 153 q 553 228 575 181 q 547 240 550 235 q 464 154 519 188 q 397 132 428 132 q 333 171 356 132 q 328 307 301 228 q 403 428 350 372 q 507 496 457 485 q 563 488 539 503 q 596 436 586 472 q 592 417 597 426 q 576 406 586 408 q 558 410 567 404 q 546 425 549 415 z "},"A":{"ha":632,"x_min":235,"x_max":821,"o":"m 432 251 l 503 263 q 646 282 596 276 q 608 426 625 357 q 581 588 594 489 l 579 589 l 578 583 l 542 510 l 432 251 m 408 197 l 297 -65 q 283 -78 293 -75 q 264 -78 274 -82 q 251 -65 254 -75 q 250 -46 247 -56 l 350 189 q 264 178 303 182 q 245 183 253 176 q 236 201 238 190 q 242 219 235 211 q 258 228 249 226 q 374 242 308 232 l 497 529 q 532 606 503 544 l 557 654 q 565 672 563 665 q 569 678 568 675 q 572 682 571 681 q 576 686 575 683 q 593 690 585 690 q 613 681 604 689 q 615 674 614 678 q 618 665 617 671 l 622 649 q 629 594 622 643 q 658 438 643 499 q 697 286 675 363 q 754 288 726 288 q 772 280 764 288 q 779 263 779 272 q 772 245 779 253 q 754 238 764 238 q 711 236 733 238 l 724 194 q 815 -24 775 31 q 819 -42 821 -32 q 810 -59 818 -53 q 791 -64 801 -65 q 774 -54 781 -62 q 676 181 732 4 l 660 233 q 511 214 600 228 l 408 197 z "},"B":{"ha":513,"x_min":275,"x_max":708,"o":"m 339 611 q 349 428 346 528 l 388 443 q 492 488 475 478 q 546 558 543 518 q 528 605 549 589 q 467 624 508 621 q 339 611 408 629 m 346 24 q 583 69 499 7 q 654 219 661 126 q 615 321 651 276 q 513 385 579 365 q 349 375 446 406 l 349 374 q 349 307 350 342 q 347 160 349 256 q 346 24 346 64 m 504 438 q 646 362 592 422 q 704 222 700 301 q 685 117 708 168 q 614 29 663 65 q 346 -26 514 -44 q 338 -44 346 -37 q 321 -51 331 -51 q 303 -44 311 -51 q 296 -26 296 -36 l 296 -22 l 296 -15 q 288 7 286 -7 q 296 22 289 15 q 297 159 296 63 q 299 307 299 256 q 299 385 300 349 l 299 389 q 289 607 297 510 q 281 618 283 611 q 286 644 275 633 q 308 664 290 663 q 326 660 318 665 q 471 674 404 679 q 560 644 528 669 q 596 553 601 613 q 518 444 590 488 q 504 438 511 442 m 321 419 l 303 415 l 319 418 q 321 419 321 418 z "},"C":{"ha":492,"x_min":250,"x_max":697,"o":"m 574 550 q 555 601 569 576 q 522 633 540 626 q 443 629 479 651 q 379 553 408 608 q 318 344 329 458 q 346 74 301 179 q 446 -31 383 -17 q 560 21 506 -44 q 646 256 625 99 q 656 273 647 267 q 674 278 664 279 q 691 268 685 276 q 696 250 697 260 q 597 -11 672 76 q 435 -79 525 -100 q 300 54 347 -60 q 268 350 250 174 q 335 576 281 474 q 417 672 371 643 q 542 681 475 708 q 596 630 575 665 q 624 558 617 594 q 619 540 625 549 q 603 530 614 532 q 585 533 593 528 q 574 550 576 539 z "},"D":{"ha":613,"x_min":240,"x_max":822,"o":"m 424 -12 q 644 108 551 21 q 749 369 768 225 q 569 574 729 514 q 424 603 503 599 q 432 410 432 513 q 428 178 432 307 q 424 -12 424 50 m 374 603 q 274 589 321 601 q 254 591 263 586 q 243 606 246 596 q 245 625 240 617 q 260 636 250 633 q 368 653 311 650 l 368 657 q 373 675 367 667 q 390 685 379 683 q 408 680 400 686 q 418 663 417 674 l 419 653 q 586 621 508 650 q 729 528 672 588 q 799 375 786 465 q 679 72 822 207 q 542 -22 618 15 q 386 -71 464 -58 q 367 -66 375 -72 q 357 -50 358 -60 q 374 -22 354 -29 q 378 176 374 47 q 382 408 382 304 q 374 603 382 513 z "},"E":{"ha":504,"x_min":247,"x_max":693,"o":"m 286 657 q 553 707 388 667 q 572 705 563 710 q 583 690 581 700 q 580 670 585 679 q 564 660 575 661 q 311 610 408 619 q 304 483 311 606 q 299 311 299 382 l 474 368 q 493 367 483 371 q 506 353 503 363 q 504 333 508 343 q 490 321 500 324 l 401 292 l 300 258 l 299 258 q 317 86 301 150 q 367 1 335 11 q 508 17 422 -15 q 585 47 536 26 q 658 79 638 71 q 677 78 668 82 q 690 64 686 74 q 689 45 693 54 q 675 32 685 36 q 604 1 657 25 q 525 -31 551 -22 q 353 -46 424 -67 q 268 74 293 -29 q 249 275 250 147 q 254 486 247 358 q 261 631 261 618 q 276 654 261 647 q 286 657 281 657 z "},"F":{"ha":475,"x_min":260,"x_max":663,"o":"m 331 274 q 403 289 367 279 q 496 317 440 299 q 571 340 551 335 q 590 338 581 343 q 601 324 599 333 q 599 305 604 314 q 585 293 594 296 q 513 269 569 288 q 417 241 456 251 q 339 224 378 231 l 335 224 q 364 -47 364 -44 q 358 -65 364 -57 q 341 -73 351 -72 q 323 -67 331 -74 q 314 -50 315 -61 q 307 19 313 -31 l 293 147 l 279 278 q 263 467 267 399 q 261 533 260 510 q 264 557 261 547 q 271 579 265 572 q 343 632 290 607 q 447 668 386 651 q 638 700 564 700 q 655 692 647 700 q 663 675 663 685 q 655 658 663 665 q 638 650 647 650 q 460 619 572 650 q 365 586 401 604 q 313 553 326 568 l 313 550 q 311 532 311 543 q 313 469 310 508 q 328 283 315 401 l 329 274 l 331 274 z "},"G":{"ha":513,"x_min":251,"x_max":700,"o":"m 575 524 q 543 603 565 575 q 494 638 521 632 q 374 561 433 650 q 321 434 340 511 q 301 275 301 357 q 324 119 301 189 q 393 11 347 49 q 457 -7 425 -15 q 518 35 489 0 q 560 115 546 69 q 567 192 575 160 q 535 226 561 218 q 468 233 511 235 q 443 231 464 233 q 431 229 432 229 l 425 229 q 415 233 419 231 q 404 249 407 239 q 407 268 401 258 q 417 276 411 274 q 419 278 418 278 q 424 279 421 279 q 547 310 447 288 q 664 343 621 326 q 683 342 674 346 q 697 328 693 338 q 696 310 700 319 q 683 296 692 300 q 574 264 639 279 q 617 203 607 243 q 609 101 626 157 q 556 3 592 44 q 469 -56 517 -44 q 363 -28 413 -69 q 278 100 304 19 q 251 275 251 181 q 273 447 251 363 q 332 589 294 532 q 415 670 369 644 q 504 686 460 696 q 581 636 550 676 q 625 535 613 596 q 621 515 626 524 q 605 505 615 507 q 586 508 594 503 q 575 524 578 514 z "},"H":{"ha":529,"x_min":236,"x_max":717,"o":"m 681 647 q 682 524 678 599 q 683 484 682 510 q 686 438 685 458 q 688 397 688 417 l 688 372 l 692 372 q 709 365 701 372 q 717 347 717 357 q 709 330 717 338 q 692 322 701 322 l 689 322 q 710 -6 694 103 q 705 -25 711 -17 q 688 -35 699 -33 q 669 -30 678 -36 q 660 -14 661 -24 q 639 321 644 99 q 350 290 504 317 q 356 -24 356 161 q 348 -41 356 -33 q 331 -49 340 -49 q 313 -41 321 -49 q 306 -24 306 -33 q 301 281 306 156 l 268 274 q 249 278 257 272 q 238 294 240 283 q 242 313 236 304 q 257 324 247 321 l 299 332 q 268 665 290 514 q 273 685 267 676 q 290 694 279 693 q 308 690 300 696 q 318 674 317 683 q 349 340 339 521 q 638 371 501 367 l 638 397 q 636 436 638 415 q 633 483 635 457 q 632 522 632 508 q 631 650 628 599 q 638 667 631 660 q 656 674 646 674 q 674 666 667 674 q 681 647 681 658 z "},"I":{"ha":211,"x_min":331,"x_max":399,"o":"m 381 667 q 386 526 382 635 q 392 385 390 418 q 396 244 393 353 q 397 104 399 136 q 396 -35 396 72 q 388 -53 396 -46 q 370 -60 381 -60 q 353 -52 360 -60 q 346 -35 346 -44 q 347 105 346 71 q 346 245 349 139 q 342 386 343 351 l 336 525 l 331 664 q 338 683 331 675 q 355 690 344 690 q 373 683 365 690 q 381 667 381 676 z "},"J":{"ha":457,"x_min":217,"x_max":649,"o":"m 563 678 q 625 474 601 586 q 644 234 649 361 q 594 24 640 107 q 469 -61 557 -43 q 319 -39 382 -81 q 250 46 275 -10 q 218 160 225 101 q 223 178 217 169 q 240 188 229 186 q 258 183 250 189 q 268 165 267 176 q 294 69 274 115 q 347 3 315 24 q 459 -13 393 -28 q 550 49 525 1 q 594 238 590 122 q 576 462 599 354 q 515 658 553 569 q 516 678 513 668 q 529 691 519 688 q 549 691 539 694 q 563 678 558 688 z "},"K":{"ha":658,"x_min":258,"x_max":851,"o":"m 651 579 q 504 404 601 513 q 369 251 400 289 q 368 214 369 235 l 390 211 q 410 209 403 210 q 421 208 418 208 q 826 174 657 174 q 844 166 836 174 q 851 149 851 158 q 844 131 851 139 q 826 124 836 124 q 413 158 654 124 q 405 159 411 158 q 388 161 399 160 q 367 164 376 163 q 364 -18 364 42 q 356 -35 364 -28 q 339 -43 349 -43 q 322 -35 329 -43 q 314 -18 314 -28 q 317 171 314 44 q 304 172 310 171 q 288 176 294 175 l 279 181 q 265 199 268 188 q 293 250 258 228 q 317 265 315 265 l 319 269 q 294 688 325 531 q 299 706 293 697 q 315 716 304 714 q 333 713 325 718 q 344 696 342 707 q 371 329 372 550 l 467 438 q 613 610 563 543 q 628 619 618 618 q 647 615 639 621 q 657 598 656 608 q 651 579 658 588 z "},"L":{"ha":414,"x_min":244,"x_max":603,"o":"m 304 660 q 296 306 299 556 q 296 90 294 172 q 299 18 297 44 q 301 -4 300 4 q 326 -4 310 -7 q 413 15 358 -1 q 506 46 438 22 q 571 67 558 64 q 590 63 581 68 q 601 47 599 57 q 597 28 603 38 q 582 17 592 19 q 522 -1 572 15 q 426 -32 453 -25 q 332 -54 368 -50 q 293 -54 308 -57 q 257 -32 268 -50 q 251 -11 253 -25 q 249 14 250 -1 q 246 90 247 42 q 246 307 244 172 q 254 663 249 557 q 262 679 254 672 q 280 686 269 686 q 297 678 290 686 q 304 660 304 671 z "},"M":{"ha":643,"x_min":257,"x_max":831,"o":"m 257 -46 q 267 433 257 -37 q 272 526 267 467 q 278 600 276 586 l 278 629 l 278 649 l 278 656 l 278 657 l 278 658 l 278 661 q 281 668 279 664 q 283 672 281 669 q 290 678 285 674 q 303 682 296 682 q 315 678 310 682 q 324 672 321 675 l 325 668 q 357 551 336 647 q 397 382 382 435 q 456 239 425 285 q 518 203 486 193 q 571 250 544 211 q 617 347 594 288 q 669 546 642 414 l 693 649 q 699 671 697 664 l 700 678 q 703 682 701 679 l 708 688 q 733 693 719 699 q 742 686 739 690 l 747 682 l 749 679 q 751 674 750 676 q 751 667 751 671 q 754 647 753 660 l 758 593 q 760 557 758 579 q 763 522 761 535 q 764 506 764 510 q 779 335 769 451 q 800 133 789 219 q 829 -33 811 46 q 825 -52 831 -43 q 810 -63 819 -61 q 791 -60 800 -65 q 779 -44 782 -54 q 750 125 761 36 q 729 331 739 214 q 714 500 719 449 l 714 510 q 664 331 689 400 q 613 222 639 264 q 532 156 576 169 q 414 211 465 135 q 350 368 379 263 q 319 489 336 419 q 317 433 317 457 q 307 -46 307 -39 q 299 -63 307 -56 q 282 -71 292 -71 q 265 -63 272 -71 q 257 -46 257 -56 z "},"N":{"ha":519,"x_min":249,"x_max":708,"o":"m 257 -19 q 254 433 249 240 q 253 579 257 515 q 252 585 253 582 q 251 591 251 588 q 250 597 251 594 l 250 608 q 251 617 250 614 q 279 633 260 636 q 289 630 285 632 q 294 625 293 628 l 296 622 q 299 618 297 621 q 317 567 308 600 q 331 524 325 535 q 533 129 432 285 q 593 54 565 81 q 629 26 613 35 q 647 24 640 21 q 653 39 650 29 q 657 106 657 63 q 646 313 658 179 q 603 667 632 457 q 608 685 601 676 q 624 694 614 693 q 643 690 635 696 q 653 672 651 683 q 696 317 682 463 q 707 106 708 182 q 701 31 707 58 q 693 1 699 13 q 672 -21 685 -15 q 608 -19 643 -35 q 557 19 583 -7 q 492 101 525 50 q 304 456 397 243 l 304 431 q 307 -17 299 240 q 300 -35 307 -28 q 283 -43 293 -43 q 265 -36 272 -43 q 257 -19 257 -29 z "},"O":{"ha":539,"x_min":256,"x_max":747,"o":"m 506 664 l 496 664 l 488 664 l 471 664 q 453 658 457 663 q 369 515 407 610 q 319 317 332 419 q 331 121 307 204 q 418 4 356 38 q 524 -15 472 -25 q 653 106 607 -1 q 688 347 697 210 q 621 576 679 486 q 506 664 574 650 m 449 711 q 464 717 456 717 q 663 604 586 722 q 738 351 728 503 q 699 86 747 201 q 532 -65 643 -46 q 396 -40 464 -76 q 284 103 313 4 q 269 322 256 201 q 323 535 282 432 q 417 692 364 638 q 449 711 429 706 z "},"P":{"ha":474,"x_min":276,"x_max":729,"o":"m 326 192 l 326 -65 q 319 -83 326 -75 q 301 -90 311 -90 q 284 -83 292 -90 q 276 -65 276 -75 l 276 697 q 284 715 276 707 q 301 722 292 722 q 319 715 311 722 q 326 697 326 707 l 326 625 q 431 685 369 671 q 549 686 492 700 q 649 639 606 674 q 708 563 689 607 q 721 467 729 518 q 538 258 699 353 q 328 192 440 200 l 326 192 m 326 538 l 326 242 q 513 300 426 250 q 671 476 654 385 q 618 600 685 547 q 521 642 575 633 q 413 625 467 650 q 329 542 358 600 q 326 538 328 539 z "},"Q":{"ha":553,"x_min":256,"x_max":740,"o":"m 585 -40 q 519 -65 554 -58 q 313 17 383 -87 q 256 251 256 100 q 300 515 256 385 q 415 701 346 651 q 438 711 424 708 q 451 717 443 717 q 651 604 574 722 q 726 350 717 503 q 688 86 738 201 q 625 -10 663 28 q 717 -47 664 -40 q 734 -57 728 -49 q 739 -76 740 -65 q 729 -92 738 -86 q 711 -97 721 -99 q 585 -40 638 -87 m 493 664 l 481 664 l 463 664 l 446 663 q 347 500 389 619 q 306 251 306 378 q 354 44 304 118 q 511 -15 407 -33 q 550 -3 531 -12 q 493 71 540 8 q 489 90 488 79 q 499 106 490 100 q 517 111 507 113 q 535 101 528 110 q 590 26 579 39 q 642 106 621 57 q 676 347 686 210 q 610 576 668 486 q 493 664 561 650 z "},"R":{"ha":479,"x_min":257,"x_max":693,"o":"m 338 406 l 338 232 q 515 368 443 303 q 615 503 592 438 q 617 600 638 568 q 557 621 600 628 q 426 535 500 608 q 338 406 361 468 m 271 186 l 271 189 q 288 203 275 200 l 288 410 l 288 697 q 295 715 288 707 q 313 722 303 722 q 330 715 322 722 q 338 697 338 707 l 338 510 q 390 571 357 536 q 547 669 474 654 q 660 626 624 685 q 664 492 693 576 q 549 332 633 408 q 354 183 469 260 q 663 42 567 101 q 674 26 672 36 q 671 8 676 17 q 656 -3 665 -1 q 638 0 646 -6 q 338 136 544 57 l 338 -65 q 330 -83 338 -75 q 313 -90 322 -90 q 295 -83 303 -90 q 288 -65 288 -75 l 288 144 q 268 156 275 146 q 271 186 257 172 z "},"S":{"ha":517,"x_min":261,"x_max":711,"o":"m 654 592 q 585 651 632 638 q 489 644 538 664 q 406 585 436 626 q 383 496 376 544 q 438 419 388 461 q 553 339 444 414 q 613 294 589 314 q 664 243 638 274 q 701 177 690 213 q 704 103 711 142 q 641 -3 692 35 q 519 -53 590 -42 q 389 -51 456 -62 q 275 -15 322 -40 q 264 0 267 -10 q 266 19 261 10 q 281 31 271 28 q 300 29 290 33 q 397 -2 339 7 q 511 -3 456 -11 q 654 111 638 17 q 631 206 664 164 q 525 297 599 247 q 406 382 421 368 q 333 488 342 435 q 365 613 324 558 q 472 692 406 668 q 556 706 514 706 q 638 682 599 706 q 699 614 678 658 q 699 594 703 604 q 687 581 696 585 q 668 580 678 576 q 654 592 658 583 z "},"T":{"ha":504,"x_min":185,"x_max":742,"o":"m 214 647 q 713 672 389 632 q 731 667 722 674 q 740 651 739 661 q 735 632 742 640 q 718 622 729 624 q 485 597 574 604 q 538 -14 496 396 q 532 -33 539 -25 q 515 -42 525 -40 q 497 -36 504 -43 q 488 -19 489 -29 q 435 594 446 392 q 208 597 311 589 q 192 606 199 599 q 186 624 185 614 q 195 642 188 635 q 214 647 203 649 z "},"U":{"ha":542,"x_min":231,"x_max":731,"o":"m 304 654 q 299 589 303 642 l 289 489 q 282 375 285 442 q 282 253 281 311 q 313 50 285 118 q 392 -17 340 -22 q 444 38 413 -14 q 508 172 475 88 q 585 429 560 308 q 600 514 592 460 q 613 601 608 579 q 617 639 614 604 q 619 657 618 653 l 622 665 q 631 675 625 671 q 657 675 643 683 q 667 665 664 672 q 669 660 668 663 q 671 654 669 657 q 676 550 678 614 q 675 453 674 472 q 729 -24 692 136 q 725 -42 731 -33 q 710 -53 719 -51 q 691 -50 700 -56 q 679 -35 682 -44 q 628 393 644 124 q 556 156 597 268 q 488 11 521 64 q 397 -67 443 -61 q 265 32 307 -76 q 232 251 235 110 q 233 376 231 311 q 240 492 236 444 q 248 592 243 539 q 254 657 253 646 q 263 675 256 668 q 281 681 271 682 q 299 672 292 679 q 304 654 306 664 z "},"V":{"ha":464,"x_min":204,"x_max":701,"o":"m 254 626 q 306 472 278 550 l 381 275 l 438 124 l 464 53 q 471 82 467 65 q 478 108 475 99 q 482 121 481 118 q 565 392 507 210 q 651 669 624 575 q 663 684 654 679 q 682 686 672 689 q 697 674 692 683 q 699 656 701 665 q 614 378 669 553 q 529 107 556 196 q 525 92 529 104 l 517 61 l 508 26 q 494 -22 500 -4 q 489 -39 492 -33 q 486 -46 488 -43 l 483 -51 q 465 -61 478 -60 q 454 -60 460 -61 q 440 -47 444 -57 l 438 -37 l 438 -36 q 435 -22 436 -32 q 390 107 425 14 l 344 229 l 293 361 q 249 482 274 411 q 207 613 225 553 q 209 631 204 622 q 224 643 214 640 q 242 641 233 646 q 254 626 251 636 z "},"W":{"ha":636,"x_min":203,"x_max":840,"o":"m 253 635 q 259 544 256 589 q 271 439 263 499 q 283 351 279 379 q 298 246 286 324 q 313 156 310 168 l 324 82 q 344 176 335 136 q 389 304 365 261 q 481 353 428 374 q 508 329 493 347 q 533 293 519 315 q 589 194 556 257 l 654 63 l 656 74 q 669 200 668 193 q 790 653 697 404 q 803 667 794 663 q 822 667 813 671 q 836 655 832 664 q 838 636 840 646 q 719 194 746 392 q 706 69 718 188 q 699 8 701 25 q 694 -12 697 -4 q 693 -20 694 -17 q 690 -26 692 -24 q 672 -39 683 -36 q 635 -14 646 -43 q 632 -4 635 -12 l 631 -1 q 594 72 625 11 l 544 172 q 492 267 513 232 q 469 297 479 286 l 461 306 q 432 281 450 311 q 393 164 413 243 q 364 29 382 122 q 354 -24 357 -7 q 343 -58 347 -49 q 322 -72 336 -71 q 296 -58 304 -74 q 292 -42 293 -53 q 290 -31 290 -39 q 289 -22 289 -24 q 276 67 285 10 q 263 147 267 124 q 250 239 261 161 l 233 344 q 221 433 229 372 q 209 540 213 493 q 203 632 206 586 q 210 651 203 643 q 227 658 217 658 q 245 651 238 658 q 253 635 253 644 z "},"X":{"ha":461,"x_min":228,"x_max":650,"o":"m 431 336 q 279 -51 322 144 q 267 -67 276 -61 q 249 -70 258 -72 q 233 -59 239 -68 q 229 -40 228 -50 q 403 388 279 176 q 253 625 331 519 q 249 644 247 633 q 258 660 250 654 q 277 665 267 667 q 294 656 288 664 q 433 438 365 557 q 601 665 507 554 q 619 674 608 672 q 637 668 629 675 q 646 651 644 661 q 640 632 647 640 q 460 386 538 513 q 647 -12 544 229 q 647 -32 650 -22 q 633 -45 643 -42 q 614 -45 624 -49 q 600 -32 604 -42 q 431 336 497 207 z "},"Y":{"ha":482,"x_min":285,"x_max":674,"o":"m 381 644 q 339 365 346 513 q 350 219 335 272 q 397 164 365 167 q 442 197 415 163 q 500 300 469 232 q 532 378 517 336 l 560 460 q 576 506 574 499 q 607 592 592 546 l 615 619 l 618 628 l 619 629 l 619 631 l 619 632 q 621 635 621 633 q 625 639 622 638 q 633 646 628 643 q 660 640 649 651 q 668 626 665 635 q 671 617 669 622 q 674 593 672 608 q 672 525 674 578 q 663 322 671 450 q 646 -32 643 4 q 640 -49 646 -42 q 623 -58 633 -57 q 605 -52 613 -58 q 596 -35 597 -46 q 613 325 594 -8 q 621 482 618 425 q 546 279 564 319 q 482 167 514 206 q 392 114 438 110 q 303 206 326 121 q 289 368 285 267 q 333 658 296 521 q 344 673 336 668 q 363 675 353 678 q 378 664 374 672 q 381 644 383 656 z "},"Z":{"ha":617,"x_min":276,"x_max":804,"o":"m 374 675 q 551 674 406 668 q 647 676 625 676 q 679 675 668 676 q 693 674 688 675 q 713 658 707 669 q 715 640 717 650 q 713 631 715 636 q 706 611 711 622 q 676 554 696 590 l 596 418 q 669 414 632 417 q 686 405 679 413 q 692 387 693 397 q 683 369 690 376 q 664 364 675 363 q 565 368 615 368 l 422 140 q 414 126 421 138 l 392 94 l 368 61 l 350 33 q 354 35 353 35 q 783 8 568 60 q 799 -3 793 6 q 802 -22 804 -12 q 791 -37 800 -32 q 772 -42 782 -43 q 360 -15 565 8 q 354 -17 357 -15 q 346 -20 351 -18 q 333 -24 340 -22 q 281 -11 299 -33 q 276 6 276 -4 q 278 11 276 8 q 279 15 278 13 q 281 18 279 17 l 283 24 l 294 40 l 328 89 q 350 122 336 103 l 372 154 q 381 168 379 165 l 506 368 q 432 363 469 367 q 413 368 421 361 q 404 385 406 375 q 410 403 403 396 q 426 413 417 411 q 538 418 485 418 l 540 424 q 632 579 600 521 q 657 626 649 608 l 647 626 q 553 624 628 626 q 365 625 401 618 q 349 636 354 628 q 345 655 343 644 q 356 671 347 665 q 374 675 364 676 z "},"[":{"ha":338,"x_min":285,"x_max":526,"o":"m 510 749 q 350 725 444 724 l 344 725 l 344 718 q 340 651 342 694 q 339 450 339 578 l 339 308 q 340 180 339 233 q 340 117 340 126 q 338 71 340 110 q 336 8 336 32 q 336 -51 335 -31 q 338 -68 336 -61 q 349 -69 342 -68 q 399 -72 364 -71 q 453 -75 447 -74 q 496 -81 483 -76 q 510 -92 506 -83 q 513 -111 515 -101 q 501 -126 510 -121 q 482 -128 492 -131 q 450 -125 475 -126 q 396 -122 444 -124 q 343 -119 361 -121 q 322 -115 331 -118 q 300 -106 308 -112 q 289 -81 292 -97 q 286 -54 288 -71 q 286 10 285 -31 q 288 72 286 33 q 290 117 290 110 q 290 180 290 126 q 289 308 289 233 l 289 450 q 290 653 289 579 q 294 722 292 697 q 296 744 294 736 q 299 753 297 750 q 304 765 300 761 q 340 778 317 781 q 349 775 346 776 l 350 775 q 490 796 435 774 q 510 795 500 799 q 523 782 519 792 q 523 763 526 772 q 510 749 519 753 z "},"\\":{"ha":386,"x_min":293,"x_max":576,"o":"m 343 656 l 419 447 l 507 201 q 574 -10 544 96 q 572 -28 576 -19 q 557 -40 567 -37 q 538 -38 547 -43 q 526 -24 529 -33 q 458 189 497 78 l 372 431 l 296 639 q 297 658 293 649 q 311 671 301 668 q 331 669 321 674 q 343 656 340 665 z "},"]":{"ha":344,"x_min":275,"x_max":535,"o":"m 292 -76 q 453 -56 356 -51 l 458 -56 l 458 -49 q 464 19 461 -24 q 469 219 467 93 q 472 360 471 286 q 474 491 474 435 q 475 553 475 547 q 478 600 475 561 q 482 663 481 639 q 483 722 485 700 l 483 738 q 472 739 478 739 q 422 743 457 742 q 367 747 379 746 q 324 754 336 750 q 310 767 314 757 q 308 786 306 776 q 321 800 311 796 q 340 801 331 804 q 371 797 347 799 q 425 793 383 796 q 478 789 461 790 q 499 785 490 788 q 521 775 514 782 q 532 749 529 767 q 533 724 533 739 q 532 660 535 700 q 528 598 531 636 q 525 553 525 560 q 524 490 525 547 q 522 359 524 433 q 519 219 521 285 q 513 17 517 90 q 508 -53 511 -28 q 506 -75 507 -67 q 503 -85 504 -81 q 496 -97 501 -92 q 461 -108 483 -111 q 453 -106 456 -107 l 450 -106 q 311 -124 364 -101 q 292 -123 301 -126 q 278 -110 282 -119 q 278 -90 275 -100 q 292 -76 282 -81 z "},"^":{"ha":392,"x_min":319,"x_max":581,"o":"m 325 406 q 356 467 342 433 q 385 544 369 500 l 411 613 l 413 615 q 414 626 414 625 q 421 643 417 636 q 436 654 426 651 q 457 651 447 657 q 482 618 475 643 q 485 608 483 613 l 488 603 q 488 599 488 600 l 532 508 l 576 421 q 577 401 581 411 q 565 388 574 392 q 546 387 556 383 q 532 399 536 390 q 489 485 518 429 q 447 567 460 540 l 431 522 l 411 471 q 392 426 404 453 q 367 381 379 400 q 351 369 361 371 q 333 372 342 367 q 322 388 324 378 q 325 406 319 397 z "},"_":{"ha":507,"x_min":242,"x_max":693,"o":"m 267 -136 q 467 -135 333 -136 q 668 -133 601 -133 q 685 -141 678 -133 q 693 -158 693 -149 q 685 -176 693 -168 q 668 -183 678 -183 q 467 -185 601 -183 q 267 -186 333 -186 q 249 -178 257 -186 q 242 -161 242 -171 q 249 -144 242 -151 q 267 -136 257 -136 z "},"`":{"ha":314,"x_min":368,"x_max":503,"o":"m 418 640 q 444 590 428 611 q 494 539 461 569 q 502 523 501 533 q 497 505 503 513 q 480 497 490 497 q 461 503 469 496 q 424 538 438 524 q 394 575 410 551 q 371 626 379 599 q 373 645 368 636 q 388 657 378 654 q 406 655 397 660 q 418 640 415 650 z "},"a":{"ha":388,"x_min":233,"x_max":586,"o":"m 533 386 q 432 342 486 390 q 342 215 381 294 q 294 76 303 140 q 306 6 286 18 q 333 -4 319 -6 q 363 14 347 -1 q 429 126 394 46 q 482 265 449 172 l 500 317 q 508 335 506 328 q 525 351 515 347 q 556 346 543 360 q 560 338 558 342 l 563 329 q 564 314 564 324 q 567 269 565 296 q 568 207 568 225 l 568 199 l 568 197 l 568 196 l 568 194 l 568 193 q 571 142 569 181 q 585 -21 575 49 q 580 -39 586 -31 q 563 -49 574 -47 q 544 -44 553 -50 q 535 -26 536 -37 q 521 139 525 44 q 518 190 519 178 l 518 193 l 518 196 l 518 200 l 518 203 l 518 207 l 518 217 q 475 107 494 149 q 397 -21 436 17 q 342 -53 371 -49 q 275 -36 307 -58 q 244 83 233 -4 q 297 238 254 156 q 399 378 340 324 q 539 436 468 442 q 556 427 549 435 q 561 409 563 419 q 552 392 560 399 q 533 386 544 385 z "},"b":{"ha":424,"x_min":256,"x_max":613,"o":"m 322 46 l 321 32 q 428 42 363 15 q 507 92 475 60 q 551 162 539 125 q 563 234 563 199 q 551 299 564 269 q 489 342 529 351 q 368 201 431 329 q 328 58 339 140 q 322 46 326 51 m 308 694 q 333 243 340 493 q 478 390 401 374 q 549 378 518 400 q 597 317 581 357 q 613 235 613 281 q 598 144 613 190 q 544 58 583 99 q 447 -6 504 17 q 317 -19 371 -35 q 308 -36 315 -29 q 290 -42 300 -43 q 272 -33 279 -40 q 267 -14 265 -25 l 268 6 q 268 38 256 21 q 272 42 269 40 q 258 686 303 407 q 263 706 257 697 q 280 715 269 714 q 299 710 290 717 q 308 694 307 704 z "},"c":{"ha":374,"x_min":224,"x_max":572,"o":"m 457 342 q 424 394 444 382 q 392 397 410 404 q 349 366 371 390 q 313 310 326 342 q 284 140 275 213 q 333 31 293 67 q 415 13 369 -4 q 524 125 472 33 q 539 136 529 133 q 558 134 549 139 q 569 119 567 129 q 568 100 572 110 q 432 -35 507 -8 q 299 -7 357 -61 q 235 134 246 43 q 265 329 224 225 q 313 401 283 369 q 376 444 342 433 q 452 436 418 458 q 504 356 486 414 q 503 337 507 346 q 488 325 499 328 q 469 326 478 322 q 457 342 460 331 z "},"d":{"ha":386,"x_min":238,"x_max":590,"o":"m 511 290 q 510 365 510 326 q 404 333 456 379 q 319 200 350 286 q 303 64 290 117 q 319 36 308 43 q 353 33 331 28 q 422 88 386 43 q 471 171 451 124 q 508 283 500 235 q 511 290 510 288 m 569 744 q 560 482 563 571 q 564 249 558 393 q 589 -10 569 106 q 584 -28 590 -19 q 568 -39 578 -37 q 549 -34 558 -40 q 539 -18 540 -28 q 518 151 525 64 q 461 56 494 97 q 367 -14 415 -1 q 292 -6 322 -26 q 254 53 264 13 q 272 217 238 119 q 371 371 307 315 q 510 415 436 428 q 519 747 510 521 q 527 764 519 757 q 545 771 535 771 q 563 763 556 771 q 569 744 569 756 z "},"e":{"ha":383,"x_min":217,"x_max":571,"o":"m 518 297 q 517 303 518 300 q 494 356 508 331 q 419 400 458 415 q 357 299 379 385 q 354 289 356 294 q 401 290 381 290 q 492 293 458 290 q 518 297 508 294 m 296 239 l 243 239 q 224 246 232 239 q 217 263 217 253 q 224 281 217 274 q 240 289 231 289 l 303 289 l 308 311 q 401 447 336 424 q 479 442 444 464 q 538 381 514 419 q 565 318 554 350 q 569 292 569 303 q 571 281 571 286 q 561 261 569 268 q 532 249 553 253 q 496 244 518 246 q 403 240 461 240 q 346 239 378 239 q 349 121 340 178 q 404 10 364 31 q 526 65 449 -12 q 544 72 535 72 q 562 65 554 72 q 569 47 569 57 q 563 29 569 38 q 381 -35 458 -74 q 300 113 318 -1 q 296 239 290 174 z "},"f":{"ha":339,"x_min":192,"x_max":550,"o":"m 499 536 q 476 606 494 575 q 438 644 458 636 q 407 642 419 653 q 372 576 385 626 q 349 365 351 488 q 472 386 406 372 q 490 382 482 388 q 501 366 499 376 q 497 347 503 356 q 481 336 492 339 q 349 315 410 322 q 351 203 349 263 q 359 74 354 144 q 365 -32 364 3 q 358 -51 365 -43 q 341 -58 351 -58 q 323 -51 331 -58 q 315 -35 315 -44 q 309 68 314 -1 q 301 197 304 138 q 299 308 299 256 q 218 303 258 304 q 199 310 207 303 q 192 327 192 317 q 199 345 192 338 q 215 353 206 353 q 299 360 257 354 q 325 588 301 492 q 376 682 342 656 q 457 690 414 710 q 518 633 493 675 q 549 542 543 592 q 543 523 550 531 q 526 514 536 515 q 508 519 515 513 q 499 536 500 526 z "},"g":{"ha":396,"x_min":225,"x_max":588,"o":"m 550 368 q 422 339 482 379 q 322 228 361 299 q 281 107 285 164 q 299 47 276 58 q 363 64 325 33 q 440 160 397 93 q 504 271 465 199 q 525 310 519 300 q 533 324 531 319 l 540 331 q 558 338 549 338 q 578 328 571 338 q 582 321 581 325 l 585 313 q 586 296 586 307 q 588 247 588 279 q 586 96 588 192 q 585 53 586 83 q 585 10 585 24 q 583 -27 585 -3 q 581 -65 582 -51 l 575 -97 q 567 -131 572 -117 q 557 -158 563 -146 q 478 -235 532 -210 q 333 -267 425 -261 q 315 -260 324 -267 q 307 -243 307 -253 q 314 -225 307 -233 q 331 -217 321 -217 q 453 -192 413 -212 q 513 -137 494 -172 q 520 -115 517 -126 q 526 -87 524 -104 q 531 -60 529 -71 q 533 -25 532 -49 q 535 10 535 -1 q 535 53 535 21 q 536 96 536 85 q 538 229 538 176 q 482 132 507 169 q 393 25 436 58 q 276 3 332 -25 q 231 111 225 29 q 278 253 236 179 q 397 381 324 332 q 558 418 471 431 q 574 408 568 417 q 579 390 581 400 q 569 373 578 379 q 550 368 561 367 z "},"h":{"ha":457,"x_min":244,"x_max":643,"o":"m 294 663 q 318 218 294 478 l 319 203 q 401 340 353 276 q 471 407 439 388 q 560 406 521 436 q 603 319 586 386 q 625 189 615 268 q 643 -46 638 86 q 636 -65 643 -57 q 619 -72 629 -72 q 601 -65 608 -72 q 593 -49 593 -58 q 576 183 588 83 q 554 307 567 260 q 529 367 542 357 q 496 364 517 375 q 442 310 472 349 q 364 178 392 246 q 349 134 356 158 q 342 94 343 110 l 335 47 q 329 1 331 14 l 329 -1 q 328 -4 329 -3 q 324 -12 326 -8 q 299 -22 315 -25 q 281 -8 286 -19 q 279 0 279 -3 l 279 3 l 279 11 l 279 29 q 278 49 279 36 q 276 68 276 63 q 275 131 275 96 q 268 213 275 136 q 244 663 244 471 q 252 680 244 672 q 269 688 260 688 q 287 680 279 688 q 294 663 294 672 z "},"i":{"ha":175,"x_min":282,"x_max":365,"o":"m 353 376 q 335 190 333 324 q 361 8 338 56 q 363 -11 365 -1 q 350 -25 360 -21 q 331 -26 340 -29 q 317 -14 321 -24 q 285 190 288 43 q 306 393 282 332 q 319 407 310 403 q 338 408 328 411 q 351 395 347 404 q 353 376 356 386 m 352 512 q 356 508 352 512 q 360 494 360 504 q 352 477 360 485 q 335 469 344 469 q 317 477 325 469 q 310 494 310 485 q 317 512 310 504 q 335 519 325 519 q 352 512 344 519 z "},"j":{"ha":176,"x_min":82,"x_max":367,"o":"m 345 382 q 349 378 345 382 q 353 365 353 375 q 357 295 353 356 q 364 165 361 235 q 365 35 367 96 q 349 -154 364 -85 q 324 -224 339 -197 q 272 -264 304 -258 q 146 -206 201 -276 q 86 -96 124 -176 q 85 -76 82 -86 q 98 -62 89 -67 q 117 -62 107 -58 q 131 -74 126 -65 q 186 -175 167 -150 q 264 -214 222 -222 q 281 -199 272 -212 q 300 -143 292 -179 q 315 36 314 -79 q 314 165 317 96 q 307 294 311 235 q 303 363 303 353 q 310 381 303 374 q 327 389 317 389 q 345 382 338 389 m 352 503 q 356 500 352 503 q 360 486 360 496 q 352 469 360 476 q 335 461 344 461 q 317 469 325 461 q 310 486 310 476 q 317 503 310 496 q 335 511 325 511 q 352 503 344 511 z "},"k":{"ha":574,"x_min":250,"x_max":761,"o":"m 583 403 q 410 240 558 375 l 351 188 q 353 157 353 171 q 372 156 363 156 q 486 154 425 154 q 622 155 547 154 q 736 156 696 156 q 753 148 746 156 q 761 131 761 140 q 753 113 761 121 q 736 106 746 106 q 621 105 696 106 q 485 104 546 104 q 369 106 424 104 q 353 107 364 106 q 353 -33 354 33 q 345 -51 353 -44 q 327 -58 338 -58 q 310 -51 317 -58 q 303 -33 303 -43 q 303 111 304 36 q 286 114 293 113 q 269 119 276 117 q 251 140 256 126 q 254 158 250 150 q 258 165 256 161 q 267 175 261 169 l 293 201 l 301 208 q 289 492 299 307 q 278 710 279 678 q 285 728 278 721 q 302 736 292 736 q 320 729 313 736 q 328 713 328 722 q 339 502 331 664 q 350 253 347 340 l 376 278 q 547 436 514 401 q 565 444 554 444 q 583 438 575 444 q 590 420 590 431 q 583 403 590 410 z "},"l":{"ha":174,"x_min":272,"x_max":363,"o":"m 353 703 q 324 344 322 586 q 360 -14 325 103 q 358 -33 363 -24 q 343 -44 353 -42 q 324 -42 333 -47 q 313 -28 315 -37 q 274 344 275 96 q 306 717 272 593 q 316 731 307 726 q 335 734 325 736 q 351 723 346 732 q 353 703 356 714 z "},"m":{"ha":658,"x_min":254,"x_max":846,"o":"m 308 458 q 306 226 306 404 q 318 254 313 240 q 371 343 344 310 q 443 389 407 389 q 515 346 488 389 q 543 261 533 315 l 546 239 q 596 333 568 292 q 664 410 629 385 q 760 424 713 443 q 818 335 799 407 q 840 197 833 282 q 846 -50 846 125 q 838 -67 846 -60 q 821 -75 831 -75 q 803 -67 811 -75 q 796 -50 796 -60 q 790 193 796 124 q 771 321 783 274 q 740 376 757 369 q 693 368 718 386 q 638 306 665 350 q 571 157 586 228 q 563 115 565 138 q 560 76 561 92 q 558 31 560 60 q 557 -12 557 3 l 557 -14 l 557 -17 q 554 -24 556 -19 q 550 -31 553 -28 q 528 -37 540 -40 q 511 -28 518 -36 l 508 -22 l 507 -17 l 507 -15 l 507 -14 l 507 -4 q 506 18 506 15 q 501 108 501 85 q 493 253 500 213 q 472 319 486 297 q 443 339 460 339 q 410 313 432 339 q 364 233 388 283 q 311 76 317 133 q 311 35 310 64 q 310 -12 311 4 q 309 -17 310 -15 q 308 -19 308 -18 q 303 -29 308 -24 q 282 -37 294 -39 q 264 -28 271 -36 q 260 -19 261 -24 q 258 -14 260 -17 l 258 1 q 258 19 258 7 q 257 36 257 32 q 256 164 254 93 l 256 313 q 258 461 256 443 q 266 478 258 471 q 284 485 274 485 q 301 477 294 485 q 308 458 308 469 z "},"n":{"ha":458,"x_min":256,"x_max":644,"o":"m 306 429 q 306 384 306 426 q 308 290 307 342 q 311 192 310 238 l 313 172 q 365 296 335 240 q 488 411 421 393 q 551 403 522 421 q 592 356 575 389 q 631 210 618 307 q 638 144 635 178 q 642 79 640 111 q 644 24 643 47 q 644 -25 644 0 l 644 -53 q 638 -70 644 -62 q 620 -78 631 -78 q 602 -71 610 -78 q 594 -53 594 -64 l 594 -14 q 592 51 593 24 q 589 122 592 78 q 581 203 586 167 q 547 332 569 290 q 524 361 536 353 q 501 364 514 367 q 410 271 454 350 q 353 135 374 208 l 353 131 l 350 118 l 342 78 q 329 14 331 19 q 328 10 329 13 q 328 1 328 7 l 328 -10 q 326 -26 328 -21 q 321 -36 324 -32 q 300 -44 313 -44 q 288 -42 293 -44 q 281 -35 282 -39 l 278 -32 q 274 -22 275 -28 q 272 -15 272 -19 q 271 0 271 -10 q 267 49 269 18 q 261 190 264 100 q 259 288 260 236 q 257 383 258 340 q 256 429 256 425 q 263 447 256 439 q 280 454 269 454 q 298 447 290 454 q 306 429 306 440 z "},"o":{"ha":375,"x_min":238,"x_max":581,"o":"m 408 385 q 344 333 372 375 q 299 203 308 281 q 311 68 289 126 q 379 0 333 10 q 474 31 436 -14 q 521 154 513 75 q 502 299 529 235 q 419 379 475 364 q 408 385 414 381 m 453 419 q 551 313 522 392 q 571 149 581 235 q 513 -1 560 54 q 368 -50 454 -69 q 264 50 296 -32 q 249 209 238 119 q 303 361 260 299 q 428 439 353 436 q 453 419 449 440 z "},"p":{"ha":410,"x_min":285,"x_max":608,"o":"m 344 -28 q 335 -253 342 -146 q 326 -270 333 -264 q 308 -276 318 -276 q 291 -267 297 -275 q 285 -250 285 -260 q 288 415 306 36 q 294 434 288 426 q 312 442 301 442 q 330 435 322 442 q 338 418 338 428 q 342 310 340 363 q 372 346 357 329 q 478 407 426 401 q 549 391 521 411 q 589 333 578 371 q 579 178 608 269 q 492 31 550 88 q 344 -28 424 -37 m 346 22 l 349 22 q 456 65 404 14 q 532 193 506 115 q 542 319 556 269 q 483 357 529 361 q 408 311 450 354 q 349 229 372 274 q 344 222 347 225 q 346 22 347 118 z "},"q":{"ha":435,"x_min":268,"x_max":624,"o":"m 618 433 q 610 324 618 390 q 607 296 610 318 q 603 261 604 274 q 601 250 603 256 l 599 218 q 622 -237 579 -53 q 618 -256 624 -247 q 603 -267 613 -265 q 584 -264 593 -269 q 572 -249 575 -258 q 544 138 536 -87 l 526 107 q 451 11 482 40 q 328 -25 392 -46 q 269 81 268 -6 q 306 229 269 147 q 396 361 343 311 q 526 411 461 424 q 567 393 550 406 q 568 433 568 415 q 576 451 568 443 q 593 458 583 458 q 610 451 603 458 q 618 433 618 443 m 557 319 q 542 349 550 342 q 515 361 533 358 q 431 326 476 369 q 351 208 385 282 q 319 81 319 136 q 344 22 318 31 q 418 47 379 11 q 485 135 444 72 q 519 200 499 156 q 553 265 540 244 l 558 315 q 557 319 558 318 z "},"r":{"ha":278,"x_min":261,"x_max":536,"o":"m 325 164 l 325 -22 q 317 -40 325 -32 q 300 -47 310 -47 q 283 -40 290 -47 q 275 -22 275 -32 q 263 407 275 279 q 268 426 261 418 q 285 435 275 433 q 303 429 296 436 q 313 413 311 422 q 322 271 318 347 q 499 447 396 394 q 517 449 507 451 q 532 437 528 446 q 533 417 536 428 q 521 403 531 407 q 407 305 460 371 q 326 168 354 239 q 325 164 325 165 z "},"s":{"ha":318,"x_min":233,"x_max":508,"o":"m 460 294 q 453 308 457 299 l 444 324 q 439 335 443 328 q 431 347 435 343 q 424 356 428 350 q 414 365 419 361 q 360 371 383 389 q 343 314 335 350 q 347 299 344 307 q 353 283 350 290 l 363 268 q 372 253 368 258 q 383 236 375 247 q 396 220 392 225 q 410 203 400 215 l 424 185 q 458 138 446 157 q 481 90 471 119 q 486 33 490 60 q 443 -31 476 -10 q 375 -47 415 -47 q 249 -14 314 -47 q 236 0 239 -10 q 238 19 233 10 q 251 32 242 29 q 271 31 261 35 q 375 3 326 3 q 417 11 401 3 q 436 44 432 21 q 383 154 443 78 q 367 175 383 156 l 347 201 q 331 224 343 207 q 314 251 319 242 l 303 275 q 293 303 296 290 q 297 363 286 335 q 329 410 307 392 q 384 428 353 429 q 444 404 415 428 q 462 389 454 397 q 476 369 469 381 l 486 353 q 497 333 489 347 q 504 317 504 318 q 506 297 508 307 q 493 283 503 288 q 474 282 483 279 q 460 294 464 285 z "},"t":{"ha":344,"x_min":194,"x_max":532,"o":"m 221 335 q 342 342 279 332 q 344 508 342 393 q 346 682 346 622 q 353 699 346 692 q 371 707 361 707 q 388 699 381 707 q 396 682 396 692 q 394 508 396 621 q 392 350 392 396 q 497 382 443 363 q 516 381 507 385 q 528 367 525 376 q 528 348 532 357 q 514 335 524 339 q 392 300 451 313 q 407 -6 392 125 q 401 -24 408 -15 q 385 -33 394 -32 q 367 -28 375 -35 q 357 -11 358 -21 q 342 290 342 119 q 218 285 278 282 q 201 292 208 285 q 194 310 194 300 q 202 328 194 321 q 221 335 210 335 z "},"u":{"ha":415,"x_min":229,"x_max":606,"o":"m 306 419 q 303 398 304 413 q 299 361 301 383 q 293 322 296 339 q 282 181 283 239 q 292 56 279 99 q 327 11 304 13 q 373 33 350 10 q 417 106 396 57 q 471 274 435 146 q 494 378 486 331 l 494 381 l 494 383 l 494 392 q 497 408 494 401 q 515 425 501 422 q 538 421 528 428 q 544 415 542 418 q 547 410 546 413 l 547 408 q 548 405 547 407 q 550 400 549 403 q 551 388 550 396 q 557 344 554 372 l 575 215 q 604 -6 600 15 q 600 -24 606 -15 q 584 -34 594 -32 q 565 -31 574 -36 q 554 -14 557 -25 q 525 208 550 7 l 518 260 q 463 86 482 131 q 410 -1 438 29 q 324 -39 369 -43 q 244 42 265 -33 q 232 182 229 92 q 243 328 233 246 q 249 367 246 344 q 253 403 251 389 q 256 425 256 417 q 265 442 257 435 q 283 447 272 449 q 300 438 293 446 q 306 419 307 431 z "},"v":{"ha":399,"x_min":207,"x_max":588,"o":"m 258 367 q 333 124 276 260 q 368 47 351 82 l 378 68 l 436 204 q 539 447 531 431 q 553 460 543 457 q 572 458 563 463 q 585 444 582 454 q 583 425 588 435 q 482 186 576 410 l 424 47 l 401 1 q 393 -12 397 -7 q 389 -19 390 -17 q 374 -28 382 -26 q 362 -28 367 -29 q 354 -25 357 -28 l 351 -24 q 349 -19 350 -22 q 346 -15 347 -18 q 340 -8 343 -12 q 328 17 335 1 q 288 104 308 54 q 208 358 228 249 q 213 376 207 368 q 229 387 219 385 q 247 383 239 389 q 258 367 256 376 z "},"w":{"ha":485,"x_min":225,"x_max":674,"o":"m 307 6 l 307 4 l 307 6 m 276 421 q 314 200 281 382 l 329 117 q 364 197 344 161 q 408 260 386 238 q 476 283 442 293 q 501 267 489 281 q 518 244 508 258 q 554 180 533 219 q 594 99 575 140 l 601 199 q 622 442 618 410 q 632 458 624 451 q 651 463 640 464 q 667 453 661 461 q 672 433 674 444 q 651 194 668 404 l 642 54 l 638 8 q 636 -4 638 0 l 636 -8 l 636 -11 q 633 -18 635 -15 q 615 -33 628 -31 q 586 -22 597 -37 q 579 -3 582 -17 q 561 49 568 33 q 510 157 547 86 q 476 217 489 197 l 463 235 l 463 236 q 443 224 454 235 q 408 174 426 207 q 365 65 375 113 q 357 10 358 35 l 357 3 q 356 -8 357 -3 q 332 -26 350 -25 q 317 -22 324 -26 q 306 -12 310 -19 q 304 -8 304 -10 l 301 -1 q 299 13 300 3 q 289 57 294 28 l 264 192 q 226 415 232 372 q 231 433 225 425 q 248 443 238 442 q 267 438 258 444 q 276 421 275 432 z "},"x":{"ha":382,"x_min":249,"x_max":571,"o":"m 374 208 q 254 400 321 306 q 251 419 249 408 q 261 435 253 429 q 280 438 269 440 q 296 428 290 436 q 403 258 354 344 q 525 438 463 361 q 542 447 532 446 q 560 442 553 449 q 569 424 568 435 q 564 407 571 414 q 431 207 497 324 q 528 -4 488 101 q 526 -22 531 -12 q 513 -35 522 -32 q 494 -35 504 -39 q 481 -21 485 -31 q 401 154 447 67 q 313 -24 365 86 q 299 -35 308 -32 q 280 -35 289 -39 q 267 -21 271 -31 q 268 -1 264 -11 q 374 208 329 128 z "},"y":{"ha":397,"x_min":274,"x_max":583,"o":"m 335 426 q 331 329 336 415 q 324 186 325 238 q 335 63 324 103 q 349 35 340 43 q 357 33 351 32 q 387 66 368 35 q 426 151 406 97 q 481 314 443 193 q 494 361 485 331 q 507 404 503 392 q 508 408 507 406 q 508 414 508 410 q 510 422 508 418 q 514 438 511 432 q 515 442 514 439 q 524 449 517 444 q 542 451 531 453 q 553 447 549 450 q 560 439 558 443 l 561 436 q 565 418 564 431 q 568 396 567 410 q 571 325 569 369 q 578 115 575 247 q 583 -247 583 -140 q 576 -265 583 -257 q 558 -272 568 -272 q 541 -265 549 -272 q 533 -247 533 -257 q 528 114 533 -136 q 522 282 525 213 q 472 133 494 188 q 429 40 450 75 q 368 -17 399 -10 q 313 0 336 -24 q 288 49 296 17 q 274 186 274 96 q 281 333 275 240 q 285 421 286 410 q 290 440 283 432 q 308 449 297 447 q 326 443 318 450 q 335 426 333 436 z "},"z":{"ha":424,"x_min":267,"x_max":613,"o":"m 375 279 q 447 278 410 276 l 508 365 q 531 400 522 386 l 507 400 q 476 399 496 399 q 441 398 456 399 q 417 397 426 397 q 322 396 351 397 q 303 403 311 396 q 296 420 296 410 q 303 438 296 431 q 319 446 310 446 q 417 447 351 447 q 441 448 426 447 q 475 449 456 449 q 506 450 494 449 l 549 450 q 565 449 560 450 q 574 447 569 449 q 589 435 582 447 q 593 415 594 426 q 590 406 593 411 q 582 388 588 399 l 550 338 l 511 281 l 543 283 q 560 278 553 285 q 569 260 568 271 q 564 242 571 250 q 546 233 557 235 q 474 229 496 229 l 454 200 l 356 64 l 331 26 l 336 26 q 426 24 369 24 l 494 24 l 553 24 l 588 24 q 605 16 597 24 q 613 -1 613 8 q 605 -19 613 -11 q 588 -26 597 -26 l 553 -26 l 494 -26 l 426 -26 q 333 -24 367 -26 q 301 -21 313 -22 q 289 -18 293 -19 q 281 -14 283 -17 q 269 1 272 -8 q 269 18 267 10 q 274 26 271 22 q 282 43 276 33 q 315 92 293 61 l 411 228 q 372 229 392 228 q 354 238 361 231 q 349 256 347 246 q 358 274 350 267 q 375 279 365 281 z "},"{":{"ha":226,"x_min":210,"x_max":414,"o":"m 385 740 q 293 672 324 717 q 285 578 263 628 q 294 560 289 568 q 308 542 300 553 q 322 522 317 532 q 342 438 350 481 q 321 401 339 422 q 290 371 310 388 l 274 357 l 294 336 q 338 211 340 285 q 326 121 336 192 q 318 28 318 60 q 333 -44 318 -19 q 392 -78 351 -71 q 408 -88 401 -79 q 413 -107 414 -97 q 402 -123 411 -117 q 383 -128 393 -129 q 292 -71 321 -117 q 268 26 268 -33 q 276 128 267 61 q 288 214 286 196 q 257 303 290 267 q 232 325 249 311 q 222 333 224 332 q 217 339 218 336 q 210 356 210 347 q 214 369 210 363 q 215 374 214 371 q 218 375 217 374 q 219 376 218 376 l 222 379 l 231 386 l 257 408 q 283 435 274 424 l 292 446 q 281 494 296 471 q 269 510 278 499 q 252 534 260 522 q 240 556 244 546 q 226 636 222 600 q 253 703 229 672 q 305 754 276 733 q 365 788 333 775 q 385 787 375 790 q 398 774 394 783 q 398 754 401 764 q 385 740 394 744 z "},"|":{"ha":190,"x_min":324,"x_max":378,"o":"m 374 -87 l 324 -87 l 328 781 l 378 781 l 374 -87 z "},"}":{"ha":203,"x_min":190,"x_max":392,"o":"m 208 -74 q 301 -8 269 -51 q 310 88 332 36 q 292 118 306 100 q 275 143 279 136 q 258 229 250 185 q 281 265 263 246 q 313 293 293 278 l 331 307 q 308 328 318 318 q 268 454 263 379 q 282 544 269 474 q 292 639 292 604 q 278 711 293 685 q 221 744 261 738 q 205 755 211 746 q 200 774 199 764 q 210 790 201 783 q 229 794 219 796 q 321 736 292 783 q 342 638 343 699 q 331 536 342 600 q 318 451 319 467 q 346 361 314 396 q 369 339 353 353 q 381 329 378 333 q 392 307 390 319 q 386 289 392 297 q 381 283 385 286 q 369 274 378 279 l 343 253 q 317 231 326 240 q 308 218 308 222 q 318 169 303 194 l 328 153 l 344 131 q 357 107 351 118 q 368 27 372 63 q 340 -39 364 -8 q 288 -89 317 -69 q 225 -121 258 -108 q 206 -119 215 -124 q 194 -106 197 -115 q 194 -87 190 -96 q 208 -74 199 -78 z "},"~":{"ha":519,"x_min":232,"x_max":707,"o":"m 239 400 q 372 482 304 478 q 481 451 415 485 q 568 418 540 421 q 664 467 614 417 q 682 474 672 474 q 699 466 692 474 q 707 449 707 458 q 700 431 707 439 q 565 369 633 365 q 458 407 529 371 q 375 432 404 435 q 278 367 329 429 q 260 358 271 360 q 242 364 250 357 q 233 381 235 371 q 239 400 232 392 z "},"":{"ha":269,"x_min":349,"x_max":457,"o":"m 357 -279 q 350 -83 351 -160 q 356 113 349 -6 q 385 308 364 232 q 396 323 388 318 q 415 325 404 328 q 430 314 425 322 q 432 294 435 306 q 406 110 413 224 q 400 -81 399 -4 q 407 -276 401 -158 q 400 -295 407 -287 q 383 -303 393 -303 q 365 -296 372 -303 q 357 -279 357 -289 m 449 426 q 453 422 449 426 q 457 408 457 418 q 449 391 457 399 q 432 383 442 383 q 415 391 422 383 q 407 408 407 399 q 415 426 407 418 q 432 433 422 433 q 449 426 442 433 z "},"":{"ha":478,"x_min":296,"x_max":672,"o":"m 396 46 q 467 450 428 199 q 422 415 443 439 q 386 361 400 390 q 354 233 363 307 q 361 101 346 160 q 396 46 372 60 m 525 499 q 583 439 560 483 q 585 420 588 431 q 573 406 582 410 q 553 404 564 401 q 539 417 543 407 q 517 446 529 436 q 446 39 478 193 q 529 82 481 47 q 631 163 590 126 q 648 169 638 169 q 665 162 658 169 q 672 144 672 154 q 664 126 672 133 q 557 40 622 88 q 435 -12 489 -8 q 408 -121 422 -69 q 398 -137 407 -132 q 378 -140 389 -142 q 363 -128 368 -137 q 361 -110 358 -119 q 385 -6 374 -58 q 313 89 333 15 q 305 238 296 157 q 342 381 314 319 q 385 449 357 418 q 444 494 413 481 q 475 504 460 501 l 483 561 q 493 577 485 571 q 512 582 501 583 q 528 572 522 581 q 533 553 535 564 l 525 499 z "},"":{"ha":542,"x_min":213,"x_max":729,"o":"m 547 483 q 560 594 565 565 q 541 640 556 622 q 510 663 526 658 q 447 626 472 674 q 371 340 392 522 q 535 353 471 338 q 553 349 544 354 q 565 333 563 343 q 561 315 567 324 q 546 303 556 306 q 365 292 476 286 q 358 217 364 274 q 353 143 357 208 q 350 96 351 115 q 431 97 392 110 q 475 65 450 90 l 503 36 q 606 10 553 -3 q 679 79 660 22 q 692 93 682 89 q 711 94 701 97 q 725 82 721 92 q 726 63 729 72 q 664 -21 708 7 q 567 -43 619 -49 q 472 -3 515 -37 q 439 31 468 0 q 414 50 422 47 q 369 49 393 57 q 336 25 344 42 l 336 17 q 324 -18 335 -6 q 318 -22 321 -21 q 300 -26 310 -28 q 278 -7 282 -25 q 277 3 276 -1 q 282 24 278 8 q 296 74 293 57 q 303 146 300 101 q 308 222 307 211 q 315 293 314 282 q 238 296 265 296 q 220 303 228 296 q 213 321 213 311 q 220 338 213 331 q 238 346 228 346 q 321 343 269 346 q 403 649 343 536 q 456 705 424 689 q 524 711 489 721 q 580 672 557 701 q 610 603 603 643 q 597 472 615 565 q 586 457 594 463 q 567 453 578 451 q 551 464 557 456 q 547 483 546 472 m 326 -3 q 326 -3 326 -3 z "},"":{"ha":568,"x_min":225,"x_max":757,"o":"m 361 450 q 314 515 342 485 q 307 533 307 522 q 315 550 307 543 q 333 557 322 557 q 350 549 343 557 q 403 476 381 515 q 640 436 551 514 l 681 479 q 714 515 706 507 q 731 524 721 524 q 749 517 742 524 q 757 499 757 510 q 750 482 757 489 q 717 444 743 475 l 674 399 q 694 358 686 381 q 707 247 717 307 q 658 142 697 186 l 733 74 q 742 56 742 67 q 735 38 742 46 q 717 31 728 31 q 700 38 707 31 l 625 106 q 621 108 624 107 q 597 94 610 101 q 458 68 519 58 q 349 122 396 78 q 264 58 282 69 q 244 57 254 54 q 230 69 235 60 q 228 88 225 78 q 239 103 231 97 q 317 161 254 111 q 310 172 314 167 q 280 265 285 217 q 295 364 275 314 q 361 450 315 414 m 400 417 q 344 351 363 390 q 330 273 326 313 q 353 197 333 233 q 406 140 374 161 q 481 115 438 118 q 575 139 525 113 q 651 228 631 168 q 649 340 671 288 q 565 425 626 397 q 408 426 504 453 q 400 417 406 421 z "},"":{"ha":581,"x_min":324,"x_max":771,"o":"m 504 222 q 600 215 547 211 l 600 311 q 599 449 599 390 q 568 369 583 403 q 524 294 547 321 q 450 261 489 256 q 372 325 401 269 q 338 435 350 367 q 326 639 324 525 q 334 656 326 649 q 352 663 342 663 q 369 655 363 663 q 376 636 376 647 q 388 443 374 528 q 415 349 397 383 q 458 311 433 314 q 486 326 469 308 q 522 389 504 347 q 571 528 538 422 q 588 592 582 564 q 589 594 589 593 l 589 600 l 589 607 q 593 621 590 617 q 618 638 600 639 q 631 634 625 638 q 638 628 636 631 l 639 624 q 643 613 642 619 q 644 604 644 610 q 646 583 644 597 q 647 515 647 560 q 650 311 649 442 l 650 221 q 733 235 664 222 q 751 230 743 236 q 762 214 760 224 q 758 196 764 204 q 742 185 751 188 l 650 169 l 650 119 q 739 136 697 126 q 758 133 749 139 q 769 118 767 128 q 765 99 771 108 q 750 89 760 90 q 650 69 704 76 l 650 1 l 650 -37 q 642 -55 650 -47 q 625 -62 635 -62 q 608 -55 615 -62 q 600 -37 600 -47 l 600 0 l 600 63 q 532 56 576 60 q 513 61 521 54 q 504 78 506 68 q 510 97 503 89 q 526 106 517 104 q 600 113 575 110 l 600 165 q 493 172 542 161 q 478 184 483 175 q 474 203 472 193 q 485 218 476 213 q 504 222 494 224 z "},"":{"ha":199,"x_min":326,"x_max":390,"o":"m 386 646 l 386 428 q 378 410 386 418 q 361 403 371 403 q 344 410 351 403 q 336 428 336 418 l 336 646 q 344 663 336 656 q 361 671 351 671 q 378 663 371 671 q 386 646 386 656 m 386 294 q 378 78 390 192 q 368 61 376 68 q 350 56 360 54 q 333 65 340 57 q 328 83 326 74 q 336 292 340 193 q 343 310 336 303 q 360 318 350 318 q 378 311 371 318 q 386 294 386 304 z "},"":{"ha":381,"x_min":283,"x_max":571,"o":"m 531 578 q 485 590 514 589 q 428 579 456 590 q 390 551 401 569 q 386 506 379 532 q 419 461 393 485 l 450 439 l 482 417 q 547 351 525 386 q 558 264 568 315 q 458 197 546 206 q 440 196 450 196 l 447 192 q 508 143 490 163 q 535 69 540 108 q 494 11 529 31 q 417 -10 458 -8 q 342 0 376 -12 q 288 44 301 15 q 287 64 283 54 q 299 78 290 74 q 318 78 308 82 q 332 67 328 75 q 360 47 338 56 q 414 40 383 39 q 465 52 446 42 q 485 78 483 63 q 471 108 488 92 q 419 150 457 124 q 353 197 368 185 q 306 258 315 228 q 313 362 288 315 q 388 424 339 408 q 339 492 349 456 q 347 578 324 539 q 408 626 367 610 q 486 639 443 640 q 558 619 529 638 q 569 604 567 614 q 565 585 571 594 q 550 574 560 576 q 531 578 540 572 m 468 363 q 407 376 438 381 q 358 341 376 371 q 353 275 340 311 q 363 257 356 267 q 368 256 365 257 q 454 247 406 243 q 508 275 504 251 q 475 358 518 321 q 468 363 471 360 z "},"":{"ha":299,"x_min":317,"x_max":485,"o":"m 359 499 q 363 495 359 499 q 367 482 367 492 q 359 465 367 472 q 342 457 351 457 q 324 465 332 457 q 317 482 317 472 q 324 499 317 492 q 342 507 332 507 q 359 499 351 507 m 477 499 q 481 495 477 499 q 485 482 485 492 q 477 465 485 472 q 460 457 469 457 q 442 465 450 457 q 435 482 435 472 q 442 499 435 492 q 460 507 450 507 q 477 499 469 507 z "},"":{"ha":539,"x_min":256,"x_max":747,"o":"m 506 664 l 496 664 l 488 664 l 471 664 q 453 658 457 663 q 369 515 407 610 q 319 317 332 419 q 331 121 307 204 q 418 4 356 38 q 524 -15 472 -25 q 653 106 607 -1 q 688 347 697 210 q 621 576 679 486 q 506 664 574 650 m 449 711 q 464 717 456 717 q 663 604 586 722 q 738 351 728 503 q 699 86 747 201 q 532 -65 643 -46 q 396 -40 464 -76 q 284 103 313 4 q 269 322 256 201 q 323 535 282 432 q 417 692 364 638 q 449 711 429 706 m 536 478 q 500 503 517 500 q 469 485 485 504 q 419 376 433 438 q 413 263 406 315 q 442 171 421 210 q 501 124 471 118 q 579 232 544 132 q 592 246 583 242 q 611 247 601 250 q 625 234 621 243 q 626 215 629 225 q 511 75 582 88 q 447 89 476 68 q 399 146 418 110 q 364 255 372 193 q 372 388 356 317 q 431 515 388 460 q 507 553 464 558 q 575 511 542 547 q 580 492 581 503 q 572 476 579 482 q 553 470 564 469 q 536 478 543 471 z "},"":{"ha":300,"x_min":235,"x_max":492,"o":"m 454 671 q 381 624 419 664 q 315 529 342 583 q 289 440 290 478 q 299 411 288 414 q 325 422 310 408 q 361 474 343 439 q 407 593 385 521 l 407 597 q 408 608 407 607 q 414 626 408 619 q 446 642 424 646 q 469 621 463 638 q 471 601 472 613 q 469 590 471 599 l 469 585 q 490 375 476 460 q 485 356 492 364 q 469 346 479 347 q 450 351 458 344 q 440 367 442 357 q 425 496 432 425 q 406 450 415 471 q 358 386 383 408 q 285 364 324 353 q 239 443 235 376 q 271 551 240 489 q 346 661 301 613 q 443 721 393 710 q 462 717 453 722 q 473 701 471 711 q 469 683 475 692 q 454 671 464 674 z "},"":{"ha":438,"x_min":303,"x_max":632,"o":"m 468 315 q 394 197 439 250 l 368 167 q 358 154 360 158 q 374 139 363 149 q 501 57 393 125 q 512 42 510 51 q 508 23 514 32 q 493 12 503 14 q 474 15 483 10 q 344 100 365 83 q 314 131 322 117 q 311 171 303 150 q 331 200 315 183 l 357 231 q 424 335 396 276 q 438 348 428 344 q 456 347 447 351 q 469 333 465 343 q 468 315 472 324 m 607 279 q 533 189 588 253 l 518 169 l 519 168 q 538 153 524 164 q 624 79 593 108 q 632 62 632 72 q 625 44 632 51 q 608 36 618 36 q 590 43 597 36 q 507 113 560 72 q 482 135 490 126 q 468 164 469 149 q 475 196 465 179 q 496 222 482 204 q 568 310 549 285 q 584 319 574 318 q 603 315 594 321 q 613 298 611 308 q 607 279 614 288 z "},"":{"ha":593,"x_min":292,"x_max":781,"o":"m 315 279 q 626 311 508 288 q 635 313 628 311 l 651 317 q 669 319 661 318 q 697 324 686 322 l 711 324 q 731 317 722 322 q 744 297 739 311 q 750 276 747 289 q 761 225 756 258 q 778 139 778 142 q 776 120 781 129 q 762 108 772 111 q 742 110 751 106 q 731 125 733 114 q 713 215 729 129 q 701 264 707 247 q 700 274 700 269 q 678 271 690 272 q 660 267 669 269 q 644 264 651 265 q 635 261 638 263 q 318 229 514 238 q 299 236 307 229 q 292 253 292 243 q 299 272 292 264 q 315 279 306 279 z "},"":{"ha":539,"x_min":256,"x_max":747,"o":"m 506 664 l 496 664 l 488 664 l 471 664 q 453 658 457 663 q 369 515 407 610 q 319 317 332 419 q 331 121 307 204 q 418 4 356 38 q 524 -15 472 -25 q 653 106 607 -1 q 688 347 697 210 q 621 576 679 486 q 506 664 574 650 m 449 711 q 464 717 456 717 q 663 604 586 722 q 738 351 728 503 q 699 86 747 201 q 532 -65 643 -46 q 396 -40 464 -76 q 284 103 313 4 q 269 322 256 201 q 323 535 282 432 q 417 692 364 638 q 449 711 429 706 m 440 389 q 443 296 438 350 q 529 326 504 297 q 546 382 554 354 q 510 411 539 407 q 440 390 481 414 l 440 389 m 375 406 q 515 460 453 467 q 566 439 546 457 q 594 394 586 421 q 586 320 604 357 q 525 264 568 283 q 626 257 582 263 q 644 247 638 256 q 649 228 650 239 q 639 212 647 218 q 621 207 631 206 q 454 214 567 214 q 461 138 460 168 q 454 119 461 126 q 437 111 447 111 q 419 118 426 111 q 411 135 411 125 q 397 261 410 163 q 389 361 390 322 q 371 371 378 361 q 365 389 364 379 q 375 406 367 399 z "},"":{"ha":383,"x_min":315,"x_max":569,"o":"m 340 488 q 442 492 374 488 q 544 496 510 496 q 562 488 554 496 q 569 471 569 481 q 562 453 569 461 q 544 446 554 446 q 444 442 514 446 q 340 438 375 438 q 323 445 331 438 q 315 463 315 453 q 323 480 315 472 q 340 488 331 488 z "},"":{"ha":331,"x_min":308,"x_max":533,"o":"m 369 592 q 386 551 372 568 q 417 528 400 533 q 450 528 436 519 q 474 563 467 535 q 469 597 479 583 q 436 614 458 610 q 369 592 394 621 m 339 632 q 446 663 382 675 q 508 628 486 656 q 521 549 533 594 q 472 482 508 500 q 400 481 439 465 q 351 514 372 490 q 324 568 331 538 q 315 597 308 579 q 319 604 318 601 l 319 608 q 339 632 321 626 z "},"":{"ha":458,"x_min":307,"x_max":646,"o":"m 433 343 l 426 407 q 431 425 425 417 q 448 435 438 433 q 467 430 458 436 q 476 413 475 424 q 482 349 479 389 q 569 364 522 354 q 589 360 581 365 q 599 344 597 354 q 596 325 601 333 q 581 314 590 317 q 486 299 529 304 q 496 228 490 258 q 492 210 497 218 q 476 199 486 201 q 457 203 465 197 q 446 219 449 208 q 438 293 440 250 q 351 289 393 289 q 334 297 342 289 q 326 314 326 304 q 334 331 326 324 q 351 339 342 339 q 433 343 392 339 m 333 133 q 617 149 433 128 q 635 143 626 150 q 644 126 643 136 q 639 108 646 117 q 622 99 632 100 q 331 83 435 78 q 314 91 321 83 q 307 109 307 99 q 315 126 307 119 q 333 133 322 133 z "},"":{"ha":429,"x_min":274,"x_max":617,"o":"m 279 500 q 317 551 293 525 q 368 590 342 576 q 436 600 406 611 q 485 536 471 586 q 471 415 500 483 q 419 319 464 397 l 410 303 q 482 332 449 322 q 592 343 517 343 q 609 335 601 343 q 617 318 617 328 q 609 301 617 308 q 592 293 601 293 q 496 285 525 293 q 390 236 453 271 q 388 235 389 236 q 384 232 386 235 q 378 226 382 229 q 340 215 360 213 q 323 228 329 218 q 319 250 317 239 q 328 265 322 257 q 335 274 332 271 q 336 275 336 274 l 375 344 q 425 435 418 419 q 438 522 447 486 q 418 553 429 549 q 392 547 410 556 q 353 515 374 536 q 321 475 333 494 q 306 463 317 465 q 287 466 296 461 q 276 481 278 471 q 279 500 274 492 z "},"":{"ha":389,"x_min":265,"x_max":599,"o":"m 276 538 q 357 589 317 571 q 413 606 388 604 q 469 583 449 607 q 483 510 499 547 q 447 463 475 486 q 488 458 468 463 q 571 381 553 442 q 519 240 599 293 q 382 192 467 204 q 363 197 371 190 q 353 213 354 203 q 358 232 351 224 q 374 242 364 240 q 490 281 449 251 q 524 367 539 314 q 475 410 513 400 q 394 404 439 418 l 392 401 l 382 394 q 367 386 372 389 q 340 393 351 383 q 332 417 331 403 q 346 444 333 431 q 365 461 353 451 q 385 476 368 464 q 410 496 401 488 q 436 528 432 514 q 431 550 442 539 q 415 556 426 557 q 378 544 400 554 q 307 499 343 528 q 290 493 300 492 q 272 502 279 494 q 267 520 265 510 q 276 538 268 531 z "},"":{"ha":290,"x_min":367,"x_max":479,"o":"m 478 617 q 456 548 471 576 q 413 482 440 519 q 397 472 407 474 q 378 477 386 471 q 368 494 369 483 q 374 513 367 504 q 410 569 399 546 q 428 625 422 592 q 439 642 431 636 q 458 645 447 647 q 474 635 468 643 q 478 617 479 626 z "},"":{"ha":492,"x_min":269,"x_max":679,"o":"m 375 94 q 431 38 408 43 q 454 50 442 35 q 499 203 483 90 q 502 249 501 225 q 503 308 503 274 l 503 357 q 506 411 503 392 q 510 429 507 424 q 518 443 513 438 q 538 449 526 450 q 553 442 546 449 q 560 432 557 438 l 563 426 q 567 413 564 421 q 574 378 569 400 q 578 356 575 368 q 581 338 581 344 q 583 329 582 331 q 676 18 617 179 q 675 -1 679 8 q 661 -13 671 -10 q 642 -12 651 -17 q 629 1 633 -8 q 553 243 583 125 q 549 197 551 218 q 494 21 531 71 q 418 -11 461 -24 q 368 22 393 -4 q 361 -75 367 -32 q 314 -210 349 -169 q 297 -217 307 -217 q 278 -212 286 -218 q 270 -195 271 -206 q 275 -176 269 -185 q 311 -68 301 -147 q 318 108 321 3 q 288 431 313 244 q 292 449 286 440 q 309 458 299 457 q 328 453 319 460 q 338 436 336 447 q 367 110 363 240 q 368 101 368 106 q 375 94 372 99 z "},"":{"ha":522,"x_min":271,"x_max":732,"o":"m 585 283 q 644 281 613 281 q 644 583 640 421 q 592 604 619 599 q 585 283 585 429 m 536 238 q 489 244 513 240 q 328 310 372 268 q 293 447 271 361 q 381 581 314 519 q 459 633 417 613 q 551 657 501 653 q 647 639 600 661 l 647 643 q 655 660 647 653 q 673 667 663 667 q 690 659 683 667 q 697 640 697 651 q 696 608 697 624 l 703 601 q 711 585 711 594 q 704 567 711 575 q 694 560 700 563 q 731 -117 683 164 q 726 -135 732 -126 q 710 -146 719 -144 q 691 -141 700 -147 q 681 -125 682 -135 q 646 231 654 36 q 586 232 614 231 q 604 -111 588 49 q 599 -130 606 -122 q 581 -139 592 -137 q 563 -133 571 -140 q 554 -117 556 -126 q 536 238 538 49 m 542 606 q 414 543 475 599 q 342 433 358 493 q 361 346 326 378 q 500 294 396 315 q 535 288 517 290 q 542 606 535 433 z "},"":{"ha":172,"x_min":308,"x_max":358,"o":"m 351 217 q 355 214 351 217 q 358 200 358 210 q 351 183 358 190 q 333 175 343 175 q 316 183 324 175 q 308 200 308 190 q 316 217 308 210 q 333 225 324 225 q 351 217 343 225 z "},"":{"ha":306,"x_min":292,"x_max":499,"o":"m 419 -42 l 407 -65 l 404 -72 l 414 -78 q 465 -112 449 -99 q 488 -136 481 -125 q 490 -175 499 -157 q 461 -206 485 -193 q 413 -222 443 -215 q 315 -222 378 -229 q 299 -212 306 -221 q 293 -194 292 -204 q 303 -178 294 -185 q 321 -172 311 -171 q 401 -172 375 -178 q 439 -161 426 -168 l 442 -158 l 433 -150 q 389 -121 421 -139 q 368 -108 374 -111 l 360 -103 q 349 -86 351 -96 q 350 -69 347 -78 q 354 -61 351 -65 q 363 -43 357 -54 l 375 -19 q 390 -7 381 -10 q 409 -9 400 -4 q 421 -24 418 -14 q 419 -42 424 -33 z "},"":{"ha":157,"x_min":289,"x_max":344,"o":"m 340 544 q 342 377 339 485 q 344 229 344 269 q 337 212 344 219 q 319 204 329 204 q 302 212 310 204 q 294 229 294 219 q 292 378 294 269 q 290 544 289 486 q 298 563 290 556 q 316 569 306 569 q 333 562 326 569 q 340 544 340 554 z "},"":{"ha":376,"x_min":282,"x_max":582,"o":"m 408 658 q 352 576 372 625 q 335 482 332 528 q 363 414 339 436 q 438 403 389 390 q 503 478 479 413 q 510 586 528 543 q 471 628 499 608 q 413 657 443 647 q 408 658 411 657 m 419 706 q 426 704 424 706 q 502 667 465 693 q 554 606 539 642 q 550 460 582 546 q 449 353 517 369 q 329 376 375 336 q 285 479 290 413 q 309 603 282 539 q 389 706 336 667 q 419 706 404 718 z "},"":{"ha":468,"x_min":263,"x_max":656,"o":"m 322 354 l 406 272 l 454 222 q 471 204 465 211 q 476 197 475 200 q 483 183 482 190 q 478 163 485 172 q 472 154 476 158 q 456 138 467 147 l 406 90 q 310 -11 329 18 q 294 -23 304 -21 q 276 -19 285 -25 q 265 -4 267 -14 q 268 14 263 6 q 371 126 289 50 l 421 172 l 426 179 l 418 189 l 371 236 l 286 318 q 279 336 279 326 q 287 353 279 346 q 304 361 294 361 q 322 354 314 361 m 494 361 l 578 269 l 628 211 q 644 190 639 199 q 650 182 649 185 q 656 165 656 174 q 653 154 656 160 q 652 151 653 153 q 650 149 651 150 q 644 142 649 146 l 631 124 l 586 69 q 514 -21 521 -11 q 499 -33 508 -31 q 480 -29 489 -35 q 469 -14 471 -24 q 472 4 467 -4 q 547 101 479 18 l 592 156 l 600 167 l 589 181 l 540 236 l 458 328 q 451 345 451 335 q 459 363 451 356 q 477 369 467 369 q 494 361 488 369 z "},"":{"ha":558,"x_min":281,"x_max":744,"o":"m 643 139 q 644 188 643 157 q 644 244 644 219 l 644 293 l 607 238 l 533 131 q 643 139 599 138 m 690 381 q 694 367 694 375 q 693 139 694 322 q 721 138 707 139 q 738 128 732 136 q 744 110 744 121 q 735 94 743 100 q 718 88 728 88 q 693 89 706 89 l 693 15 q 685 -2 693 6 q 668 -10 678 -10 q 651 -2 658 -10 q 643 15 643 6 l 643 89 q 533 81 600 88 q 526 79 531 81 q 514 76 517 76 q 474 86 489 72 q 464 115 461 97 q 471 131 465 122 q 479 140 474 135 q 482 144 482 143 q 567 267 490 158 q 643 389 617 339 q 658 401 649 399 q 676 400 668 404 q 690 381 689 393 m 288 571 l 324 606 q 339 618 332 614 q 347 624 343 622 q 358 626 353 626 q 379 617 371 628 q 393 585 388 606 q 397 544 396 568 q 397 444 400 507 q 382 269 393 338 q 372 253 381 260 q 353 249 364 247 q 337 258 343 250 q 332 278 331 267 q 347 447 343 343 q 349 542 350 507 l 346 558 l 324 535 q 306 528 315 528 q 288 535 296 528 q 281 553 281 543 q 288 571 281 563 m 293 6 q 478 311 339 75 q 671 615 592 504 q 688 625 678 624 q 707 620 699 626 q 717 603 715 614 q 713 585 718 593 q 521 285 638 485 q 335 -22 386 56 q 319 -33 329 -31 q 300 -29 308 -35 q 290 -13 292 -24 q 293 6 288 -3 z "},"":{"ha":676,"x_min":282,"x_max":864,"o":"m 289 571 l 325 606 q 340 618 335 614 q 349 624 344 622 q 360 626 354 626 q 381 617 372 626 q 394 585 389 606 q 399 544 397 568 q 397 444 400 504 q 381 269 392 339 q 370 253 379 260 q 351 249 361 247 q 335 259 342 250 q 331 278 329 268 q 347 447 342 344 q 349 542 350 504 q 347 557 349 550 l 325 535 q 307 528 317 528 q 290 535 297 528 q 282 553 282 543 q 289 571 282 563 m 293 6 q 478 311 339 75 q 671 615 592 504 q 688 625 678 624 q 707 620 699 626 q 717 603 715 614 q 713 585 718 593 q 521 285 638 485 q 335 -22 386 56 q 319 -33 329 -31 q 300 -29 308 -35 q 290 -13 292 -24 q 293 6 288 -3 m 543 208 q 606 297 571 261 q 660 336 633 326 q 728 322 699 350 q 750 235 761 293 q 713 139 742 194 q 640 25 686 90 q 835 72 753 63 q 853 67 844 74 q 863 51 861 61 q 858 32 864 40 q 840 22 851 24 q 618 -35 754 11 q 613 -37 617 -35 q 603 -43 606 -42 q 558 -37 576 -54 q 553 -3 544 -22 q 564 11 557 4 q 569 15 565 13 q 572 18 572 17 q 574 19 574 18 q 668 163 643 117 q 700 244 694 213 q 694 286 707 275 q 676 289 688 292 q 642 263 661 283 q 588 186 611 231 q 572 174 582 176 q 553 176 563 171 q 542 190 544 181 q 543 208 539 200 z "},"":{"ha":629,"x_min":282,"x_max":835,"o":"m 289 571 l 325 606 q 340 618 335 614 q 349 624 344 622 q 360 626 354 626 q 381 617 372 626 q 394 585 389 606 q 399 544 397 568 q 397 444 400 504 q 381 269 392 339 q 370 253 379 260 q 351 249 361 247 q 335 259 342 250 q 331 278 329 268 q 347 447 342 344 q 349 542 350 504 q 347 557 349 550 l 325 535 q 307 528 317 528 q 290 535 297 528 q 282 553 282 543 q 289 571 282 563 m 293 6 q 478 311 339 75 q 671 615 592 504 q 688 625 678 624 q 707 620 699 626 q 717 603 715 614 q 713 585 718 593 q 521 285 638 485 q 335 -22 386 56 q 319 -33 329 -31 q 300 -29 308 -35 q 290 -13 292 -24 q 293 6 288 -3 m 608 354 q 689 403 647 390 q 743 403 719 413 q 779 351 772 390 q 757 272 786 313 q 738 249 750 260 q 786 222 764 243 q 807 125 835 179 q 729 53 788 89 q 631 4 685 25 q 549 -21 576 -17 q 529 -16 538 -22 q 519 1 521 -10 q 524 19 518 11 q 540 29 531 28 q 613 51 564 32 q 703 96 663 71 q 763 149 750 124 q 753 186 772 168 q 708 200 733 203 q 688 196 706 200 q 675 194 681 194 q 654 201 663 194 q 643 220 644 208 q 649 240 642 232 q 664 251 654 247 q 669 254 665 253 q 672 257 672 256 l 675 258 q 717 301 704 283 q 729 343 733 324 q 724 357 728 356 q 704 356 717 360 q 642 318 672 346 q 624 311 635 311 q 607 319 614 311 q 600 337 600 326 q 608 354 600 347 z "},"":{"ha":400,"x_min":267,"x_max":611,"o":"m 603 -189 q 503 -242 564 -226 q 389 -249 443 -258 q 299 -197 328 -237 q 292 -86 267 -153 q 304 -68 294 -79 q 318 -50 310 -60 q 343 -22 333 -32 l 390 22 l 433 65 q 467 103 447 78 q 494 147 486 128 q 507 195 501 167 q 511 257 513 224 q 518 276 511 268 q 535 283 525 283 q 553 276 546 283 q 561 260 561 269 q 556 185 563 219 q 539 126 549 150 q 507 73 529 101 q 469 31 485 44 l 425 -14 l 379 -58 q 357 -82 371 -67 l 343 -99 l 339 -106 q 340 -168 322 -144 q 397 -199 356 -192 q 490 -194 440 -207 q 569 -153 539 -182 q 587 -146 576 -146 q 604 -153 597 -146 q 611 -172 611 -161 q 603 -189 611 -182 m 562 380 q 566 376 562 380 q 569 363 569 372 q 562 345 569 353 q 544 338 554 338 q 527 345 535 338 q 519 363 519 353 q 527 380 519 372 q 544 388 535 388 q 562 380 554 388 z "},"":{"ha":632,"x_min":235,"x_max":821,"o":"m 432 251 l 503 263 q 646 282 596 276 q 608 426 625 357 q 581 588 594 489 l 579 589 l 578 583 l 542 510 l 432 251 m 408 197 l 297 -65 q 283 -78 293 -75 q 264 -78 274 -82 q 251 -65 254 -75 q 250 -46 247 -56 l 350 189 q 264 178 303 182 q 245 183 253 176 q 236 201 238 190 q 242 219 235 211 q 258 228 249 226 q 374 242 308 232 l 497 529 q 532 606 503 544 l 557 654 q 565 672 563 665 q 569 678 568 675 q 572 682 571 681 q 576 686 575 683 q 593 690 585 690 q 613 681 604 689 q 615 674 614 678 q 618 665 617 671 l 622 649 q 629 594 622 643 q 658 438 643 499 q 697 286 675 363 q 754 288 726 288 q 772 280 764 288 q 779 263 779 272 q 772 245 779 253 q 754 238 764 238 q 711 236 733 238 l 724 194 q 815 -24 775 31 q 819 -42 821 -32 q 810 -59 818 -53 q 791 -64 801 -65 q 774 -54 781 -62 q 676 181 732 4 l 660 233 q 511 214 600 228 l 408 197 m 544 850 q 664 750 601 792 q 674 734 672 744 q 671 715 676 724 q 655 705 665 707 q 636 708 644 703 q 508 817 571 751 q 501 834 501 824 q 509 851 501 844 q 527 858 517 858 q 544 850 538 858 z "},"":{"ha":632,"x_min":235,"x_max":821,"o":"m 432 251 l 503 263 q 646 282 596 276 q 608 426 625 357 q 581 588 594 489 l 579 589 l 578 583 l 542 510 l 432 251 m 408 197 l 297 -65 q 283 -78 293 -75 q 264 -78 274 -82 q 251 -65 254 -75 q 250 -46 247 -56 l 350 189 q 264 178 303 182 q 245 183 253 176 q 236 201 238 190 q 242 219 235 211 q 258 228 249 226 q 374 242 308 232 l 497 529 q 532 606 503 544 l 557 654 q 565 672 563 665 q 569 678 568 675 q 572 682 571 681 q 576 686 575 683 q 593 690 585 690 q 613 681 604 689 q 615 674 614 678 q 618 665 617 671 l 622 649 q 629 594 622 643 q 658 438 643 499 q 697 286 675 363 q 754 288 726 288 q 772 280 764 288 q 779 263 779 272 q 772 245 779 253 q 754 238 764 238 q 711 236 733 238 l 724 194 q 815 -24 775 31 q 819 -42 821 -32 q 810 -59 818 -53 q 791 -64 801 -65 q 774 -54 781 -62 q 676 181 732 4 l 660 233 q 511 214 600 228 l 408 197 m 546 775 q 590 836 565 799 l 635 900 q 652 910 642 908 q 671 905 663 911 q 681 888 679 899 q 676 869 682 878 l 632 807 q 585 744 604 768 q 567 735 578 736 q 549 740 557 733 q 540 758 542 747 q 546 775 539 768 z "},"":{"ha":632,"x_min":235,"x_max":821,"o":"m 432 251 l 503 263 q 646 282 596 276 q 608 426 625 357 q 581 588 594 489 l 579 589 l 578 583 l 542 510 l 432 251 m 408 197 l 297 -65 q 283 -78 293 -75 q 264 -78 274 -82 q 251 -65 254 -75 q 250 -46 247 -56 l 350 189 q 264 178 303 182 q 245 183 253 176 q 236 201 238 190 q 242 219 235 211 q 258 228 249 226 q 374 242 308 232 l 497 529 q 532 606 503 544 l 557 654 q 565 672 563 665 q 569 678 568 675 q 572 682 571 681 q 576 686 575 683 q 593 690 585 690 q 613 681 604 689 q 615 674 614 678 q 618 665 617 671 l 622 649 q 629 594 622 643 q 658 438 643 499 q 697 286 675 363 q 754 288 726 288 q 772 280 764 288 q 779 263 779 272 q 772 245 779 253 q 754 238 764 238 q 711 236 733 238 l 724 194 q 815 -24 775 31 q 819 -42 821 -32 q 810 -59 818 -53 q 791 -64 801 -65 q 774 -54 781 -62 q 676 181 732 4 l 660 233 q 511 214 600 228 l 408 197 m 471 736 q 536 813 506 769 q 554 838 551 833 q 579 857 567 853 q 617 847 599 863 q 639 821 625 840 q 669 776 646 811 q 710 717 692 742 q 713 698 715 708 q 703 682 711 688 q 684 678 694 676 q 668 689 674 681 l 629 747 l 599 792 q 590 803 594 799 l 576 783 q 504 700 542 735 q 487 693 497 693 q 469 701 476 693 q 463 719 463 708 q 471 736 463 729 z "},"":{"ha":632,"x_min":235,"x_max":821,"o":"m 432 251 l 503 263 q 646 282 596 276 q 608 426 625 357 q 581 588 594 489 l 579 589 l 578 583 l 542 510 l 432 251 m 408 197 l 297 -65 q 283 -78 293 -75 q 264 -78 274 -82 q 251 -65 254 -75 q 250 -46 247 -56 l 350 189 q 264 178 303 182 q 245 183 253 176 q 236 201 238 190 q 242 219 235 211 q 258 228 249 226 q 374 242 308 232 l 497 529 q 532 606 503 544 l 557 654 q 565 672 563 665 q 569 678 568 675 q 572 682 571 681 q 576 686 575 683 q 593 690 585 690 q 613 681 604 689 q 615 674 614 678 q 618 665 617 671 l 622 649 q 629 594 622 643 q 658 438 643 499 q 697 286 675 363 q 754 288 726 288 q 772 280 764 288 q 779 263 779 272 q 772 245 779 253 q 754 238 764 238 q 711 236 733 238 l 724 194 q 815 -24 775 31 q 819 -42 821 -32 q 810 -59 818 -53 q 791 -64 801 -65 q 774 -54 781 -62 q 676 181 732 4 l 660 233 q 511 214 600 228 l 408 197 m 478 753 q 510 811 494 792 q 550 836 528 836 q 588 817 571 836 q 604 790 593 810 q 618 769 613 775 l 621 767 q 626 772 624 768 q 657 817 640 785 q 672 828 663 825 q 691 826 682 831 q 703 811 700 821 q 701 792 706 801 q 663 736 681 754 q 617 717 640 714 q 581 738 597 718 q 561 765 572 746 l 550 782 q 525 733 539 767 q 511 720 521 724 q 492 720 501 717 q 478 733 482 724 q 478 753 475 743 z "},"":{"ha":632,"x_min":235,"x_max":821,"o":"m 432 251 l 503 263 q 646 282 596 276 q 608 426 625 357 q 581 588 594 489 l 579 589 l 578 583 l 542 510 l 432 251 m 408 197 l 297 -65 q 283 -78 293 -75 q 264 -78 274 -82 q 251 -65 254 -75 q 250 -46 247 -56 l 350 189 q 264 178 303 182 q 245 183 253 176 q 236 201 238 190 q 242 219 235 211 q 258 228 249 226 q 374 242 308 232 l 497 529 q 532 606 503 544 l 557 654 q 565 672 563 665 q 569 678 568 675 q 572 682 571 681 q 576 686 575 683 q 593 690 585 690 q 613 681 604 689 q 615 674 614 678 q 618 665 617 671 l 622 649 q 629 594 622 643 q 658 438 643 499 q 697 286 675 363 q 754 288 726 288 q 772 280 764 288 q 779 263 779 272 q 772 245 779 253 q 754 238 764 238 q 711 236 733 238 l 724 194 q 815 -24 775 31 q 819 -42 821 -32 q 810 -59 818 -53 q 791 -64 801 -65 q 774 -54 781 -62 q 676 181 732 4 l 660 233 q 511 214 600 228 l 408 197 m 541 797 q 545 793 541 797 q 549 779 549 789 q 541 762 549 769 q 524 754 533 754 q 506 762 514 754 q 499 779 499 769 q 506 797 499 789 q 524 804 514 804 q 541 797 533 804 m 653 801 q 657 797 653 801 q 661 783 661 793 q 653 766 661 774 q 636 758 646 758 q 619 766 626 758 q 611 783 611 774 q 619 801 611 793 q 636 808 626 808 q 653 801 646 808 z "},"":{"ha":632,"x_min":235,"x_max":821,"o":"m 432 251 l 503 263 q 646 282 596 276 q 608 426 625 357 q 581 588 594 489 l 579 589 l 578 583 l 542 510 l 432 251 m 408 197 l 297 -65 q 283 -78 293 -75 q 264 -78 274 -82 q 251 -65 254 -75 q 250 -46 247 -56 l 350 189 q 264 178 303 182 q 245 183 253 176 q 236 201 238 190 q 242 219 235 211 q 258 228 249 226 q 374 242 308 232 l 497 529 q 532 606 503 544 l 557 654 q 565 672 563 665 q 569 678 568 675 q 572 682 571 681 q 576 686 575 683 q 593 690 585 690 q 613 681 604 689 q 615 674 614 678 q 618 665 617 671 l 622 649 q 629 594 622 643 q 658 438 643 499 q 697 286 675 363 q 754 288 726 288 q 772 280 764 288 q 779 263 779 272 q 772 245 779 253 q 754 238 764 238 q 711 236 733 238 l 724 194 q 815 -24 775 31 q 819 -42 821 -32 q 810 -59 818 -53 q 791 -64 801 -65 q 774 -54 781 -62 q 676 181 732 4 l 660 233 q 511 214 600 228 l 408 197 m 625 728 q 617 722 622 724 q 524 719 563 703 q 475 775 488 735 q 480 847 465 810 q 531 896 494 883 q 620 895 579 913 q 676 839 661 878 q 668 763 692 799 q 625 728 654 740 m 578 765 q 626 790 614 772 q 629 821 636 804 q 599 849 622 839 q 547 849 576 860 q 525 826 532 843 q 524 789 518 808 q 543 765 528 772 q 569 763 554 761 l 578 765 z "},"":{"ha":831,"x_min":243,"x_max":1018,"o":"m 438 265 l 592 293 l 640 301 l 608 426 q 581 588 594 489 l 579 589 l 578 583 l 542 510 l 438 265 m 414 210 l 297 -65 q 283 -78 293 -75 q 264 -78 274 -82 q 251 -65 254 -75 q 250 -46 247 -56 l 356 201 q 272 190 311 194 q 253 196 261 189 q 244 213 246 203 q 250 231 243 224 q 267 240 257 239 q 379 256 318 246 l 497 529 q 532 606 503 544 l 557 654 q 565 672 563 665 q 569 678 568 675 q 572 682 571 681 q 576 686 575 683 q 593 690 585 690 q 613 681 604 689 q 615 674 614 678 l 618 668 q 804 707 739 692 q 823 705 814 710 q 834 690 832 700 q 831 670 836 679 q 815 660 826 661 q 626 618 750 643 l 629 594 q 658 438 643 499 q 690 310 672 375 q 925 329 822 329 q 942 322 935 329 q 950 304 950 314 q 942 287 950 294 q 925 279 935 279 q 704 261 829 279 l 724 194 q 806 -11 769 50 q 889 -1 836 -10 q 992 10 960 8 q 1010 3 1003 10 q 1018 -15 1018 -4 q 1011 -33 1018 -25 q 994 -40 1004 -40 q 897 -51 965 -42 q 807 -61 839 -60 q 774 -54 788 -71 q 676 181 729 8 l 654 253 l 601 243 q 521 229 590 242 l 414 210 z "},"":{"ha":492,"x_min":250,"x_max":697,"o":"m 574 550 q 555 601 569 576 q 522 633 540 626 q 443 629 479 651 q 379 553 408 608 q 318 344 329 458 q 346 74 301 179 q 446 -31 383 -17 q 461 -32 454 -32 l 471 -32 q 560 21 518 -29 q 646 256 625 99 q 656 273 647 267 q 674 278 664 279 q 691 268 685 276 q 696 250 697 260 q 597 -11 672 76 q 479 -82 544 -75 l 471 -94 q 464 -104 467 -100 q 479 -112 467 -106 q 523 -161 515 -133 q 515 -210 531 -189 q 482 -232 504 -225 q 417 -237 454 -242 q 400 -228 407 -236 q 394 -210 393 -219 q 404 -193 396 -200 q 422 -187 413 -186 q 467 -185 449 -190 q 475 -181 474 -183 l 475 -175 q 454 -156 472 -167 q 433 -143 438 -147 q 413 -117 417 -131 q 413 -96 410 -107 q 418 -86 415 -92 q 424 -76 419 -82 q 300 54 343 -50 q 268 350 250 174 q 335 576 281 474 q 417 672 371 643 q 542 681 475 708 q 596 630 575 665 q 624 558 617 594 q 619 540 625 549 q 603 530 614 532 q 585 533 593 528 q 574 550 576 539 z "},"":{"ha":504,"x_min":247,"x_max":693,"o":"m 286 657 q 553 707 388 667 q 572 705 563 710 q 583 690 581 700 q 580 670 585 679 q 564 660 575 661 q 311 610 408 619 q 304 483 311 606 q 299 311 299 382 l 474 368 q 493 367 483 371 q 506 353 503 363 q 504 333 508 343 q 490 321 500 324 l 401 292 l 300 258 l 299 258 q 317 86 301 150 q 367 1 335 11 q 508 17 422 -15 q 585 47 536 26 q 658 79 638 71 q 677 78 668 82 q 690 64 686 74 q 689 45 693 54 q 675 32 685 36 q 604 1 657 25 q 525 -31 551 -22 q 353 -46 424 -67 q 268 74 293 -29 q 249 275 250 147 q 254 486 247 358 q 261 631 261 618 q 276 654 261 647 q 286 657 281 657 m 376 836 q 468 756 428 785 q 478 738 476 749 q 473 719 479 728 q 456 710 467 711 q 438 714 446 708 q 340 800 394 746 q 333 818 333 808 q 341 835 333 828 q 358 843 349 843 q 376 836 368 843 z "},"":{"ha":504,"x_min":247,"x_max":693,"o":"m 286 657 q 553 707 388 667 q 572 705 563 710 q 583 690 581 700 q 580 670 585 679 q 564 660 575 661 q 311 610 408 619 q 304 483 311 606 q 299 311 299 382 l 474 368 q 493 367 483 371 q 506 353 503 363 q 504 333 508 343 q 490 321 500 324 l 401 292 l 300 258 l 299 258 q 317 86 301 150 q 367 1 335 11 q 508 17 422 -15 q 585 47 536 26 q 658 79 638 71 q 677 78 668 82 q 690 64 686 74 q 689 45 693 54 q 675 32 685 36 q 604 1 657 25 q 525 -31 551 -22 q 353 -46 424 -67 q 268 74 293 -29 q 249 275 250 147 q 254 486 247 358 q 261 631 261 618 q 276 654 261 647 q 286 657 281 657 m 358 760 l 432 836 q 450 843 440 843 q 467 835 460 843 q 475 818 475 828 q 468 800 475 808 l 394 724 q 376 717 386 717 q 359 724 367 717 q 351 742 351 732 q 358 760 351 751 z "},"":{"ha":504,"x_min":247,"x_max":693,"o":"m 286 657 q 553 707 388 667 q 572 705 563 710 q 583 690 581 700 q 580 670 585 679 q 564 660 575 661 q 311 610 408 619 q 304 483 311 606 q 299 311 299 382 l 474 368 q 493 367 483 371 q 506 353 503 363 q 504 333 508 343 q 490 321 500 324 l 401 292 l 300 258 l 299 258 q 317 86 301 150 q 367 1 335 11 q 508 17 422 -15 q 585 47 536 26 q 658 79 638 71 q 677 78 668 82 q 690 64 686 74 q 689 45 693 54 q 675 32 685 36 q 604 1 657 25 q 525 -31 551 -22 q 353 -46 424 -67 q 268 74 293 -29 q 249 275 250 147 q 254 486 247 358 q 261 631 261 618 q 276 654 261 647 q 286 657 281 657 m 303 757 q 357 842 328 790 l 375 869 q 400 890 386 886 q 438 876 421 896 q 456 847 444 868 q 467 822 460 838 q 486 782 475 807 q 507 738 497 757 q 508 718 511 728 q 495 704 504 708 q 476 703 486 700 q 463 715 467 707 l 442 761 q 423 800 431 785 q 411 825 415 815 l 408 829 l 401 817 q 344 726 369 763 q 327 717 338 718 q 308 722 317 715 q 299 738 300 728 q 303 757 297 749 z "},"":{"ha":504,"x_min":247,"x_max":693,"o":"m 286 657 q 553 707 388 667 q 572 705 563 710 q 583 690 581 700 q 580 670 585 679 q 564 660 575 661 q 311 610 408 619 q 304 483 311 606 q 299 311 299 382 l 474 368 q 493 367 483 371 q 506 353 503 363 q 504 333 508 343 q 490 321 500 324 l 401 292 l 300 258 l 299 258 q 317 86 301 150 q 367 1 335 11 q 508 17 422 -15 q 585 47 536 26 q 658 79 638 71 q 677 78 668 82 q 690 64 686 74 q 689 45 693 54 q 675 32 685 36 q 604 1 657 25 q 525 -31 551 -22 q 353 -46 424 -67 q 268 74 293 -29 q 249 275 250 147 q 254 486 247 358 q 261 631 261 618 q 276 654 261 647 q 286 657 281 657 m 385 767 q 389 764 385 767 q 393 750 393 760 q 385 733 393 740 q 368 725 378 725 q 351 733 358 725 q 343 750 343 740 q 351 767 343 760 q 368 775 358 775 q 385 767 378 775 m 490 767 q 493 764 490 767 q 497 750 497 760 q 490 733 497 740 q 472 725 482 725 q 455 733 463 725 q 447 750 447 740 q 455 767 447 760 q 472 775 463 775 q 490 767 482 775 z "},"":{"ha":224,"x_min":279,"x_max":411,"o":"m 381 667 q 386 526 382 635 q 392 385 390 418 q 396 244 393 353 q 397 104 399 136 q 396 -35 396 72 q 388 -53 396 -46 q 370 -60 381 -60 q 353 -52 360 -60 q 346 -35 346 -44 q 347 105 346 71 q 346 245 349 139 q 342 386 343 351 l 336 525 l 331 664 q 338 683 331 675 q 355 690 344 690 q 373 683 365 690 q 381 667 381 676 m 321 839 q 400 774 357 806 q 410 758 408 768 q 405 739 411 747 q 388 729 399 731 q 369 735 378 728 q 288 800 326 767 q 280 817 281 807 q 285 835 279 828 q 302 844 292 843 q 321 839 313 844 z "},"":{"ha":233,"x_min":313,"x_max":424,"o":"m 383 667 q 389 526 385 635 q 394 385 393 418 q 399 244 396 353 q 400 104 401 136 q 399 -35 399 72 q 391 -53 399 -46 q 373 -60 383 -60 q 356 -52 363 -60 q 349 -35 349 -44 q 350 105 349 71 q 349 245 351 139 q 344 386 346 351 l 339 525 l 333 664 q 340 683 333 675 q 358 690 347 690 q 376 683 368 690 q 383 667 383 676 m 317 769 q 376 860 340 808 q 393 871 383 869 q 412 866 403 872 q 422 850 421 860 q 418 832 424 840 q 361 744 382 782 q 345 733 356 736 q 326 735 335 731 q 315 751 318 740 q 317 769 313 761 z "},"":{"ha":283,"x_min":258,"x_max":474,"o":"m 383 667 q 389 526 385 635 q 394 385 393 418 q 399 244 396 353 q 400 104 401 136 q 399 -35 399 72 q 391 -53 399 -46 q 373 -60 383 -60 q 356 -52 363 -60 q 349 -35 349 -44 q 350 105 349 71 q 349 245 351 139 q 344 386 346 351 l 339 525 l 333 664 q 340 683 333 675 q 358 690 347 690 q 376 683 368 690 q 383 667 383 676 m 263 746 q 315 850 300 825 q 338 876 326 869 q 376 881 357 890 q 400 858 389 875 q 418 829 407 850 q 468 747 449 775 q 472 728 474 739 q 461 713 469 718 q 442 709 453 707 q 426 719 432 711 q 375 806 407 749 q 361 828 365 822 l 357 824 q 307 724 343 801 q 293 712 303 715 q 274 713 283 708 q 262 726 265 717 q 263 746 258 736 z "},"":{"ha":235,"x_min":274,"x_max":421,"o":"m 381 667 q 386 526 382 635 q 392 385 390 418 q 396 244 393 353 q 397 104 399 136 q 396 -35 396 72 q 388 -53 396 -46 q 370 -60 381 -60 q 353 -52 360 -60 q 346 -35 346 -44 q 347 105 346 71 q 346 245 349 139 q 342 386 343 351 l 336 525 l 331 664 q 338 683 331 675 q 355 690 344 690 q 373 683 365 690 q 381 667 381 676 m 316 792 q 320 789 316 792 q 324 775 324 785 q 316 758 324 765 q 299 750 308 750 q 281 758 289 750 q 274 775 274 765 q 281 792 274 785 q 299 800 289 800 q 316 792 308 800 m 413 794 q 417 790 413 794 q 421 776 421 786 q 413 759 421 767 q 396 751 406 751 q 378 759 386 751 q 371 776 371 767 q 378 794 371 786 q 396 801 386 801 q 413 794 406 801 z "},"":{"ha":613,"x_min":240,"x_max":822,"o":"m 431 272 q 424 -12 424 -4 q 644 108 551 21 q 749 369 768 225 q 569 574 729 514 q 424 603 503 599 q 431 322 433 488 q 486 324 457 324 q 503 316 496 324 q 511 299 511 308 q 503 281 511 289 q 486 274 496 274 q 431 272 457 274 m 374 603 q 274 589 321 601 q 254 591 263 586 q 243 606 246 596 q 245 625 240 617 q 260 636 250 633 q 368 653 311 650 l 368 657 q 373 675 367 667 q 390 685 379 683 q 408 680 400 686 q 418 663 417 674 l 419 653 q 586 621 508 650 q 729 528 672 588 q 799 375 786 465 q 679 72 822 207 q 542 -22 618 15 q 386 -71 464 -58 q 367 -66 375 -72 q 357 -50 358 -60 q 374 -22 354 -29 q 381 268 374 10 q 314 258 347 265 q 296 263 304 257 q 285 278 288 268 q 289 297 283 289 q 306 308 294 306 q 381 318 343 315 q 374 603 383 488 z "},"":{"ha":519,"x_min":249,"x_max":708,"o":"m 257 -19 q 254 433 249 240 q 253 579 257 515 q 252 585 253 582 q 251 591 251 588 q 250 597 251 594 l 250 608 q 251 617 250 614 q 279 633 260 636 q 289 630 285 632 q 294 625 293 628 l 296 622 q 299 618 297 621 q 317 567 308 600 q 331 524 325 535 q 533 129 432 285 q 593 54 565 81 q 629 26 613 35 q 647 24 640 21 q 653 39 650 29 q 657 106 657 63 q 646 313 658 179 q 603 667 632 457 q 608 685 601 676 q 624 694 614 693 q 643 690 635 696 q 653 672 651 683 q 696 317 682 463 q 707 106 708 182 q 701 31 707 58 q 693 1 699 13 q 672 -21 685 -15 q 608 -19 643 -35 q 557 19 583 -7 q 492 101 525 50 q 304 456 397 243 l 304 431 q 307 -17 299 240 q 300 -35 307 -28 q 283 -43 293 -43 q 265 -36 272 -43 q 257 -19 257 -29 m 329 674 q 400 758 357 756 q 442 746 421 760 q 471 724 453 739 q 507 696 499 696 l 510 696 q 519 706 513 696 q 533 735 526 715 q 547 748 538 744 q 567 748 557 751 q 580 735 576 744 q 581 715 583 725 q 503 646 550 642 q 436 686 478 649 q 414 704 421 700 q 404 708 407 708 q 376 657 392 701 q 364 643 374 647 q 344 642 354 639 q 331 654 335 644 q 329 674 326 664 z "},"":{"ha":539,"x_min":256,"x_max":747,"o":"m 506 664 l 496 664 l 488 664 l 471 664 q 453 658 457 663 q 369 515 407 610 q 319 317 332 419 q 331 121 307 204 q 418 4 356 38 q 524 -15 472 -25 q 653 106 607 -1 q 688 347 697 210 q 621 576 679 486 q 506 664 574 650 m 449 711 q 464 717 456 717 q 663 604 586 722 q 738 351 728 503 q 699 86 747 201 q 532 -65 643 -46 q 396 -40 464 -76 q 284 103 313 4 q 269 322 256 201 q 323 535 282 432 q 417 692 364 638 q 449 711 429 706 m 418 869 q 521 786 506 797 q 531 769 529 779 q 526 751 532 760 q 510 740 519 742 q 490 744 500 739 q 385 831 468 761 q 376 848 378 838 q 382 866 375 858 q 399 875 389 874 q 418 869 410 876 z "},"":{"ha":539,"x_min":256,"x_max":747,"o":"m 506 664 l 496 664 l 488 664 l 471 664 q 453 658 457 663 q 369 515 407 610 q 319 317 332 419 q 331 121 307 204 q 418 4 356 38 q 524 -15 472 -25 q 653 106 607 -1 q 688 347 697 210 q 621 576 679 486 q 506 664 574 650 m 449 711 q 464 717 456 717 q 663 604 586 722 q 738 351 728 503 q 699 86 747 201 q 532 -65 643 -46 q 396 -40 464 -76 q 284 103 313 4 q 269 322 256 201 q 323 535 282 432 q 417 692 364 638 q 449 711 429 706 m 463 801 q 511 838 483 811 l 532 858 l 561 888 q 580 892 569 893 q 597 884 590 892 q 602 866 603 876 q 594 849 601 856 q 567 822 583 840 l 546 801 q 485 757 513 769 q 465 756 475 753 q 451 769 456 760 q 451 788 447 778 q 463 801 454 797 z "},"":{"ha":539,"x_min":256,"x_max":747,"o":"m 506 664 l 496 664 l 488 664 l 471 664 q 453 658 457 663 q 369 515 407 610 q 319 317 332 419 q 331 121 307 204 q 418 4 356 38 q 524 -15 472 -25 q 653 106 607 -1 q 688 347 697 210 q 621 576 679 486 q 506 664 574 650 m 449 711 q 464 717 456 717 q 663 604 586 722 q 738 351 728 503 q 699 86 747 201 q 532 -65 643 -46 q 396 -40 464 -76 q 284 103 313 4 q 269 322 256 201 q 323 535 282 432 q 417 692 364 638 q 449 711 429 706 m 411 785 q 472 856 451 818 q 483 879 478 865 q 494 900 490 894 q 522 908 506 913 q 539 897 532 907 q 554 874 544 892 q 618 767 586 815 q 622 748 624 758 q 611 732 619 738 q 592 728 603 726 q 576 739 582 731 q 518 835 544 788 l 517 831 q 444 746 490 786 q 426 740 436 739 q 408 749 415 742 q 403 767 401 757 q 411 785 404 778 z "},"":{"ha":539,"x_min":256,"x_max":747,"o":"m 506 664 l 496 664 l 488 664 l 471 664 q 453 658 457 663 q 369 515 407 610 q 319 317 332 419 q 331 121 307 204 q 418 4 356 38 q 524 -15 472 -25 q 653 106 607 -1 q 688 347 697 210 q 621 576 679 486 q 506 664 574 650 m 449 711 q 464 717 456 717 q 663 604 586 722 q 738 351 728 503 q 699 86 747 201 q 532 -65 643 -46 q 396 -40 464 -76 q 284 103 313 4 q 269 322 256 201 q 323 535 282 432 q 417 692 364 638 q 449 711 429 706 m 393 790 q 483 850 442 853 q 543 811 513 849 q 568 786 563 788 q 606 819 579 785 q 622 829 611 828 q 640 824 632 831 q 650 808 649 818 q 644 789 651 797 q 560 738 600 729 q 504 779 536 742 q 481 800 488 800 q 432 760 465 801 q 416 750 426 751 q 397 755 406 749 q 388 772 389 761 q 393 790 386 782 z "},"":{"ha":539,"x_min":256,"x_max":747,"o":"m 506 664 l 496 664 l 488 664 l 471 664 q 453 658 457 663 q 369 515 407 610 q 319 317 332 419 q 331 121 307 204 q 418 4 356 38 q 524 -15 472 -25 q 653 106 607 -1 q 688 347 697 210 q 621 576 679 486 q 506 664 574 650 m 449 711 q 464 717 456 717 q 663 604 586 722 q 738 351 728 503 q 699 86 747 201 q 532 -65 643 -46 q 396 -40 464 -76 q 284 103 313 4 q 269 322 256 201 q 323 535 282 432 q 417 692 364 638 q 449 711 429 706 m 462 827 q 466 823 462 827 q 469 810 469 819 q 462 792 469 800 q 444 785 454 785 q 427 792 435 785 q 419 810 419 800 q 427 827 419 819 q 444 835 435 835 q 462 827 454 835 m 569 833 q 573 829 569 833 q 576 815 576 825 q 569 798 576 806 q 551 790 561 790 q 534 798 542 790 q 526 815 526 806 q 534 833 526 825 q 551 840 542 840 q 569 833 561 840 z "},"":{"ha":426,"x_min":321,"x_max":613,"o":"m 467 156 q 363 35 413 81 q 345 28 356 28 q 328 35 335 28 q 321 53 321 43 q 329 71 321 64 q 436 199 379 118 q 357 306 388 267 q 351 323 350 313 q 360 340 353 333 q 378 346 368 347 q 396 336 389 344 q 467 242 425 300 q 538 340 511 307 q 553 350 543 349 q 572 345 564 351 q 582 328 581 339 q 576 310 583 318 l 497 199 l 500 194 q 606 60 563 107 q 613 42 613 53 q 605 25 613 32 q 587 18 597 18 q 569 26 576 18 q 467 156 525 74 z "},"":{"ha":583,"x_min":204,"x_max":774,"o":"m 632 535 q 610 576 622 558 q 494 664 563 650 l 485 664 l 476 664 l 460 664 q 442 658 446 663 q 358 515 396 610 q 308 317 321 419 q 315 138 297 214 q 632 535 475 371 m 651 483 q 336 79 492 313 q 407 4 363 28 q 513 -15 461 -25 q 642 106 596 -1 q 676 347 686 210 q 651 483 672 419 m 306 32 q 253 -56 276 -14 q 237 -67 247 -64 q 218 -65 226 -69 q 207 -49 210 -60 q 208 -31 204 -39 l 279 85 q 258 322 243 182 q 312 535 271 432 q 406 692 353 638 q 438 711 418 706 q 453 717 444 717 q 651 604 575 722 q 669 572 661 589 q 731 629 701 604 q 749 635 739 636 q 767 626 760 633 q 772 608 774 618 q 764 590 771 597 q 692 524 729 561 q 726 351 721 446 q 688 86 736 200 q 521 -65 632 -46 q 385 -40 453 -76 q 306 32 336 -15 z "},"":{"ha":542,"x_min":231,"x_max":731,"o":"m 304 654 q 299 589 303 642 l 289 489 q 282 375 285 442 q 282 253 281 311 q 313 50 285 118 q 392 -17 340 -22 q 444 38 413 -14 q 508 172 475 88 q 585 429 560 308 q 600 514 592 460 q 613 601 608 579 q 617 639 614 604 q 619 657 618 653 l 622 665 q 631 675 625 671 q 657 675 643 683 q 667 665 664 672 q 669 660 668 663 q 671 654 669 657 q 676 550 678 614 q 675 453 674 472 q 729 -24 692 136 q 725 -42 731 -33 q 710 -53 719 -51 q 691 -50 700 -56 q 679 -35 682 -44 q 628 393 644 124 q 556 156 597 268 q 488 11 521 64 q 397 -67 443 -61 q 265 32 307 -76 q 232 251 235 110 q 233 376 231 311 q 240 492 236 444 q 248 592 243 539 q 254 657 253 646 q 263 675 256 668 q 281 681 271 682 q 299 672 292 679 q 304 654 306 664 m 451 807 l 514 708 q 517 690 519 700 q 507 674 515 679 q 488 670 499 668 q 472 681 478 672 l 410 782 q 406 801 404 790 q 417 816 408 811 q 437 819 426 821 q 451 807 447 817 z "},"":{"ha":542,"x_min":231,"x_max":731,"o":"m 304 654 q 299 589 303 642 l 289 489 q 282 375 285 442 q 282 253 281 311 q 313 50 285 118 q 392 -17 340 -22 q 444 38 413 -14 q 508 172 475 88 q 585 429 560 308 q 600 514 592 460 q 613 601 608 579 q 617 639 614 604 q 619 657 618 653 l 622 665 q 631 675 625 671 q 657 675 643 683 q 667 665 664 672 q 669 660 668 663 q 671 654 669 657 q 676 550 678 614 q 675 453 674 472 q 729 -24 692 136 q 725 -42 731 -33 q 710 -53 719 -51 q 691 -50 700 -56 q 679 -35 682 -44 q 628 393 644 124 q 556 156 597 268 q 488 11 521 64 q 397 -67 443 -61 q 265 32 307 -76 q 232 251 235 110 q 233 376 231 311 q 240 492 236 444 q 248 592 243 539 q 254 657 253 646 q 263 675 256 668 q 281 681 271 682 q 299 672 292 679 q 304 654 306 664 m 418 739 q 449 756 433 744 q 475 775 465 767 l 504 803 l 533 832 q 551 839 540 839 q 568 831 561 839 q 575 813 575 824 q 567 796 575 803 l 540 769 q 509 738 521 749 q 476 713 497 728 q 435 692 456 699 q 416 693 425 689 q 403 707 407 697 q 404 726 400 717 q 418 739 408 735 z "},"":{"ha":542,"x_min":231,"x_max":731,"o":"m 304 654 q 299 589 303 642 l 289 489 q 282 375 285 442 q 282 253 281 311 q 313 50 285 118 q 392 -17 340 -22 q 444 38 413 -14 q 508 172 475 88 q 585 429 560 308 q 600 514 592 460 q 613 601 608 579 q 617 639 614 604 q 619 657 618 653 l 622 665 q 631 675 625 671 q 657 675 643 683 q 667 665 664 672 q 669 660 668 663 q 671 654 669 657 q 676 550 678 614 q 675 453 674 472 q 729 -24 692 136 q 725 -42 731 -33 q 710 -53 719 -51 q 691 -50 700 -56 q 679 -35 682 -44 q 628 393 644 124 q 556 156 597 268 q 488 11 521 64 q 397 -67 443 -61 q 265 32 307 -76 q 232 251 235 110 q 233 376 231 311 q 240 492 236 444 q 248 592 243 539 q 254 657 253 646 q 263 675 256 668 q 281 681 271 682 q 299 672 292 679 q 304 654 306 664 m 378 750 l 431 810 q 465 847 451 833 l 478 860 q 485 865 482 864 l 490 868 q 504 871 497 871 q 514 868 510 871 q 521 863 518 865 l 522 861 q 526 854 524 858 q 533 842 529 850 l 550 804 q 585 736 575 749 q 590 717 592 728 q 581 701 589 707 q 562 696 572 694 q 546 706 551 697 q 504 785 531 725 l 494 806 l 468 776 l 417 717 q 399 708 410 710 q 381 714 389 707 q 372 731 374 721 q 378 750 371 742 z "},"":{"ha":542,"x_min":231,"x_max":731,"o":"m 304 654 q 299 589 303 642 l 289 489 q 282 375 285 442 q 282 253 281 311 q 313 50 285 118 q 392 -17 340 -22 q 444 38 413 -14 q 508 172 475 88 q 585 429 560 308 q 600 514 592 460 q 613 601 608 579 q 617 639 614 604 q 619 657 618 653 l 622 665 q 631 675 625 671 q 657 675 643 683 q 667 665 664 672 q 669 660 668 663 q 671 654 669 657 q 676 550 678 614 q 675 453 674 472 q 729 -24 692 136 q 725 -42 731 -33 q 710 -53 719 -51 q 691 -50 700 -56 q 679 -35 682 -44 q 628 393 644 124 q 556 156 597 268 q 488 11 521 64 q 397 -67 443 -61 q 265 32 307 -76 q 232 251 235 110 q 233 376 231 311 q 240 492 236 444 q 248 592 243 539 q 254 657 253 646 q 263 675 256 668 q 281 681 271 682 q 299 672 292 679 q 304 654 306 664 m 426 770 q 430 766 426 770 q 433 753 433 763 q 426 735 433 743 q 408 728 418 728 q 391 735 399 728 q 383 753 383 743 q 391 770 383 763 q 408 778 399 778 q 426 770 418 778 m 540 762 q 543 758 540 762 q 547 744 547 754 q 540 727 547 735 q 522 719 532 719 q 505 727 513 719 q 497 744 497 735 q 505 762 497 754 q 522 769 513 769 q 540 762 532 769 z "},"":{"ha":482,"x_min":285,"x_max":674,"o":"m 381 644 q 339 365 346 513 q 350 219 335 272 q 397 164 365 167 q 442 197 415 163 q 500 300 469 232 q 532 378 517 336 l 560 460 q 576 506 574 499 q 607 592 592 546 l 615 619 l 618 628 l 619 629 l 619 631 l 619 632 q 621 635 621 633 q 625 639 622 638 q 633 646 628 643 q 660 640 649 651 q 668 626 665 635 q 671 617 669 622 q 674 593 672 608 q 672 525 674 578 q 663 322 671 450 q 646 -32 643 4 q 640 -49 646 -42 q 623 -58 633 -57 q 605 -52 613 -58 q 596 -35 597 -46 q 613 325 594 -8 q 621 482 618 425 q 546 279 564 319 q 482 167 514 206 q 392 114 438 110 q 303 206 326 121 q 289 368 285 267 q 333 658 296 521 q 344 673 336 668 q 363 675 353 678 q 378 664 374 672 q 381 644 383 656 m 499 701 q 603 790 561 738 q 619 800 608 799 q 638 795 629 801 q 647 778 646 789 q 642 760 649 768 q 524 657 594 699 q 505 656 515 653 q 490 667 494 658 q 488 685 485 675 q 499 701 490 696 z "},"":{"ha":578,"x_min":363,"x_max":769,"o":"m 439 143 q 414 -19 431 57 q 402 -35 411 -29 q 383 -38 393 -40 q 368 -27 374 -36 q 364 -8 363 -18 q 364 679 432 297 q 368 697 363 689 q 384 708 374 706 q 403 704 394 710 q 414 688 411 699 q 435 539 426 614 q 551 597 481 586 q 658 585 607 606 q 739 515 710 565 q 766 416 769 465 q 741 328 763 367 q 682 256 719 290 q 565 181 632 211 q 439 143 499 150 m 443 193 q 550 228 493 201 q 649 293 607 254 q 694 490 754 388 q 638 540 675 525 q 558 549 601 554 q 485 517 517 542 q 443 456 454 492 l 443 453 q 443 193 451 318 z "},"":{"ha":590,"x_min":257,"x_max":786,"o":"m 269 -71 q 339 63 329 -32 q 329 263 344 121 q 322 467 314 406 q 425 614 339 576 q 491 631 451 626 q 561 626 531 635 q 629 551 624 607 q 607 458 632 515 q 585 414 600 443 l 564 371 q 550 314 547 329 q 579 300 551 308 q 591 297 585 299 q 604 292 597 294 l 618 289 q 664 274 646 281 q 750 206 722 249 q 776 63 786 151 q 733 -49 769 6 q 646 -133 696 -104 q 535 -154 589 -167 q 436 -71 474 -139 q 435 -51 432 -61 q 447 -37 438 -42 q 465 -35 456 -32 q 481 -46 475 -37 q 546 -106 507 -96 q 621 -90 581 -112 q 692 -22 661 -67 q 726 68 722 22 q 708 179 735 139 q 644 228 689 208 q 604 240 629 233 q 590 244 599 242 l 576 250 q 564 253 569 251 q 503 303 510 269 q 518 390 494 335 l 540 433 l 561 478 q 579 547 581 524 q 547 579 576 569 q 497 581 529 585 q 444 569 464 578 q 372 460 385 542 q 379 268 364 404 q 389 57 396 121 q 297 -112 376 -60 q 278 -116 289 -118 q 263 -106 268 -114 q 259 -87 257 -97 q 269 -71 261 -76 z "},"":{"ha":388,"x_min":233,"x_max":586,"o":"m 533 386 q 432 342 486 390 q 342 215 381 294 q 294 76 303 140 q 306 6 286 18 q 333 -4 319 -6 q 363 14 347 -1 q 429 126 394 46 q 482 265 449 172 l 500 317 q 508 335 506 328 q 525 351 515 347 q 556 346 543 360 q 560 338 558 342 l 563 329 q 564 314 564 324 q 567 269 565 296 q 568 207 568 225 l 568 199 l 568 197 l 568 196 l 568 194 l 568 193 q 571 142 569 181 q 585 -21 575 49 q 580 -39 586 -31 q 563 -49 574 -47 q 544 -44 553 -50 q 535 -26 536 -37 q 521 139 525 44 q 518 190 519 178 l 518 193 l 518 196 l 518 200 l 518 203 l 518 207 l 518 217 q 475 107 494 149 q 397 -21 436 17 q 342 -53 371 -49 q 275 -36 307 -58 q 244 83 233 -4 q 297 238 254 156 q 399 378 340 324 q 539 436 468 442 q 556 427 549 435 q 561 409 563 419 q 552 392 560 399 q 533 386 544 385 m 472 592 q 554 510 514 543 q 563 492 561 503 q 557 474 564 482 q 540 465 550 467 q 521 471 529 464 q 433 558 479 507 q 428 577 428 567 q 437 594 429 588 q 455 599 444 600 q 472 592 465 599 z "},"":{"ha":388,"x_min":233,"x_max":586,"o":"m 533 386 q 432 342 486 390 q 342 215 381 294 q 294 76 303 140 q 306 6 286 18 q 333 -4 319 -6 q 363 14 347 -1 q 429 126 394 46 q 482 265 449 172 l 500 317 q 508 335 506 328 q 525 351 515 347 q 556 346 543 360 q 560 338 558 342 l 563 329 q 564 314 564 324 q 567 269 565 296 q 568 207 568 225 l 568 199 l 568 197 l 568 196 l 568 194 l 568 193 q 571 142 569 181 q 585 -21 575 49 q 580 -39 586 -31 q 563 -49 574 -47 q 544 -44 553 -50 q 535 -26 536 -37 q 521 139 525 44 q 518 190 519 178 l 518 193 l 518 196 l 518 200 l 518 203 l 518 207 l 518 217 q 475 107 494 149 q 397 -21 436 17 q 342 -53 371 -49 q 275 -36 307 -58 q 244 83 233 -4 q 297 238 254 156 q 399 378 340 324 q 539 436 468 442 q 556 427 549 435 q 561 409 563 419 q 552 392 560 399 q 533 386 544 385 m 422 482 q 501 585 463 522 q 516 597 506 594 q 535 594 526 599 q 547 578 544 589 q 543 560 549 568 q 458 446 503 490 q 440 439 450 439 q 423 447 431 439 q 415 464 415 454 q 422 482 415 474 z "},"":{"ha":404,"x_min":233,"x_max":603,"o":"m 533 386 q 432 342 486 390 q 342 215 381 294 q 294 76 303 140 q 306 6 286 18 q 333 -4 319 -6 q 363 14 347 -1 q 429 126 394 46 q 482 265 449 172 l 500 317 q 508 335 506 328 q 525 351 515 347 q 556 346 543 360 q 560 338 558 342 l 563 329 q 564 314 564 324 q 567 269 565 296 q 568 207 568 225 l 568 199 l 568 197 l 568 196 l 568 194 l 568 193 q 571 142 569 181 q 585 -21 575 49 q 580 -39 586 -31 q 563 -49 574 -47 q 544 -44 553 -50 q 535 -26 536 -37 q 521 139 525 44 q 518 190 519 178 l 518 193 l 518 196 l 518 200 l 518 203 l 518 207 l 518 217 q 475 107 494 149 q 397 -21 436 17 q 342 -53 371 -49 q 275 -36 307 -58 q 244 83 233 -4 q 297 238 254 156 q 399 378 340 324 q 539 436 468 442 q 556 427 549 435 q 561 409 563 419 q 552 392 560 399 q 533 386 544 385 m 393 497 l 446 572 q 463 594 456 589 q 492 610 476 610 q 521 594 507 610 q 539 571 528 588 q 596 488 581 508 q 601 469 603 479 q 592 452 600 458 q 573 447 583 446 q 557 457 563 449 q 497 543 540 479 l 492 551 l 488 544 q 432 467 454 494 q 416 457 426 458 q 397 462 406 456 q 388 478 389 468 q 393 497 386 489 z "},"":{"ha":419,"x_min":233,"x_max":618,"o":"m 533 386 q 432 342 486 390 q 342 215 381 294 q 294 76 303 140 q 306 6 286 18 q 333 -4 319 -6 q 363 14 347 -1 q 429 126 394 46 q 482 265 449 172 l 500 317 q 508 335 506 328 q 525 351 515 347 q 556 346 543 360 q 560 338 558 342 l 563 329 q 564 314 564 324 q 567 269 565 296 q 568 207 568 225 l 568 199 l 568 197 l 568 196 l 568 194 l 568 193 q 571 142 569 181 q 585 -21 575 49 q 580 -39 586 -31 q 563 -49 574 -47 q 544 -44 553 -50 q 535 -26 536 -37 q 521 139 525 44 q 518 190 519 178 l 518 193 l 518 196 l 518 200 l 518 203 l 518 207 l 518 217 q 475 107 494 149 q 397 -21 436 17 q 342 -53 371 -49 q 275 -36 307 -58 q 244 83 233 -4 q 297 238 254 156 q 399 378 340 324 q 539 436 468 442 q 556 427 549 435 q 561 409 563 419 q 552 392 560 399 q 533 386 544 385 m 386 499 q 413 550 399 533 q 453 572 431 571 q 490 558 471 572 q 515 535 500 551 q 549 507 540 510 l 554 510 q 569 533 561 515 q 583 546 574 543 q 603 544 593 549 q 615 531 613 540 q 614 511 618 521 q 538 458 582 449 q 479 500 515 464 q 461 518 467 514 q 454 522 456 521 l 451 518 q 433 482 443 508 q 420 468 429 472 q 401 467 411 464 q 388 480 392 471 q 386 499 383 489 z "},"":{"ha":388,"x_min":233,"x_max":586,"o":"m 533 386 q 432 342 486 390 q 342 215 381 294 q 294 76 303 140 q 306 6 286 18 q 333 -4 319 -6 q 363 14 347 -1 q 429 126 394 46 q 482 265 449 172 l 500 317 q 508 335 506 328 q 525 351 515 347 q 556 346 543 360 q 560 338 558 342 l 563 329 q 564 314 564 324 q 567 269 565 296 q 568 207 568 225 l 568 199 l 568 197 l 568 196 l 568 194 l 568 193 q 571 142 569 181 q 585 -21 575 49 q 580 -39 586 -31 q 563 -49 574 -47 q 544 -44 553 -50 q 535 -26 536 -37 q 521 139 525 44 q 518 190 519 178 l 518 193 l 518 196 l 518 200 l 518 203 l 518 207 l 518 217 q 475 107 494 149 q 397 -21 436 17 q 342 -53 371 -49 q 275 -36 307 -58 q 244 83 233 -4 q 297 238 254 156 q 399 378 340 324 q 539 436 468 442 q 556 427 549 435 q 561 409 563 419 q 552 392 560 399 q 533 386 544 385 m 477 523 q 481 519 477 523 q 485 506 485 515 q 477 488 485 496 q 460 481 469 481 q 442 488 450 481 q 435 506 435 496 q 442 523 435 515 q 460 531 450 531 q 477 523 469 531 m 566 523 q 570 519 566 523 q 574 506 574 515 q 566 488 574 496 q 549 481 558 481 q 531 488 539 481 q 524 506 524 496 q 531 523 524 515 q 549 531 539 531 q 566 523 558 531 z "},"":{"ha":388,"x_min":233,"x_max":588,"o":"m 544 490 q 451 460 496 451 q 393 513 410 469 q 385 565 385 538 q 404 617 386 592 q 454 653 422 642 q 529 651 496 668 q 576 599 563 633 q 579 540 588 572 q 544 490 571 508 m 533 386 q 432 342 486 390 q 342 215 381 294 q 294 76 303 140 q 306 6 286 18 q 333 -4 319 -6 q 363 14 347 -1 q 429 126 394 46 q 482 265 449 172 l 500 317 q 508 335 506 328 q 525 351 515 347 q 556 346 543 360 q 560 338 558 342 l 563 329 q 564 314 564 324 q 567 269 565 296 q 568 207 568 225 l 568 199 l 568 197 l 568 196 l 568 194 l 568 193 q 571 142 569 181 q 585 -21 575 49 q 580 -39 586 -31 q 563 -49 574 -47 q 544 -44 553 -50 q 535 -26 536 -37 q 521 139 525 44 q 518 190 519 178 l 518 193 l 518 196 l 518 200 l 518 203 l 518 207 l 518 217 q 475 107 494 149 q 397 -21 436 17 q 342 -53 371 -49 q 275 -36 307 -58 q 244 83 233 -4 q 297 238 254 156 q 399 378 340 324 q 539 436 468 442 q 556 427 549 435 q 561 409 563 419 q 552 392 560 399 q 533 386 544 385 m 504 525 q 530 549 524 532 q 529 581 536 567 q 508 605 524 597 q 471 606 492 613 q 438 574 447 597 q 439 532 429 551 q 463 510 447 513 q 493 515 475 507 q 504 525 497 522 z "},"":{"ha":596,"x_min":233,"x_max":794,"o":"m 721 285 q 722 293 722 288 q 718 328 724 307 q 676 404 706 375 q 651 418 663 415 q 631 413 642 419 q 567 268 593 385 l 567 254 q 608 259 578 256 q 651 265 638 263 q 721 285 703 274 m 576 178 q 581 142 578 167 q 585 103 583 117 q 592 70 588 89 q 601 38 596 51 q 635 -1 618 1 q 671 18 649 -3 q 744 135 714 58 q 758 148 749 144 q 778 148 768 151 q 791 135 788 144 q 792 115 794 125 q 706 -18 756 31 q 629 -50 667 -56 q 557 18 585 -44 q 531 138 540 56 q 528 147 528 142 q 521 204 526 165 q 519 219 519 213 q 475 107 494 150 q 397 -21 436 17 q 342 -53 371 -49 q 275 -36 307 -58 q 244 83 233 -4 q 297 238 254 156 q 399 378 340 324 q 539 436 468 442 q 556 427 549 435 q 561 409 563 419 q 552 392 560 399 q 533 386 544 385 q 432 342 486 390 q 342 215 381 294 q 294 76 303 140 q 306 6 286 18 q 333 -4 319 -6 q 363 14 347 -1 q 429 126 394 46 q 482 265 449 172 l 500 317 q 508 335 506 328 q 525 351 515 347 q 540 356 532 356 q 601 453 565 425 q 661 467 629 472 q 710 440 686 463 q 767 340 750 403 q 772 289 775 311 q 749 243 769 257 q 660 215 721 225 q 615 210 644 214 q 575 204 586 207 l 572 204 q 575 183 574 192 q 576 178 576 181 z "},"":{"ha":374,"x_min":224,"x_max":572,"o":"m 408 -42 q 397 -65 397 -64 l 392 -81 q 404 -100 392 -86 l 414 -110 l 428 -122 q 436 -135 433 -129 q 446 -164 447 -149 q 426 -194 444 -183 q 336 -217 403 -210 q 317 -211 325 -218 q 308 -194 310 -204 q 314 -176 307 -183 q 331 -167 321 -168 q 390 -157 371 -162 q 381 -147 389 -154 q 368 -135 374 -140 q 342 -81 342 -106 q 351 -44 342 -68 l 354 -39 q 299 -7 324 -31 q 235 134 246 43 q 265 329 224 225 q 313 401 283 369 q 376 444 342 433 q 452 436 418 458 q 504 356 486 414 q 503 337 507 346 q 488 325 499 328 q 469 326 478 322 q 457 342 460 331 q 424 394 444 382 q 392 397 410 404 q 349 366 371 390 q 313 310 326 342 q 284 140 275 213 q 333 31 293 67 q 415 13 369 -4 q 524 125 472 33 q 539 136 529 133 q 558 134 549 139 q 569 119 567 129 q 568 100 572 110 q 432 -35 507 -8 q 410 -40 421 -39 l 408 -42 z "},"":{"ha":383,"x_min":217,"x_max":571,"o":"m 518 297 q 517 303 518 300 q 494 356 508 331 q 419 400 458 415 q 357 299 379 385 q 354 289 356 294 q 401 290 381 290 q 492 293 458 290 q 518 297 508 294 m 296 239 l 243 239 q 224 246 232 239 q 217 263 217 253 q 224 281 217 274 q 240 289 231 289 l 303 289 l 308 311 q 401 447 336 424 q 479 442 444 464 q 538 381 514 419 q 565 318 554 350 q 569 292 569 303 q 571 281 571 286 q 561 261 569 268 q 532 249 553 253 q 496 244 518 246 q 403 240 461 240 q 346 239 378 239 q 349 121 340 178 q 404 10 364 31 q 526 65 449 -12 q 544 72 535 72 q 562 65 554 72 q 569 47 569 57 q 563 29 569 38 q 381 -35 458 -74 q 300 113 318 -1 q 296 239 290 174 m 392 586 q 438 549 407 575 q 486 510 469 522 q 496 494 494 504 q 491 475 497 483 q 474 465 485 467 q 456 471 464 464 q 408 508 439 483 l 361 547 q 351 563 353 553 q 356 582 350 574 q 373 592 363 590 q 392 586 383 593 z "},"":{"ha":383,"x_min":217,"x_max":571,"o":"m 518 297 q 517 303 518 300 q 494 356 508 331 q 419 400 458 415 q 357 299 379 385 q 354 289 356 294 q 401 290 381 290 q 492 293 458 290 q 518 297 508 294 m 296 239 l 243 239 q 224 246 232 239 q 217 263 217 253 q 224 281 217 274 q 240 289 231 289 l 303 289 l 308 311 q 401 447 336 424 q 479 442 444 464 q 538 381 514 419 q 565 318 554 350 q 569 292 569 303 q 571 281 571 286 q 561 261 569 268 q 532 249 553 253 q 496 244 518 246 q 403 240 461 240 q 346 239 378 239 q 349 121 340 178 q 404 10 364 31 q 526 65 449 -12 q 544 72 535 72 q 562 65 554 72 q 569 47 569 57 q 563 29 569 38 q 381 -35 458 -74 q 300 113 318 -1 q 296 239 290 174 m 365 524 q 436 619 400 575 q 453 628 443 626 q 472 622 464 629 q 481 605 479 615 q 475 586 482 594 q 407 496 440 546 q 391 485 401 488 q 372 489 381 483 q 362 505 364 494 q 365 524 360 515 z "},"":{"ha":383,"x_min":217,"x_max":571,"o":"m 518 297 q 517 303 518 300 q 494 356 508 331 q 419 400 458 415 q 357 299 379 385 q 354 289 356 294 q 401 290 381 290 q 492 293 458 290 q 518 297 508 294 m 296 239 l 243 239 q 224 246 232 239 q 217 263 217 253 q 224 281 217 274 q 240 289 231 289 l 303 289 l 308 311 q 401 447 336 424 q 479 442 444 464 q 538 381 514 419 q 565 318 554 350 q 569 292 569 303 q 571 281 571 286 q 561 261 569 268 q 532 249 553 253 q 496 244 518 246 q 403 240 461 240 q 346 239 378 239 q 349 121 340 178 q 404 10 364 31 q 526 65 449 -12 q 544 72 535 72 q 562 65 554 72 q 569 47 569 57 q 563 29 569 38 q 381 -35 458 -74 q 300 113 318 -1 q 296 239 290 174 m 321 515 q 364 606 350 581 q 383 632 374 624 q 415 647 399 647 q 447 632 432 646 q 467 607 456 624 q 510 521 481 585 q 510 501 514 511 q 498 488 507 492 q 479 487 489 483 q 465 499 469 490 q 424 581 436 561 q 415 593 419 589 q 407 581 411 589 q 368 496 396 561 q 354 483 364 486 q 335 483 344 479 q 322 496 325 486 q 321 515 318 506 z "},"":{"ha":383,"x_min":217,"x_max":571,"o":"m 518 297 q 517 303 518 300 q 494 356 508 331 q 419 400 458 415 q 357 299 379 385 q 354 289 356 294 q 401 290 381 290 q 492 293 458 290 q 518 297 508 294 m 296 239 l 243 239 q 224 246 232 239 q 217 263 217 253 q 224 281 217 274 q 240 289 231 289 l 303 289 l 308 311 q 401 447 336 424 q 479 442 444 464 q 538 381 514 419 q 565 318 554 350 q 569 292 569 303 q 571 281 571 286 q 561 261 569 268 q 532 249 553 253 q 496 244 518 246 q 403 240 461 240 q 346 239 378 239 q 349 121 340 178 q 404 10 364 31 q 526 65 449 -12 q 544 72 535 72 q 562 65 554 72 q 569 47 569 57 q 563 29 569 38 q 381 -35 458 -74 q 300 113 318 -1 q 296 239 290 174 m 388 540 q 392 536 388 540 q 396 522 396 532 q 388 505 396 513 q 371 497 381 497 q 353 505 361 497 q 346 522 346 513 q 353 540 346 532 q 371 547 361 547 q 388 540 381 547 m 485 540 q 489 536 485 540 q 493 522 493 532 q 485 505 493 513 q 468 497 478 497 q 451 505 458 497 q 443 522 443 513 q 451 540 443 532 q 468 547 458 547 q 485 540 478 547 z "},"":{"ha":194,"x_min":238,"x_max":383,"o":"m 351 376 q 333 190 332 324 q 360 8 336 56 q 361 -11 364 -1 q 349 -25 358 -21 q 329 -26 339 -29 q 315 -14 319 -24 q 283 190 286 43 q 304 393 281 332 q 317 407 308 403 q 336 408 326 411 q 350 395 346 404 q 351 376 354 386 m 283 590 q 372 497 321 539 q 382 480 381 490 q 376 462 383 469 q 359 453 369 454 q 342 458 349 451 q 244 560 285 504 q 239 578 238 568 q 249 595 240 589 q 267 600 257 601 q 283 590 278 599 z "},"":{"ha":203,"x_min":274,"x_max":392,"o":"m 351 376 q 333 190 332 324 q 360 8 336 56 q 361 -11 364 -1 q 349 -25 358 -21 q 329 -26 339 -29 q 315 -14 319 -24 q 283 190 286 43 q 304 393 281 332 q 317 407 308 403 q 336 408 326 411 q 350 395 346 404 q 351 376 354 386 m 279 476 q 311 528 289 490 q 344 583 331 564 q 362 593 351 592 q 381 588 372 594 q 390 572 389 582 q 386 553 392 561 q 354 503 372 536 l 321 449 q 305 438 315 440 q 286 442 294 436 q 276 458 278 447 q 279 476 274 468 z "},"":{"ha":225,"x_min":254,"x_max":415,"o":"m 353 376 q 335 190 333 324 q 361 8 338 56 q 363 -11 365 -1 q 350 -25 360 -21 q 331 -26 340 -29 q 317 -14 321 -24 q 285 190 288 43 q 306 393 282 332 q 319 407 310 403 q 338 408 328 411 q 351 395 347 404 q 353 376 356 386 m 258 458 q 273 493 265 476 q 287 525 281 510 q 296 546 293 540 q 307 571 303 563 q 338 589 319 590 q 365 569 354 589 q 376 546 369 563 q 411 467 401 486 q 412 447 415 457 q 399 433 408 438 q 381 433 390 429 q 367 444 371 436 q 336 514 353 474 l 303 439 q 289 426 299 429 q 270 426 279 422 q 258 440 261 431 q 258 458 254 450 z "},"":{"ha":206,"x_min":267,"x_max":392,"o":"m 350 376 q 332 190 331 324 q 358 8 335 56 q 360 -11 363 -1 q 347 -25 357 -21 q 328 -26 338 -29 q 314 -14 318 -24 q 282 190 285 43 q 303 393 279 332 q 316 407 307 403 q 335 408 325 411 q 349 395 344 404 q 350 376 353 386 m 309 495 q 313 491 309 495 q 317 478 317 488 q 309 460 317 468 q 292 453 301 453 q 274 460 282 453 q 267 478 267 468 q 274 495 267 488 q 292 503 282 503 q 309 495 301 503 m 384 499 q 388 495 384 499 q 392 482 392 492 q 384 465 392 472 q 367 457 376 457 q 349 465 357 457 q 342 482 342 472 q 349 499 342 492 q 367 507 357 507 q 384 499 376 507 z "},"":{"ha":438,"x_min":256,"x_max":643,"o":"m 549 363 q 346 213 415 310 q 313 138 318 175 q 322 81 308 100 q 439 58 351 28 q 564 172 536 92 q 558 336 590 244 q 549 363 554 350 m 472 478 l 401 403 q 383 396 393 396 q 366 403 374 396 q 358 421 358 411 q 365 439 358 431 l 435 510 q 328 550 381 550 q 310 558 318 550 q 303 575 303 565 q 310 592 303 585 q 328 600 318 600 q 468 547 399 600 l 532 619 q 549 627 539 626 q 567 622 560 628 q 576 605 575 615 q 571 586 576 594 l 506 514 q 574 425 544 475 q 599 432 586 429 q 617 430 608 435 q 629 415 626 425 q 627 397 632 406 q 613 385 622 388 l 596 379 q 606 353 601 367 q 611 156 643 244 q 456 11 575 53 q 349 3 396 -10 q 278 56 301 15 q 263 144 256 94 q 304 243 271 194 q 525 407 382 350 q 472 478 503 446 z "},"":{"ha":458,"x_min":256,"x_max":644,"o":"m 306 429 q 306 384 306 426 q 308 290 307 342 q 311 192 310 238 l 313 172 q 365 296 335 240 q 488 411 421 393 q 551 403 522 421 q 592 356 575 389 q 631 210 618 307 q 638 144 635 178 q 642 79 640 111 q 644 24 643 47 q 644 -25 644 0 l 644 -53 q 638 -70 644 -62 q 620 -78 631 -78 q 602 -71 610 -78 q 594 -53 594 -64 l 594 -14 q 592 51 593 24 q 589 122 592 78 q 581 203 586 167 q 547 332 569 290 q 524 361 536 353 q 501 364 514 367 q 410 271 454 350 q 353 135 374 208 l 353 131 l 350 118 l 342 78 q 329 14 331 19 q 328 10 329 13 q 328 1 328 7 l 328 -10 q 326 -26 328 -21 q 321 -36 324 -32 q 300 -44 313 -44 q 288 -42 293 -44 q 281 -35 282 -39 l 278 -32 q 274 -22 275 -28 q 272 -15 272 -19 q 271 0 271 -10 q 267 49 269 18 q 261 190 264 100 q 259 288 260 236 q 257 383 258 340 q 256 429 256 425 q 263 447 256 439 q 280 454 269 454 q 298 447 290 454 q 306 429 306 440 m 338 515 q 372 578 356 557 q 418 600 393 603 q 456 578 439 599 q 476 547 464 569 q 493 524 488 529 l 499 518 l 504 522 q 533 571 517 536 q 547 583 538 579 q 566 582 557 586 q 578 568 575 578 q 578 549 582 558 q 540 489 558 508 q 493 468 518 464 q 456 490 472 469 q 435 521 447 500 q 418 546 422 540 q 414 549 415 547 l 411 546 q 385 496 399 531 q 371 483 381 486 q 351 483 361 479 q 338 496 342 486 q 338 515 335 506 z "},"":{"ha":375,"x_min":238,"x_max":581,"o":"m 408 385 q 344 333 372 375 q 299 203 308 281 q 311 68 289 126 q 379 0 333 10 q 474 31 436 -14 q 521 154 513 75 q 502 299 529 235 q 419 379 475 364 q 408 385 414 381 m 453 419 q 551 313 522 392 q 571 149 581 235 q 513 -1 560 54 q 368 -50 454 -69 q 264 50 296 -32 q 249 209 238 119 q 303 361 260 299 q 428 439 353 436 q 453 419 449 440 m 365 569 q 450 503 415 525 q 462 488 460 499 q 459 469 464 478 q 444 458 454 460 q 425 461 433 456 q 332 533 386 485 q 324 551 324 540 q 331 569 324 561 q 348 576 338 576 q 365 569 358 576 z "},"":{"ha":375,"x_min":238,"x_max":581,"o":"m 408 385 q 344 333 372 375 q 299 203 308 281 q 311 68 289 126 q 379 0 333 10 q 474 31 436 -14 q 521 154 513 75 q 502 299 529 235 q 419 379 475 364 q 408 385 414 381 m 453 419 q 551 313 522 392 q 571 149 581 235 q 513 -1 560 54 q 368 -50 454 -69 q 264 50 296 -32 q 249 209 238 119 q 303 361 260 299 q 428 439 353 436 q 453 419 449 440 m 342 521 q 417 611 369 547 q 433 621 422 619 q 451 616 443 622 q 461 599 460 610 q 456 581 463 589 q 375 485 407 514 q 358 478 368 478 q 340 485 347 478 q 333 503 333 493 q 342 521 333 514 z "},"":{"ha":375,"x_min":238,"x_max":581,"o":"m 408 385 q 344 333 372 375 q 299 203 308 281 q 311 68 289 126 q 379 0 333 10 q 474 31 436 -14 q 521 154 513 75 q 502 299 529 235 q 419 379 475 364 q 408 385 414 381 m 453 419 q 551 313 522 392 q 571 149 581 235 q 513 -1 560 54 q 368 -50 454 -69 q 264 50 296 -32 q 249 209 238 119 q 303 361 260 299 q 428 439 353 436 q 453 419 449 440 m 303 513 l 332 561 q 354 596 349 588 q 372 618 364 611 q 407 628 388 633 q 429 610 419 624 q 444 586 435 603 q 496 513 471 543 q 501 494 503 504 q 492 478 500 485 q 474 472 483 471 q 457 482 464 474 q 403 560 431 515 l 396 569 l 396 568 q 374 533 390 561 q 344 485 358 506 q 329 474 339 476 q 310 478 319 472 q 299 493 301 483 q 303 513 297 503 z "},"":{"ha":375,"x_min":238,"x_max":581,"o":"m 408 385 q 344 333 372 375 q 299 203 308 281 q 311 68 289 126 q 379 0 333 10 q 474 31 436 -14 q 521 154 513 75 q 502 299 529 235 q 419 379 475 364 q 408 385 414 381 m 453 419 q 551 313 522 392 q 571 149 581 235 q 513 -1 560 54 q 368 -50 454 -69 q 264 50 296 -32 q 249 209 238 119 q 303 361 260 299 q 428 439 353 436 q 453 419 449 440 m 293 496 q 294 506 293 497 q 297 522 296 515 q 301 538 299 528 q 308 555 304 547 q 319 569 313 563 q 360 592 339 590 q 396 574 381 593 q 422 519 403 565 q 425 513 425 515 q 429 518 428 515 q 457 568 440 533 q 471 580 461 576 q 490 579 481 583 q 502 565 499 575 q 501 546 506 556 q 469 488 483 508 q 435 460 453 465 q 393 471 411 451 q 378 499 385 481 q 369 514 374 506 l 364 529 q 360 539 363 535 l 356 536 q 343 488 350 529 q 333 472 342 478 q 314 467 324 465 q 298 477 304 468 q 293 496 292 486 z "},"":{"ha":375,"x_min":238,"x_max":581,"o":"m 408 385 q 344 333 372 375 q 299 203 308 281 q 311 68 289 126 q 379 0 333 10 q 474 31 436 -14 q 521 154 513 75 q 502 299 529 235 q 419 379 475 364 q 408 385 414 381 m 453 419 q 551 313 522 392 q 571 149 581 235 q 513 -1 560 54 q 368 -50 454 -69 q 264 50 296 -32 q 249 209 238 119 q 303 361 260 299 q 428 439 353 436 q 453 419 449 440 m 353 542 q 357 539 353 542 q 361 525 361 535 q 353 508 361 515 q 336 500 346 500 q 319 508 326 500 q 311 525 311 515 q 319 542 311 535 q 336 550 326 550 q 353 542 346 550 m 469 535 q 473 532 469 535 q 476 518 476 528 q 469 501 476 508 q 451 493 461 493 q 434 501 442 493 q 426 518 426 508 q 434 535 426 528 q 451 543 442 543 q 469 535 461 543 z "},"":{"ha":439,"x_min":311,"x_max":625,"o":"m 336 283 q 468 287 381 283 q 600 290 556 290 q 617 283 610 290 q 625 265 625 275 q 617 248 625 256 q 600 240 610 240 q 468 237 556 240 q 336 233 381 233 q 319 241 326 233 q 311 258 311 249 q 319 276 311 268 q 336 283 326 283 m 488 366 q 492 362 488 366 q 496 349 496 358 q 488 331 496 339 q 471 324 481 324 q 453 331 461 324 q 446 349 446 339 q 453 366 446 358 q 471 374 461 374 q 488 366 481 374 m 494 205 q 498 201 494 205 q 501 188 501 197 q 494 170 501 178 q 476 163 486 163 q 459 170 467 163 q 451 188 451 178 q 459 205 451 197 q 476 213 467 213 q 494 205 486 213 z "},"":{"ha":394,"x_min":181,"x_max":581,"o":"m 500 275 l 442 206 l 369 118 q 308 50 339 82 q 368 0 331 8 q 463 31 425 -14 q 510 154 501 75 q 500 275 517 219 m 397 385 q 333 333 361 375 q 288 203 297 281 q 290 104 281 150 l 392 224 l 478 325 q 408 379 450 367 q 397 385 403 381 m 442 419 q 511 364 483 403 l 538 392 q 555 400 544 400 q 573 393 565 400 q 581 376 581 386 q 574 358 581 365 l 538 318 q 560 149 569 242 q 501 -1 549 54 q 357 -50 443 -69 q 272 13 304 -37 l 222 -33 q 203 -38 214 -39 q 187 -30 193 -37 q 181 -12 181 -22 q 189 6 182 -1 q 249 61 219 31 q 238 210 228 128 q 292 361 249 299 q 417 439 342 436 q 442 419 438 440 z "},"":{"ha":415,"x_min":229,"x_max":606,"o":"m 306 419 q 303 398 304 413 q 299 361 301 383 q 293 322 296 339 q 282 181 283 239 q 292 56 279 99 q 327 11 304 13 q 373 33 350 10 q 417 106 396 57 q 471 274 435 146 q 494 378 486 331 l 494 381 l 494 383 l 494 392 q 497 408 494 401 q 515 425 501 422 q 538 421 528 428 q 544 415 542 418 q 547 410 546 413 l 547 408 q 548 405 547 407 q 550 400 549 403 q 551 388 550 396 q 557 344 554 372 l 575 215 q 604 -6 600 15 q 600 -24 606 -15 q 584 -34 594 -32 q 565 -31 574 -36 q 554 -14 557 -25 q 525 208 550 7 l 518 260 q 463 86 482 131 q 410 -1 438 29 q 324 -39 369 -43 q 244 42 265 -33 q 232 182 229 92 q 243 328 233 246 q 249 367 246 344 q 253 403 251 389 q 256 425 256 417 q 265 442 257 435 q 283 447 272 449 q 300 438 293 446 q 306 419 307 431 m 354 583 q 386 557 360 579 l 428 522 q 438 506 436 517 q 433 488 439 496 q 416 478 426 479 q 397 483 406 476 q 355 517 382 494 q 324 544 328 540 q 314 562 315 551 q 319 580 313 572 q 337 589 326 588 q 354 583 347 590 z "},"":{"ha":415,"x_min":229,"x_max":606,"o":"m 306 419 q 303 398 304 413 q 299 361 301 383 q 293 322 296 339 q 282 181 283 239 q 292 56 279 99 q 327 11 304 13 q 373 33 350 10 q 417 106 396 57 q 471 274 435 146 q 494 378 486 331 l 494 381 l 494 383 l 494 392 q 497 408 494 401 q 515 425 501 422 q 538 421 528 428 q 544 415 542 418 q 547 410 546 413 l 547 408 q 548 405 547 407 q 550 400 549 403 q 551 388 550 396 q 557 344 554 372 l 575 215 q 604 -6 600 15 q 600 -24 606 -15 q 584 -34 594 -32 q 565 -31 574 -36 q 554 -14 557 -25 q 525 208 550 7 l 518 260 q 463 86 482 131 q 410 -1 438 29 q 324 -39 369 -43 q 244 42 265 -33 q 232 182 229 92 q 243 328 233 246 q 249 367 246 344 q 253 403 251 389 q 256 425 256 417 q 265 442 257 435 q 283 447 272 449 q 300 438 293 446 q 306 419 307 431 m 363 521 q 424 600 385 542 q 440 610 429 608 q 458 607 450 613 q 469 591 467 601 q 465 572 471 581 q 396 485 424 510 q 378 478 389 478 q 361 485 368 478 q 354 503 354 493 q 363 521 354 514 z "},"":{"ha":415,"x_min":229,"x_max":606,"o":"m 306 419 q 303 398 304 413 q 299 361 301 383 q 293 322 296 339 q 282 181 283 239 q 292 56 279 99 q 327 11 304 13 q 373 33 350 10 q 417 106 396 57 q 471 274 435 146 q 494 378 486 331 l 494 381 l 494 383 l 494 392 q 497 408 494 401 q 515 425 501 422 q 538 421 528 428 q 544 415 542 418 q 547 410 546 413 l 547 408 q 548 405 547 407 q 550 400 549 403 q 551 388 550 396 q 557 344 554 372 l 575 215 q 604 -6 600 15 q 600 -24 606 -15 q 584 -34 594 -32 q 565 -31 574 -36 q 554 -14 557 -25 q 525 208 550 7 l 518 260 q 463 86 482 131 q 410 -1 438 29 q 324 -39 369 -43 q 244 42 265 -33 q 232 182 229 92 q 243 328 233 246 q 249 367 246 344 q 253 403 251 389 q 256 425 256 417 q 265 442 257 435 q 283 447 272 449 q 300 438 293 446 q 306 419 307 431 m 331 507 q 379 561 360 531 q 392 582 383 565 q 404 600 399 594 q 422 608 413 607 q 443 604 432 610 q 461 583 451 599 q 472 567 465 578 l 489 539 l 510 506 q 513 486 515 496 q 502 471 511 476 q 483 467 493 465 q 468 478 474 469 l 428 544 l 421 535 q 364 468 399 497 q 345 463 356 461 q 328 472 335 464 q 322 490 321 479 q 331 507 324 500 z "},"":{"ha":415,"x_min":229,"x_max":606,"o":"m 306 419 q 303 398 304 413 q 299 361 301 383 q 293 322 296 339 q 282 181 283 239 q 292 56 279 99 q 327 11 304 13 q 373 33 350 10 q 417 106 396 57 q 471 274 435 146 q 494 378 486 331 l 494 381 l 494 383 l 494 392 q 497 408 494 401 q 515 425 501 422 q 538 421 528 428 q 544 415 542 418 q 547 410 546 413 l 547 408 q 548 405 547 407 q 550 400 549 403 q 551 388 550 396 q 557 344 554 372 l 575 215 q 604 -6 600 15 q 600 -24 606 -15 q 584 -34 594 -32 q 565 -31 574 -36 q 554 -14 557 -25 q 525 208 550 7 l 518 260 q 463 86 482 131 q 410 -1 438 29 q 324 -39 369 -43 q 244 42 265 -33 q 232 182 229 92 q 243 328 233 246 q 249 367 246 344 q 253 403 251 389 q 256 425 256 417 q 265 442 257 435 q 283 447 272 449 q 300 438 293 446 q 306 419 307 431 m 381 553 q 385 550 381 553 q 389 536 389 546 q 381 519 389 526 q 364 511 374 511 q 347 519 354 511 q 339 536 339 526 q 347 553 339 546 q 364 561 354 561 q 381 553 374 561 m 472 555 q 475 551 472 555 q 479 538 479 547 q 472 520 479 528 q 454 513 464 513 q 437 520 444 513 q 429 538 429 528 q 437 555 429 547 q 454 563 444 563 q 472 555 464 563 z "},"":{"ha":397,"x_min":274,"x_max":583,"o":"m 381 467 q 463 574 424 531 q 479 582 469 582 q 497 575 489 582 q 506 558 506 568 q 499 540 506 549 q 422 439 464 501 q 406 428 417 431 q 388 432 396 426 q 377 448 379 438 q 381 467 375 458 m 335 426 q 331 329 336 415 q 324 186 325 238 q 335 63 324 103 q 349 35 340 43 q 357 33 351 32 q 387 66 368 35 q 426 151 406 97 q 481 314 443 193 q 494 361 485 331 q 507 404 503 392 q 508 408 507 406 q 508 414 508 410 q 510 422 508 418 q 514 438 511 432 q 515 442 514 439 q 524 449 517 444 q 542 451 531 453 q 553 447 549 450 q 560 439 558 443 l 561 436 q 565 418 564 431 q 568 396 567 410 q 571 325 569 369 q 578 115 575 247 q 583 -247 583 -140 q 576 -265 583 -257 q 558 -272 568 -272 q 541 -265 549 -272 q 533 -247 533 -257 q 528 114 533 -136 q 522 282 525 213 q 472 133 494 188 q 429 40 450 75 q 368 -17 399 -10 q 313 0 336 -24 q 288 49 296 17 q 274 186 274 96 q 281 333 275 240 q 285 421 286 410 q 290 440 283 432 q 308 449 297 447 q 326 443 318 450 q 335 426 333 436 z "},"":{"ha":403,"x_min":281,"x_max":592,"o":"m 338 61 q 429 108 389 79 q 492 169 469 138 q 528 234 514 200 q 541 297 542 268 q 535 351 540 326 q 475 401 518 410 q 340 258 411 390 q 335 251 338 254 q 335 190 335 232 q 338 125 336 147 l 338 61 m 332 675 q 335 346 336 590 q 465 451 399 439 q 540 435 508 460 q 583 367 571 410 q 591 296 590 333 q 575 217 592 258 q 532 138 558 175 q 459 68 506 101 q 354 14 413 35 q 336 15 344 11 q 332 -46 335 -17 q 323 -62 331 -56 q 305 -68 315 -69 q 288 -59 294 -67 q 282 -40 281 -51 q 288 125 288 26 q 285 203 286 144 q 285 293 285 261 q 285 410 285 324 q 285 556 286 496 q 282 672 285 615 q 289 690 282 682 q 306 699 296 699 q 324 692 315 699 q 332 675 332 685 z "},"":{"ha":397,"x_min":274,"x_max":583,"o":"m 335 426 q 331 329 336 415 q 324 186 325 238 q 335 63 324 103 q 349 35 340 43 q 357 33 351 32 q 387 66 368 35 q 426 151 406 97 q 481 314 443 193 q 494 361 485 331 q 507 404 503 392 q 508 408 507 406 q 508 414 508 410 q 510 422 508 418 q 514 438 511 432 q 515 442 514 439 q 524 449 517 444 q 542 451 531 453 q 553 447 549 450 q 560 439 558 443 l 561 436 q 565 418 564 431 q 568 396 567 410 q 571 325 569 369 q 578 115 575 247 q 583 -247 583 -140 q 576 -265 583 -257 q 558 -272 568 -272 q 541 -265 549 -272 q 533 -247 533 -257 q 528 114 533 -136 q 522 282 525 213 q 472 133 494 188 q 429 40 450 75 q 368 -17 399 -10 q 313 0 336 -24 q 288 49 296 17 q 274 186 274 96 q 281 333 275 240 q 285 421 286 410 q 290 440 283 432 q 308 449 297 447 q 326 443 318 450 q 335 426 333 436 m 405 516 q 409 512 405 516 q 413 499 413 508 q 405 481 413 489 q 388 474 397 474 q 370 481 378 474 q 363 499 363 489 q 370 516 363 508 q 388 524 378 524 q 405 516 397 524 m 503 515 q 507 511 503 515 q 511 497 511 507 q 503 480 511 488 q 486 472 496 472 q 469 480 476 472 q 461 497 461 488 q 469 515 461 507 q 486 522 476 522 q 503 515 496 522 z "},"":{"ha":738,"x_min":256,"x_max":939,"o":"m 506 664 l 496 664 l 488 664 l 471 664 q 453 658 457 663 q 369 515 407 610 q 319 317 332 419 q 331 121 307 204 q 418 4 356 38 q 524 -15 472 -25 q 653 106 607 -1 q 688 347 697 210 q 621 576 679 486 q 506 664 574 650 m 557 701 q 611 706 574 703 l 669 711 q 721 716 690 714 q 780 717 751 718 q 835 715 808 717 q 853 706 846 714 q 858 688 860 699 q 849 671 857 678 q 832 665 842 664 q 619 657 758 671 q 663 604 643 635 q 736 365 724 508 q 878 371 825 365 q 897 365 889 372 q 906 348 904 358 q 900 330 907 338 q 883 321 893 322 q 739 315 829 315 q 699 86 742 186 q 647 1 678 38 q 911 18 703 3 q 928 13 921 19 q 938 -5 936 6 q 932 -23 939 -15 q 914 -32 925 -31 q 851 -36 897 -33 l 788 -42 q 723 -46 769 -43 q 658 -48 676 -49 q 593 -47 640 -47 q 588 -46 590 -47 q 532 -65 561 -60 q 396 -40 464 -76 q 284 103 313 4 q 269 322 256 201 q 323 535 282 432 q 417 692 364 638 q 449 711 429 706 q 464 717 456 717 q 554 701 513 719 l 557 701 z "},"":{"ha":538,"x_min":225,"x_max":736,"o":"m 397 383 q 325 322 354 371 q 286 208 294 275 q 299 79 276 135 q 367 14 321 24 q 460 42 421 0 q 508 161 499 85 q 491 300 518 238 q 407 378 464 363 q 397 383 401 379 m 478 -10 q 356 -36 425 -51 q 253 61 285 -18 q 236 215 225 128 q 294 367 247 301 q 415 436 340 433 q 440 418 435 438 q 497 381 472 406 q 558 464 519 444 q 658 444 607 490 q 714 356 697 410 q 699 260 733 290 q 686 254 693 256 q 678 253 682 253 q 660 250 671 251 q 614 249 643 250 q 581 248 601 249 q 557 247 560 247 q 558 156 564 201 q 513 28 549 82 q 549 1 529 7 q 596 8 569 -4 q 688 113 650 36 q 701 125 692 122 q 721 124 711 128 q 733 110 731 119 q 732 90 736 100 q 618 -36 688 0 q 536 -47 575 -58 q 478 -10 504 -39 m 668 301 q 667 340 674 314 q 625 407 654 382 q 581 419 600 431 q 533 328 551 404 q 544 297 540 314 q 576 298 553 297 q 614 299 600 299 q 657 300 642 300 q 668 301 664 301 z "},"":{"ha":215,"x_min":354,"x_max":478,"o":"m 474 661 q 469 476 414 536 q 476 459 476 469 q 469 442 476 449 q 451 435 461 435 q 433 443 440 435 q 429 683 354 526 q 443 695 433 692 q 462 694 453 699 q 474 681 471 690 q 474 661 478 671 z "},"":{"ha":219,"x_min":307,"x_max":411,"o":"m 357 676 q 407 543 411 608 q 354 415 404 488 q 338 405 349 407 q 319 408 328 403 q 309 424 311 414 q 313 443 307 435 q 358 546 356 506 q 318 646 361 592 q 313 664 311 654 q 322 681 314 674 q 340 686 331 688 q 357 676 350 685 z "},"":{"ha":314,"x_min":296,"x_max":515,"o":"m 406 649 q 360 551 368 607 q 382 463 350 493 q 390 445 390 456 q 383 427 390 435 q 366 419 376 419 q 349 426 356 419 q 310 560 296 475 q 367 682 322 629 q 384 690 374 689 q 402 685 394 692 q 411 667 410 678 q 406 649 413 657 m 510 639 q 474 551 481 597 q 492 474 467 501 q 499 456 499 467 q 491 439 499 446 q 473 432 483 432 q 456 440 463 432 q 425 558 414 485 q 468 667 433 617 q 484 677 474 675 q 503 674 494 679 q 513 658 511 668 q 510 639 515 647 z "},"":{"ha":318,"x_min":319,"x_max":510,"o":"m 361 679 q 411 572 413 633 q 375 467 410 526 q 359 455 369 457 q 340 458 349 453 q 328 473 331 463 q 331 492 326 483 q 361 574 360 540 q 328 640 361 611 q 320 658 321 647 q 326 676 319 668 q 342 684 332 683 q 361 679 353 685 m 446 700 q 504 590 499 653 q 469 472 510 528 q 452 463 463 464 q 433 467 442 461 q 424 484 425 474 q 428 503 422 494 q 454 586 458 543 q 413 661 450 629 q 405 678 406 668 q 410 697 404 689 q 427 705 417 704 q 446 700 438 706 z "},"":{"ha":531,"x_min":346,"x_max":719,"o":"m 679 604 q 396 8 515 378 q 384 -7 393 -3 q 365 -8 375 -11 q 350 3 354 -6 q 349 22 346 13 q 638 635 469 401 q 655 644 644 643 q 674 640 665 646 q 683 623 682 633 q 679 604 685 613 m 427 569 q 431 565 427 569 q 435 551 435 561 q 427 534 435 542 q 410 526 419 526 q 392 534 400 526 q 385 551 385 542 q 392 569 385 561 q 410 576 400 576 q 427 569 419 576 m 619 88 q 623 84 619 88 q 626 71 626 81 q 619 53 626 61 q 601 46 611 46 q 584 53 592 46 q 576 71 576 61 q 584 88 576 81 q 601 96 592 96 q 619 88 611 96 m 712 83 q 716 79 712 83 q 719 65 719 75 q 712 48 719 56 q 694 40 704 40 q 677 48 685 40 q 669 65 669 56 q 677 83 669 75 q 694 90 685 90 q 712 83 704 90 z "},"":{"ha":549,"x_min":189,"x_max":738,"o":"m 558 553 q 519 614 554 590 q 461 613 488 636 q 390 483 421 579 q 361 368 371 422 q 515 399 443 381 q 535 397 526 401 q 547 381 544 392 q 544 362 549 371 q 529 351 539 353 q 353 317 446 329 q 350 244 349 279 q 501 261 439 253 q 519 256 511 263 q 529 240 528 250 q 524 221 531 229 q 507 211 518 213 q 353 194 446 203 q 357 172 354 183 q 418 51 371 99 q 531 28 469 1 q 689 214 610 64 q 704 226 694 224 q 723 224 714 229 q 735 210 732 219 q 733 192 738 200 q 550 -17 646 25 q 383 15 460 -58 q 307 164 324 74 q 303 190 304 176 q 218 183 243 186 q 199 189 207 182 q 190 206 192 196 q 196 224 189 217 q 213 233 203 232 q 300 240 239 236 q 303 311 299 275 q 232 304 269 307 q 215 310 222 303 q 206 327 207 317 q 211 345 204 338 q 229 354 218 353 q 308 361 272 357 q 343 500 319 426 q 428 651 378 608 q 491 675 461 675 q 547 656 521 675 q 608 558 600 619 q 603 540 610 549 q 587 531 597 532 q 568 535 576 529 q 558 553 560 542 z "},"":{"ha":767,"x_min":257,"x_max":954,"o":"m 851 633 l 850 618 q 840 572 846 590 q 793 486 826 513 q 750 475 774 471 q 714 494 732 478 q 681 536 697 508 q 679 347 686 444 q 670 330 678 336 q 652 324 663 324 q 635 333 642 325 q 629 350 629 340 q 611 686 642 531 q 606 704 607 697 q 608 723 603 714 q 622 735 613 732 q 641 733 632 738 q 653 718 650 728 q 658 708 657 714 l 660 699 q 707 589 682 636 q 747 531 729 547 q 760 524 756 525 q 763 525 761 524 q 793 585 782 542 q 800 625 796 600 q 803 644 801 629 q 806 665 804 658 q 818 729 811 696 q 824 753 821 744 q 825 761 824 758 q 826 767 826 764 l 832 772 q 844 779 836 778 q 867 774 857 783 q 874 764 871 771 q 876 757 875 761 q 881 743 878 751 q 890 697 885 728 l 915 563 l 953 332 q 948 313 954 321 q 931 303 942 304 q 913 308 921 301 q 903 324 904 314 q 865 554 890 414 l 851 633 m 281 664 q 417 693 336 665 l 558 742 q 577 740 568 744 q 589 725 586 735 q 587 706 592 715 q 572 694 582 697 q 464 657 543 686 q 475 350 490 489 q 465 333 474 340 q 447 328 457 326 q 431 338 438 329 q 425 356 424 346 q 417 640 440 485 q 283 614 342 615 q 265 621 272 614 q 257 638 257 628 q 264 656 257 649 q 281 664 271 664 z "},"":{"ha":1389,"x_min":0,"x_max":0,"o":""},"":{"ha":897,"x_min":-57,"x_max":1089,"o":"m 89 188 q 156 99 146 113 q 169 135 168 121 q 154 179 171 156 q 138 188 150 185 q 96 189 121 190 q 89 188 92 188 m 301 94 q 229 74 261 89 q 192 51 200 60 l 189 47 l 203 25 q 301 94 240 69 m 399 69 q 331 53 363 65 q 228 -25 260 26 q 246 -78 239 -51 q 244 -97 249 -87 q 229 -108 239 -106 q 204 -101 214 -112 q 206 -128 203 -124 q 249 -137 219 -146 q 324 -93 283 -129 q 388 -15 364 -57 q 406 50 411 26 q 399 69 404 61 m 510 260 q 449 276 465 286 q 439 233 435 268 q 467 156 443 190 q 508 126 489 125 q 533 144 526 128 q 535 193 540 164 q 528 215 535 194 q 518 242 521 236 q 510 260 518 243 m 1019 356 l 1022 364 q 1021 428 1031 388 q 988 506 1011 469 q 983 489 985 497 q 986 394 974 431 q 1019 356 996 364 m 35 639 q 68 572 49 608 l 101 515 l 143 447 l 181 389 l 185 382 q 163 536 163 485 q 199 703 164 599 q 211 717 201 713 q 231 718 221 721 q 244 706 240 715 q 246 686 249 696 q 213 536 214 590 q 238 379 213 489 q 245 331 243 349 q 246 299 247 313 q 232 264 243 276 q 217 257 225 258 q 206 258 210 256 l 201 261 q 196 265 199 263 q 193 267 194 265 l 193 268 l 192 269 l 190 272 l 186 281 l 172 306 l 139 361 q 101 421 131 374 l 60 489 q 25 549 46 511 q -10 619 4 586 q -10 638 -14 629 q 3 651 -7 647 q 22 652 13 656 q 35 639 31 649 m -53 142 q -49 153 -51 146 q -43 167 -46 161 q -37 178 -40 174 q -6 210 -28 194 q 15 221 3 215 q 25 233 18 228 q 54 232 39 243 q 90 239 72 236 q 147 236 124 242 q 196 207 181 229 q 218 131 222 168 l 218 124 q 342 147 281 150 q 418 122 388 144 l 429 122 l 426 128 q 389 228 394 172 q 422 319 382 294 q 535 304 464 344 q 543 300 539 303 q 547 297 546 299 l 550 294 q 557 285 554 290 l 558 282 l 571 264 q 603 221 590 236 q 636 192 622 199 l 640 189 q 643 199 643 192 q 638 229 643 211 q 613 286 629 257 q 611 289 613 288 q 608 293 610 290 q 604 299 606 296 q 597 312 599 307 q 594 321 594 317 q 607 342 596 335 q 624 346 614 347 q 632 344 628 346 q 650 332 639 342 l 667 315 q 710 275 696 286 q 751 247 735 253 l 763 246 q 768 264 765 250 q 771 301 771 279 q 764 372 771 342 q 743 431 761 388 q 739 436 742 432 l 735 444 q 729 456 731 451 q 728 464 728 460 q 749 489 726 485 q 758 490 753 490 q 765 488 763 489 l 767 486 q 771 482 769 485 q 794 456 783 471 q 796 472 796 464 q 851 583 804 549 q 953 600 900 619 l 964 594 q 1049 711 999 676 q 1067 715 1057 717 q 1083 704 1076 713 q 1087 686 1089 696 q 1076 669 1085 676 q 1004 563 1036 640 q 1028 535 1017 550 q 1069 439 1057 492 q 1069 347 1082 386 q 1058 324 1064 333 q 1019 304 1043 300 q 939 378 958 315 q 935 497 922 428 q 946 547 939 522 q 935 553 940 551 q 882 544 908 564 q 846 467 851 521 q 850 386 842 431 q 953 279 921 317 q 1014 199 994 232 q 1029 161 1026 178 q 1021 118 1035 135 q 982 106 1006 103 q 954 114 968 107 q 879 186 914 133 q 821 301 843 240 q 817 254 821 274 q 799 213 813 226 q 733 200 774 185 q 689 226 714 208 q 693 199 693 211 q 676 153 693 169 q 611 147 650 126 q 586 165 600 154 q 579 128 586 144 q 565 103 575 114 l 571 101 q 584 88 581 97 q 584 68 588 78 q 571 55 581 58 q 551 54 561 51 q 451 74 507 72 q 456 61 454 67 q 432 -39 464 18 q 357 -131 404 -89 q 261 -186 307 -174 q 167 -158 200 -203 q 154 -99 151 -139 q 172 -24 157 -58 l 154 10 q 153 7 153 8 q 150 6 151 6 q 140 1 146 3 q 117 8 126 -3 q 110 29 108 17 l 113 38 q 115 42 114 39 q 125 54 117 44 q 75 122 108 78 q 36 175 42 165 q 22 168 26 171 q 6 153 10 160 q 3 147 4 150 l -1 136 q -8 122 -4 129 q -22 109 -12 113 q -40 110 -31 106 q -53 123 -50 114 q -53 142 -57 132 m 344 401 q 348 397 344 401 q 351 383 351 393 q 344 366 351 374 q 326 358 336 358 q 309 366 317 358 q 301 383 301 374 q 309 401 301 393 q 326 408 317 408 q 344 401 336 408 m 978 158 q 971 174 975 165 q 915 246 954 203 l 882 282 q 976 158 926 183 q 978 158 976 158 z "}}}
